{"glyphs":{"0":{"ha":732,"x_min":60,"x_max":671,"o":"m 357 -16 q 232 15 287 -16 q 139 107 177 46 q 80 258 100 168 q 60 466 60 348 q 142 857 60 725 q 378 989 224 989 q 671 490 671 989 q 650 273 671 367 q 588 114 629 178 q 490 17 548 50 q 357 -16 431 -16 m 372 913 q 207 803 264 913 q 150 473 150 693 q 204 164 150 269 q 366 58 259 58 q 459 86 418 58 q 526 166 499 113 q 567 298 553 220 q 581 479 581 377 q 372 913 581 913 z "},"1":{"ha":521,"x_min":56,"x_max":376,"o":"m 289 0 l 289 869 q 236 830 265 849 q 175 794 206 811 q 114 765 144 778 q 56 743 83 751 l 56 819 q 209 890 136 845 q 351 994 282 935 l 376 994 l 376 0 l 289 0 z "},"2":{"ha":732,"x_min":69,"x_max":645,"o":"m 536 723 q 523 805 536 769 q 484 864 509 840 q 423 901 458 888 q 345 913 388 913 q 220 882 280 913 q 107 800 160 851 l 107 896 q 220 964 159 940 q 357 989 281 989 q 381 987 370 989 q 403 983 392 986 q 494 958 453 978 q 564 906 535 938 q 609 830 593 874 q 625 733 625 787 q 609 621 625 671 q 563 530 593 572 q 490 451 532 488 q 395 377 448 414 q 295 303 337 335 q 226 241 254 271 q 184 183 199 212 q 166 118 170 154 q 162 99 163 109 q 161 78 161 90 l 645 78 l 645 0 l 69 0 l 69 47 q 84 160 69 112 q 132 249 100 208 q 216 332 165 291 q 338 425 267 374 q 423 493 386 460 q 486 561 460 526 q 524 635 511 596 q 536 723 536 675 z "},"3":{"ha":732,"x_min":83,"x_max":627,"o":"m 83 131 q 300 58 189 58 q 389 70 347 58 q 465 106 432 81 q 517 169 498 131 q 537 261 537 208 q 466 414 537 363 q 255 466 394 466 l 178 466 l 178 541 l 249 541 q 439 591 375 541 q 503 736 503 641 q 455 868 503 823 q 314 913 408 913 q 121 846 216 913 l 121 934 q 332 989 223 989 q 431 975 384 989 q 514 931 479 960 q 571 860 550 903 q 593 759 593 817 q 400 510 593 564 l 400 507 q 489 484 448 502 q 561 436 530 466 q 609 364 591 406 q 627 271 627 322 q 601 148 627 201 q 530 58 575 94 q 426 2 486 21 q 298 -17 366 -17 q 83 35 174 -17 l 83 131 z "},"4":{"ha":762,"x_min":34,"x_max":732,"o":"m 581 972 l 581 320 l 732 320 l 732 241 l 581 241 l 581 0 l 494 0 l 494 241 l 34 241 l 34 320 q 164 476 98 393 q 291 645 231 559 q 402 815 351 731 q 488 972 453 899 l 581 972 m 494 320 l 494 833 q 395 672 444 747 q 299 533 345 597 q 210 416 252 469 q 132 320 168 363 l 494 320 z "},"5":{"ha":732,"x_min":109,"x_max":633,"o":"m 109 117 q 302 58 205 58 q 403 75 358 58 q 479 121 448 91 q 528 193 511 151 q 545 286 545 235 q 479 449 545 393 q 285 505 413 505 q 137 497 233 505 l 167 972 l 591 972 l 591 894 l 241 894 l 220 578 q 314 583 279 583 q 451 563 391 583 q 551 505 510 543 q 612 414 591 468 q 633 293 633 361 q 611 167 633 224 q 546 69 589 110 q 441 6 503 28 q 299 -16 378 -16 q 109 22 179 -16 l 109 117 z "},"6":{"ha":732,"x_min":79,"x_max":675,"o":"m 675 309 q 653 178 675 237 q 592 75 631 118 q 497 7 552 32 q 378 -17 443 -17 q 252 13 307 -17 q 158 99 197 42 q 100 239 120 156 q 79 427 79 321 q 106 658 79 554 q 183 835 133 762 q 305 949 233 909 q 467 989 376 989 q 618 963 557 989 l 618 877 q 467 913 547 913 q 343 881 399 913 q 250 789 288 848 q 190 648 211 730 q 169 466 169 566 l 172 466 q 404 608 241 608 q 516 586 466 608 q 601 524 566 564 q 656 429 637 484 q 675 309 675 374 m 586 295 q 572 393 586 349 q 532 468 558 437 q 469 515 507 498 q 385 532 432 532 q 301 515 340 532 q 235 467 263 497 q 192 399 208 437 q 176 318 176 360 q 191 218 176 265 q 233 136 206 171 q 298 80 260 100 q 382 59 336 59 q 465 77 427 59 q 529 126 502 94 q 571 200 555 157 q 586 295 586 243 z "},"7":{"ha":701,"x_min":47,"x_max":654,"o":"m 654 936 q 557 758 602 842 q 476 595 513 673 q 409 444 439 517 q 356 298 379 371 q 315 152 332 226 q 286 0 298 78 l 194 0 q 243 217 210 106 q 323 441 277 328 q 426 669 369 555 q 547 894 484 783 l 47 894 l 47 972 l 654 972 l 654 936 z "},"8":{"ha":732,"x_min":66,"x_max":668,"o":"m 66 271 q 78 348 66 310 q 113 420 90 387 q 170 481 136 454 q 248 524 203 508 q 143 615 182 558 q 104 741 104 671 q 124 840 104 794 q 179 918 144 885 q 263 970 214 951 q 368 989 311 989 q 473 970 425 989 q 557 918 522 951 q 612 839 592 884 q 631 741 631 793 q 621 674 631 706 q 592 614 611 642 q 548 564 574 587 q 490 524 522 541 q 566 481 533 508 q 622 420 600 454 q 656 348 645 387 q 668 271 668 310 q 646 152 668 205 q 584 62 624 99 q 489 4 545 24 q 367 -16 434 -16 q 246 4 301 -16 q 151 62 191 24 q 89 152 111 99 q 66 271 66 205 m 159 273 q 174 185 159 224 q 217 119 189 146 q 282 76 244 91 q 367 61 320 61 q 451 76 412 61 q 516 119 489 92 q 559 185 544 146 q 575 273 575 224 q 560 354 575 315 q 518 421 545 392 q 453 466 491 450 q 367 483 414 483 q 284 467 322 483 q 218 424 246 452 q 175 357 191 396 q 159 273 159 319 m 193 735 q 207 665 193 698 q 244 609 220 633 q 300 571 268 585 q 368 557 332 557 q 435 571 404 557 q 491 609 467 585 q 529 666 515 633 q 543 735 543 699 q 529 806 543 773 q 492 862 515 838 q 436 900 469 886 q 368 913 404 913 q 297 900 329 913 q 241 861 264 886 q 206 804 218 837 q 193 735 193 772 z "},"9":{"ha":732,"x_min":66,"x_max":663,"o":"m 663 547 q 637 308 663 412 q 562 131 611 203 q 440 21 513 58 q 274 -17 368 -17 q 119 12 191 -17 l 119 100 q 276 59 198 59 q 496 173 419 59 q 574 506 574 288 l 571 506 q 343 365 506 365 q 231 387 282 365 q 144 449 180 410 q 87 544 107 489 q 66 666 66 600 q 89 797 66 738 q 152 899 112 857 q 248 965 193 942 q 370 989 304 989 q 493 960 438 989 q 585 876 547 932 q 643 737 623 820 q 663 547 663 654 m 566 646 q 550 754 566 705 q 508 839 535 804 q 443 893 481 873 q 360 913 405 913 q 279 895 316 913 q 214 847 241 878 q 172 773 187 816 q 156 680 156 730 q 171 581 156 625 q 213 506 186 536 q 278 459 240 475 q 363 443 317 443 q 442 459 405 443 q 506 503 479 475 q 550 567 534 530 q 566 646 566 604 z "},"\u0000":{"ha":0,"x_min":0,"x_max":0,"o":""},"\r":{"ha":0,"x_min":0,"x_max":0,"o":""}," ":{"ha":380,"x_min":0,"x_max":0,"o":""},"A":{"ha":884,"x_min":27,"x_max":857,"o":"m 756 0 l 649 288 l 232 288 l 127 0 l 27 0 l 397 972 l 488 972 l 857 0 l 756 0 m 460 802 q 450 832 455 815 q 441 871 445 849 l 439 871 q 430 832 435 849 q 420 802 425 815 l 262 370 l 618 370 l 460 802 z "},"B":{"ha":776,"x_min":126,"x_max":702,"o":"m 126 0 l 126 972 l 392 972 q 501 956 452 972 q 584 910 549 940 q 636 840 618 881 q 654 749 654 798 q 643 670 654 707 q 610 603 631 633 q 556 551 588 573 q 485 516 525 529 l 485 513 q 574 490 534 509 q 642 440 614 471 q 686 369 671 410 q 702 279 702 328 q 680 166 702 217 q 617 78 657 115 q 521 20 576 41 q 398 0 465 0 l 126 0 m 216 890 l 216 545 l 342 545 q 432 557 392 545 q 500 595 472 570 q 544 654 529 619 q 559 732 559 688 q 363 890 559 890 l 216 890 m 216 463 l 216 82 l 384 82 q 550 133 492 82 q 608 276 608 183 q 353 463 608 463 l 216 463 z "},"C":{"ha":861,"x_min":68,"x_max":780,"o":"m 780 36 q 523 -17 667 -17 q 336 19 420 -17 q 192 120 252 56 q 101 273 133 184 q 68 467 68 362 q 103 673 68 578 q 201 839 137 768 q 355 949 264 909 q 558 989 446 989 q 780 951 682 989 l 780 854 q 557 907 675 907 q 389 874 463 907 q 266 784 316 842 q 189 647 216 726 q 163 474 163 568 q 186 316 163 390 q 257 186 210 241 q 372 98 303 130 q 533 65 441 65 q 780 124 673 65 l 780 36 z "},"D":{"ha":955,"x_min":126,"x_max":886,"o":"m 126 0 l 126 972 l 382 972 q 759 853 631 972 q 886 499 886 733 q 851 294 886 387 q 748 137 815 202 q 585 36 681 71 q 370 0 490 0 l 126 0 m 216 890 l 216 82 l 366 82 q 545 109 466 82 q 679 189 624 136 q 763 319 734 241 q 791 496 791 396 q 376 890 791 890 l 216 890 z "},"E":{"ha":699,"x_min":126,"x_max":622,"o":"m 126 0 l 126 972 l 600 972 l 600 890 l 216 890 l 216 533 l 572 533 l 572 452 l 216 452 l 216 82 l 622 82 l 622 0 l 126 0 z "},"F":{"ha":662,"x_min":126,"x_max":600,"o":"m 216 890 l 216 524 l 572 524 l 572 441 l 216 441 l 216 0 l 126 0 l 126 972 l 600 972 l 600 890 l 216 890 z "},"G":{"ha":940,"x_min":68,"x_max":841,"o":"m 841 67 q 524 -17 691 -17 q 334 19 418 -17 q 191 120 250 56 q 100 275 132 185 q 68 473 68 365 q 84 610 68 544 q 129 733 99 675 q 201 838 158 791 q 299 918 243 884 q 420 970 354 952 q 564 989 487 989 q 821 937 708 989 l 821 838 q 553 907 696 907 q 392 874 464 907 q 270 785 320 842 q 191 650 219 728 q 163 481 163 572 q 186 315 162 391 q 258 183 210 239 q 375 96 305 127 q 536 65 445 65 q 751 117 660 65 l 751 413 l 530 413 l 530 495 l 841 495 l 841 67 z "},"H":{"ha":963,"x_min":126,"x_max":837,"o":"m 747 0 l 747 455 l 216 455 l 216 0 l 126 0 l 126 972 l 216 972 l 216 536 l 747 536 l 747 972 l 837 972 l 837 0 l 747 0 z "},"I":{"ha":343,"x_min":126,"x_max":216,"o":"m 216 0 l 126 0 l 126 972 l 216 972 l 216 0 z "},"J":{"ha":473,"x_min":13,"x_max":353,"o":"m 353 342 q 286 72 353 160 q 96 -16 219 -16 q 52 -13 73 -16 q 13 -3 31 -10 l 13 85 q 98 65 51 65 q 223 133 184 65 q 263 342 263 201 l 263 972 l 353 972 l 353 342 z "},"K":{"ha":768,"x_min":126,"x_max":762,"o":"m 635 0 l 240 455 q 219 483 224 475 l 216 483 l 216 0 l 126 0 l 126 972 l 216 972 l 216 515 l 219 515 q 229 529 224 522 q 241 543 235 536 l 619 972 l 734 972 l 312 503 l 762 0 l 635 0 z "},"L":{"ha":645,"x_min":126,"x_max":607,"o":"m 126 0 l 126 972 l 216 972 l 216 82 l 607 82 l 607 0 l 126 0 z "},"M":{"ha":1202,"x_min":126,"x_max":1076,"o":"m 987 0 l 987 671 q 995 838 987 723 l 992 838 q 975 785 983 807 q 960 748 967 762 l 621 0 l 583 0 l 243 743 q 212 839 228 777 l 210 839 q 213 768 212 808 q 214 679 214 728 l 214 0 l 126 0 l 126 972 l 233 972 l 563 241 q 583 194 573 218 q 601 143 593 170 l 605 143 q 622 193 614 170 q 642 241 630 215 l 975 972 l 1076 972 l 1076 0 l 987 0 z "},"N":{"ha":1012,"x_min":126,"x_max":886,"o":"m 792 0 l 252 781 q 232 811 242 795 q 216 842 222 827 l 213 842 q 215 808 214 829 q 216 753 216 786 l 216 0 l 126 0 l 126 972 l 226 972 l 757 201 q 779 167 769 183 q 797 138 789 151 l 800 138 q 796 188 798 160 q 795 250 795 216 l 795 972 l 886 972 l 886 0 l 792 0 z "},"O":{"ha":1052,"x_min":68,"x_max":983,"o":"m 522 -17 q 333 21 417 -17 q 190 126 249 60 q 100 282 132 193 q 68 475 68 372 q 100 684 68 589 q 192 846 132 779 q 340 951 252 913 q 539 989 427 989 q 724 952 642 989 q 864 849 806 915 q 952 694 922 784 q 983 500 983 605 q 953 295 983 389 q 864 131 923 200 q 720 22 806 62 q 522 -17 634 -17 m 530 907 q 373 873 441 907 q 258 782 305 840 q 188 648 212 725 q 163 484 163 571 q 184 326 162 401 q 251 192 206 250 q 363 100 295 134 q 522 65 431 65 q 681 97 612 65 q 796 184 750 128 q 866 317 842 240 q 889 486 889 395 q 868 648 889 572 q 804 782 848 725 q 692 873 760 840 q 530 907 625 907 z "},"P":{"ha":766,"x_min":126,"x_max":695,"o":"m 216 378 l 216 0 l 126 0 l 126 972 l 377 972 q 513 954 454 972 q 612 899 572 935 q 674 810 653 863 q 695 691 695 758 q 671 566 695 623 q 603 467 648 509 q 495 402 559 425 q 351 378 431 378 l 216 378 m 216 890 l 216 461 l 345 461 q 536 519 471 461 q 601 684 601 578 q 361 890 601 890 l 216 890 z "},"Q":{"ha":1052,"x_min":68,"x_max":1042,"o":"m 522 -16 q 335 20 419 -16 q 192 120 252 56 q 101 276 133 185 q 68 475 68 366 q 101 687 68 593 q 195 849 134 782 q 343 952 256 916 q 539 989 431 989 q 720 953 638 989 q 860 853 802 918 q 951 698 919 788 q 983 500 983 608 q 928 228 983 342 q 774 52 873 114 l 1042 -131 l 878 -131 l 683 9 q 606 -10 646 -3 q 522 -16 566 -16 m 530 907 q 381 876 449 907 q 266 789 314 845 q 190 656 217 734 q 163 484 163 578 q 189 312 163 389 q 261 180 214 235 q 374 95 308 125 q 522 65 440 65 q 674 94 606 65 q 790 176 742 122 q 863 309 838 231 q 889 486 889 387 q 864 664 889 586 q 792 796 839 742 q 679 878 745 850 q 530 907 612 907 z "},"R":{"ha":801,"x_min":126,"x_max":762,"o":"m 656 0 l 509 279 q 467 348 488 320 q 425 392 447 376 q 379 416 404 409 q 323 423 354 423 l 216 423 l 216 0 l 126 0 l 126 972 l 406 972 q 512 956 461 972 q 604 908 564 940 q 668 828 644 876 q 692 716 692 780 q 676 621 692 665 q 632 544 661 578 q 562 487 603 511 q 469 452 521 464 l 469 450 q 505 429 489 441 q 537 397 522 416 q 567 355 552 379 q 598 301 582 332 l 762 0 l 656 0 m 216 890 l 216 505 l 378 505 q 467 519 427 505 q 537 560 508 534 q 582 624 566 587 q 597 708 597 661 q 543 841 597 793 q 385 890 488 890 l 216 890 z "},"S":{"ha":714,"x_min":88,"x_max":639,"o":"m 88 142 q 142 110 113 124 q 202 85 172 95 q 264 70 233 75 q 324 65 296 65 q 490 108 435 65 q 545 231 545 151 q 532 298 545 269 q 492 352 519 327 q 423 402 465 377 q 326 458 382 427 q 219 522 263 492 q 146 584 174 552 q 105 652 118 615 q 92 735 92 688 q 117 841 92 794 q 184 921 142 888 q 284 971 227 954 q 407 989 342 989 q 599 957 522 989 l 599 857 q 397 907 513 907 q 315 896 353 907 q 248 865 277 886 q 202 815 219 845 q 186 745 186 785 q 197 679 186 707 q 233 627 208 652 q 298 579 258 603 q 397 524 338 555 q 503 460 458 491 q 579 396 549 429 q 624 325 609 362 q 639 241 639 287 q 615 129 639 177 q 549 48 591 80 q 447 0 506 16 q 317 -16 388 -16 q 262 -13 294 -16 q 198 -2 231 -9 q 136 15 165 5 q 88 37 106 25 l 88 142 z "},"T":{"ha":719,"x_min":34,"x_max":685,"o":"m 404 890 l 404 0 l 314 0 l 314 890 l 34 890 l 34 972 l 685 972 l 685 890 l 404 890 z "},"U":{"ha":927,"x_min":114,"x_max":813,"o":"m 813 391 q 455 -17 813 -17 q 114 376 114 -17 l 114 972 l 204 972 l 204 384 q 269 144 204 224 q 468 65 333 65 q 723 374 723 65 l 723 972 l 813 972 l 813 391 z "},"V":{"ha":850,"x_min":20,"x_max":831,"o":"m 462 0 l 374 0 l 20 972 l 121 972 l 396 195 q 409 152 404 174 q 418 106 415 130 l 421 106 q 431 148 425 125 q 446 197 437 170 l 733 972 l 831 972 l 462 0 z "},"W":{"ha":1270,"x_min":26,"x_max":1244,"o":"m 964 0 l 870 0 l 662 721 q 650 770 654 747 q 645 817 646 794 l 642 817 q 623 722 640 777 l 407 0 l 313 0 l 26 972 l 126 972 l 340 210 q 352 162 348 184 q 359 118 357 139 l 362 118 q 385 210 366 149 l 612 972 l 684 972 l 897 207 q 908 162 903 184 q 916 119 913 140 l 918 119 q 924 149 920 132 q 933 187 928 166 l 1146 972 l 1244 972 l 964 0 z "},"X":{"ha":800,"x_min":29,"x_max":766,"o":"m 656 0 l 432 372 q 416 400 425 385 q 403 429 408 415 l 399 429 q 386 401 393 416 q 369 372 378 387 l 140 0 l 29 0 l 346 490 l 52 972 l 161 972 l 370 618 q 388 586 379 603 q 405 552 396 570 l 408 552 q 426 589 417 572 q 444 620 435 606 l 656 972 l 760 972 l 462 491 l 766 0 l 656 0 z "},"Y":{"ha":759,"x_min":23,"x_max":736,"o":"m 418 364 l 418 0 l 328 0 l 328 362 l 23 972 l 125 972 l 348 518 q 359 494 352 510 q 375 452 366 477 l 377 452 q 389 481 381 465 q 407 517 396 497 l 640 972 l 736 972 l 418 364 z "},"Z":{"ha":791,"x_min":33,"x_max":749,"o":"m 169 82 l 738 82 l 738 0 l 33 0 l 33 26 l 610 890 l 79 890 l 79 972 l 749 972 l 749 949 l 169 82 z "},"À":{"ha":884,"x_min":27,"x_max":857,"o":"m 756 0 l 649 288 l 232 288 l 127 0 l 27 0 l 397 972 l 488 972 l 857 0 l 756 0 m 460 802 q 450 832 455 815 q 441 871 445 849 l 439 871 q 430 832 435 849 q 420 802 425 815 l 262 370 l 618 370 l 460 802 m 458 1052 l 285 1274 l 377 1274 l 531 1052 l 458 1052 z "},"Á":{"ha":884,"x_min":27,"x_max":857,"o":"m 756 0 l 649 288 l 232 288 l 127 0 l 27 0 l 397 972 l 488 972 l 857 0 l 756 0 m 460 802 q 450 832 455 815 q 441 871 445 849 l 439 871 q 430 832 435 849 q 420 802 425 815 l 262 370 l 618 370 l 460 802 m 396 1052 l 323 1052 l 477 1274 l 569 1274 l 396 1052 z "},"Â":{"ha":884,"x_min":27,"x_max":857,"o":"m 756 0 l 649 288 l 232 288 l 127 0 l 27 0 l 397 972 l 488 972 l 857 0 l 756 0 m 460 802 q 450 832 455 815 q 441 871 445 849 l 439 871 q 430 832 435 849 q 420 802 425 815 l 262 370 l 618 370 l 460 802 m 544 1052 l 435 1211 l 325 1052 l 258 1052 l 406 1278 l 467 1278 l 614 1052 l 544 1052 z "},"Ã":{"ha":884,"x_min":27,"x_max":857,"o":"m 756 0 l 649 288 l 232 288 l 127 0 l 27 0 l 397 972 l 488 972 l 857 0 l 756 0 m 460 802 q 450 832 455 815 q 441 871 445 849 l 439 871 q 430 832 435 849 q 420 802 425 815 l 262 370 l 618 370 l 460 802 m 659 1213 q 650 1149 659 1178 q 626 1100 642 1121 q 588 1068 610 1080 q 537 1057 566 1057 q 431 1100 491 1057 q 351 1133 384 1133 q 286 1046 286 1133 l 230 1046 q 238 1109 230 1081 q 262 1158 247 1138 q 300 1190 278 1179 q 351 1201 323 1201 q 456 1159 397 1201 q 539 1124 504 1124 q 584 1146 567 1124 q 600 1213 600 1168 l 659 1213 z "},"Ä":{"ha":884,"x_min":27,"x_max":857,"o":"m 756 0 l 649 288 l 232 288 l 127 0 l 27 0 l 397 972 l 488 972 l 857 0 l 756 0 m 460 802 q 450 832 455 815 q 441 871 445 849 l 439 871 q 430 832 435 849 q 420 802 425 815 l 262 370 l 618 370 l 460 802 m 559 1052 q 520 1068 537 1052 q 503 1109 503 1084 q 519 1151 503 1135 q 558 1166 536 1166 q 600 1150 583 1166 q 618 1109 618 1134 q 601 1068 618 1085 q 559 1052 585 1052 m 317 1052 q 294 1056 304 1052 q 275 1068 283 1061 q 262 1087 267 1076 q 258 1109 258 1097 q 275 1151 258 1135 q 315 1166 292 1166 q 338 1162 327 1166 q 357 1150 349 1158 q 370 1132 365 1143 q 374 1109 374 1122 q 357 1068 374 1085 q 317 1052 340 1052 z "},"Å":{"ha":884,"x_min":27,"x_max":857,"o":"m 756 0 l 649 288 l 232 288 l 127 0 l 27 0 l 382 933 q 303 1048 303 965 q 314 1101 303 1077 q 344 1142 325 1125 q 388 1169 363 1160 q 443 1179 414 1179 q 497 1169 472 1179 q 540 1143 522 1160 q 569 1103 558 1126 q 579 1050 579 1079 q 502 935 579 969 l 857 0 l 756 0 m 441 1128 q 382 1106 404 1128 q 359 1050 359 1085 q 381 993 359 1013 q 441 972 403 972 q 500 994 477 972 q 524 1050 524 1016 q 517 1082 524 1068 q 499 1107 511 1097 q 473 1122 488 1117 q 441 1128 458 1128 m 468 781 q 454 820 460 800 q 441 871 448 840 l 439 871 q 430 832 435 849 q 420 802 425 815 l 262 370 l 618 370 l 468 781 z "},"Æ":{"ha":1176,"x_min":9,"x_max":1090,"o":"m 595 0 l 595 288 l 252 288 l 112 0 l 9 0 l 482 972 l 1068 972 l 1068 888 l 684 888 l 684 532 l 1040 532 l 1040 451 l 684 451 l 684 82 l 1090 82 l 1090 0 l 595 0 m 595 888 l 536 888 l 289 370 l 595 370 l 595 888 z "},"Ç":{"ha":861,"x_min":68,"x_max":780,"o":"m 780 36 q 523 -17 667 -17 q 336 19 420 -17 q 192 120 252 56 q 101 273 133 184 q 68 467 68 362 q 103 673 68 578 q 201 839 137 768 q 355 949 264 909 q 558 989 446 989 q 780 951 682 989 l 780 854 q 557 907 675 907 q 389 874 463 907 q 266 784 316 842 q 189 647 216 726 q 163 474 163 568 q 186 316 163 390 q 257 186 210 241 q 372 98 303 130 q 533 65 441 65 q 780 124 673 65 l 780 36 m 646 -176 q 466 -294 646 -294 q 417 -292 441 -294 l 417 -236 q 470 -240 449 -240 q 572 -178 572 -240 q 479 -123 572 -123 q 463 -123 471 -123 q 444 -125 454 -124 l 444 0 l 505 0 l 505 -75 q 609 -101 572 -75 q 646 -176 646 -127 z "},"È":{"ha":699,"x_min":126,"x_max":622,"o":"m 126 0 l 126 972 l 600 972 l 600 890 l 216 890 l 216 533 l 572 533 l 572 452 l 216 452 l 216 82 l 622 82 l 622 0 l 126 0 m 384 1052 l 211 1274 l 303 1274 l 457 1052 l 384 1052 z "},"É":{"ha":699,"x_min":126,"x_max":622,"o":"m 126 0 l 126 972 l 600 972 l 600 890 l 216 890 l 216 533 l 572 533 l 572 452 l 216 452 l 216 82 l 622 82 l 622 0 l 126 0 m 355 1052 l 281 1052 l 436 1274 l 528 1274 l 355 1052 z "},"Ê":{"ha":699,"x_min":126,"x_max":622,"o":"m 126 0 l 126 972 l 600 972 l 600 890 l 216 890 l 216 533 l 572 533 l 572 452 l 216 452 l 216 82 l 622 82 l 622 0 l 126 0 m 476 1052 l 367 1211 l 257 1052 l 191 1052 l 338 1278 l 399 1278 l 547 1052 l 476 1052 z "},"Ë":{"ha":699,"x_min":126,"x_max":622,"o":"m 126 0 l 126 972 l 600 972 l 600 890 l 216 890 l 216 533 l 572 533 l 572 452 l 216 452 l 216 82 l 622 82 l 622 0 l 126 0 m 496 1052 q 456 1068 473 1052 q 439 1109 439 1084 q 455 1151 439 1135 q 494 1166 472 1166 q 536 1150 519 1166 q 554 1109 554 1134 q 537 1068 554 1085 q 496 1052 521 1052 m 253 1052 q 230 1056 241 1052 q 212 1068 220 1061 q 199 1087 203 1076 q 194 1109 194 1097 q 211 1151 194 1135 q 251 1166 228 1166 q 274 1162 263 1166 q 293 1150 285 1158 q 306 1132 301 1143 q 311 1109 311 1122 q 294 1068 311 1085 q 253 1052 277 1052 z "},"Ì":{"ha":343,"x_min":-3,"x_max":243,"o":"m 216 0 l 126 0 l 126 972 l 216 972 l 216 0 m 170 1052 l -3 1274 l 90 1274 l 243 1052 l 170 1052 z "},"Í":{"ha":343,"x_min":98,"x_max":345,"o":"m 216 0 l 126 0 l 126 972 l 216 972 l 216 0 m 172 1052 l 98 1052 l 253 1274 l 345 1274 l 172 1052 z "},"Î":{"ha":343,"x_min":-5,"x_max":351,"o":"m 216 0 l 126 0 l 126 972 l 216 972 l 216 0 m 281 1052 l 172 1211 l 62 1052 l -5 1052 l 143 1278 l 203 1278 l 351 1052 l 281 1052 z "},"Ï":{"ha":343,"x_min":-7,"x_max":353,"o":"m 216 0 l 126 0 l 126 972 l 216 972 l 216 0 m 294 1052 q 255 1068 272 1052 q 237 1109 237 1084 q 254 1151 237 1135 q 293 1166 271 1166 q 335 1150 317 1166 q 353 1109 353 1134 q 336 1068 353 1085 q 294 1052 319 1052 m 52 1052 q 29 1056 39 1052 q 10 1068 18 1061 q -3 1087 2 1076 q -7 1109 -7 1097 q 9 1151 -7 1135 q 50 1166 26 1166 q 73 1162 62 1166 q 92 1150 83 1158 q 104 1132 100 1143 q 109 1109 109 1122 q 92 1068 109 1085 q 52 1052 75 1052 z "},"Ñ":{"ha":1012,"x_min":126,"x_max":886,"o":"m 792 0 l 252 781 q 232 811 242 795 q 216 842 222 827 l 213 842 q 215 808 214 829 q 216 753 216 786 l 216 0 l 126 0 l 126 972 l 226 972 l 757 201 q 779 167 769 183 q 797 138 789 151 l 800 138 q 796 188 798 160 q 795 250 795 216 l 795 972 l 886 972 l 886 0 l 792 0 m 751 1213 q 742 1149 751 1178 q 718 1100 734 1121 q 680 1068 703 1080 q 629 1057 658 1057 q 524 1100 583 1057 q 443 1133 476 1133 q 378 1046 378 1133 l 322 1046 q 331 1109 322 1081 q 355 1158 339 1138 q 393 1190 370 1179 q 444 1201 415 1201 q 548 1159 490 1201 q 631 1124 596 1124 q 676 1146 659 1124 q 692 1213 692 1168 l 751 1213 z "},"Ò":{"ha":1052,"x_min":68,"x_max":983,"o":"m 522 -17 q 333 21 417 -17 q 190 126 249 60 q 100 282 132 193 q 68 475 68 372 q 100 684 68 589 q 192 846 132 779 q 340 951 252 913 q 539 989 427 989 q 724 952 642 989 q 864 849 806 915 q 952 694 922 784 q 983 500 983 605 q 953 295 983 389 q 864 131 923 200 q 720 22 806 62 q 522 -17 634 -17 m 530 907 q 373 873 441 907 q 258 782 305 840 q 188 648 212 725 q 163 484 163 571 q 184 326 162 401 q 251 192 206 250 q 363 100 295 134 q 522 65 431 65 q 681 97 612 65 q 796 184 750 128 q 866 317 842 240 q 889 486 889 395 q 868 648 889 572 q 804 782 848 725 q 692 873 760 840 q 530 907 625 907 m 549 1052 l 376 1274 l 468 1274 l 622 1052 l 549 1052 z "},"Ó":{"ha":1052,"x_min":68,"x_max":983,"o":"m 522 -17 q 333 21 417 -17 q 190 126 249 60 q 100 282 132 193 q 68 475 68 372 q 100 684 68 589 q 192 846 132 779 q 340 951 252 913 q 539 989 427 989 q 724 952 642 989 q 864 849 806 915 q 952 694 922 784 q 983 500 983 605 q 953 295 983 389 q 864 131 923 200 q 720 22 806 62 q 522 -17 634 -17 m 530 907 q 373 873 441 907 q 258 782 305 840 q 188 648 212 725 q 163 484 163 571 q 184 326 162 401 q 251 192 206 250 q 363 100 295 134 q 522 65 431 65 q 681 97 612 65 q 796 184 750 128 q 866 317 842 240 q 889 486 889 395 q 868 648 889 572 q 804 782 848 725 q 692 873 760 840 q 530 907 625 907 m 507 1052 l 434 1052 l 589 1274 l 680 1274 l 507 1052 z "},"Ô":{"ha":1052,"x_min":68,"x_max":983,"o":"m 522 -17 q 333 21 417 -17 q 190 126 249 60 q 100 282 132 193 q 68 475 68 372 q 100 684 68 589 q 192 846 132 779 q 340 951 252 913 q 539 989 427 989 q 724 952 642 989 q 864 849 806 915 q 952 694 922 784 q 983 500 983 605 q 953 295 983 389 q 864 131 923 200 q 720 22 806 62 q 522 -17 634 -17 m 530 907 q 373 873 441 907 q 258 782 305 840 q 188 648 212 725 q 163 484 163 571 q 184 326 162 401 q 251 192 206 250 q 363 100 295 134 q 522 65 431 65 q 681 97 612 65 q 796 184 750 128 q 866 317 842 240 q 889 486 889 395 q 868 648 889 572 q 804 782 848 725 q 692 873 760 840 q 530 907 625 907 m 636 1052 l 527 1211 l 417 1052 l 351 1052 l 498 1278 l 559 1278 l 707 1052 l 636 1052 z "},"Õ":{"ha":1052,"x_min":68,"x_max":983,"o":"m 522 -17 q 333 21 417 -17 q 190 126 249 60 q 100 282 132 193 q 68 475 68 372 q 100 684 68 589 q 192 846 132 779 q 340 951 252 913 q 539 989 427 989 q 724 952 642 989 q 864 849 806 915 q 952 694 922 784 q 983 500 983 605 q 953 295 983 389 q 864 131 923 200 q 720 22 806 62 q 522 -17 634 -17 m 530 907 q 373 873 441 907 q 258 782 305 840 q 188 648 212 725 q 163 484 163 571 q 184 326 162 401 q 251 192 206 250 q 363 100 295 134 q 522 65 431 65 q 681 97 612 65 q 796 184 750 128 q 866 317 842 240 q 889 486 889 395 q 868 648 889 572 q 804 782 848 725 q 692 873 760 840 q 530 907 625 907 m 744 1213 q 735 1149 744 1178 q 711 1100 727 1121 q 673 1068 696 1080 q 623 1057 651 1057 q 517 1100 576 1057 q 436 1133 469 1133 q 372 1046 372 1133 l 315 1046 q 324 1109 315 1081 q 348 1158 332 1138 q 386 1190 363 1179 q 437 1201 408 1201 q 541 1159 483 1201 q 625 1124 589 1124 q 669 1146 652 1124 q 686 1213 686 1168 l 744 1213 z "},"Ö":{"ha":1052,"x_min":68,"x_max":983,"o":"m 522 -17 q 333 21 417 -17 q 190 126 249 60 q 100 282 132 193 q 68 475 68 372 q 100 684 68 589 q 192 846 132 779 q 340 951 252 913 q 539 989 427 989 q 724 952 642 989 q 864 849 806 915 q 952 694 922 784 q 983 500 983 605 q 953 295 983 389 q 864 131 923 200 q 720 22 806 62 q 522 -17 634 -17 m 530 907 q 373 873 441 907 q 258 782 305 840 q 188 648 212 725 q 163 484 163 571 q 184 326 162 401 q 251 192 206 250 q 363 100 295 134 q 522 65 431 65 q 681 97 612 65 q 796 184 750 128 q 866 317 842 240 q 889 486 889 395 q 868 648 889 572 q 804 782 848 725 q 692 873 760 840 q 530 907 625 907 m 650 1052 q 610 1068 627 1052 q 593 1109 593 1084 q 609 1151 593 1135 q 648 1166 626 1166 q 690 1150 673 1166 q 708 1109 708 1134 q 691 1068 708 1085 q 650 1052 675 1052 m 407 1052 q 384 1056 395 1052 q 366 1068 374 1061 q 353 1087 357 1076 q 348 1109 348 1097 q 365 1151 348 1135 q 405 1166 382 1166 q 428 1162 417 1166 q 447 1150 439 1158 q 460 1132 455 1143 q 465 1109 465 1122 q 448 1068 465 1085 q 407 1052 431 1052 z "},"Ø":{"ha":1052,"x_min":60,"x_max":983,"o":"m 522 -17 q 353 13 429 -17 q 219 96 277 43 l 108 -36 l 60 3 l 176 142 q 96 293 123 208 q 68 475 68 378 q 100 684 68 589 q 192 846 132 779 q 340 951 252 913 q 539 989 427 989 q 688 966 621 989 q 810 900 756 943 l 904 1012 l 952 972 l 856 858 q 950 701 918 792 q 983 500 983 609 q 953 295 983 389 q 864 131 923 200 q 720 22 806 62 q 522 -17 634 -17 m 889 486 q 867 653 889 575 q 798 789 845 731 l 275 163 q 380 91 319 117 q 522 65 441 65 q 681 97 612 65 q 796 184 750 128 q 866 317 842 240 q 889 486 889 395 m 530 907 q 373 873 441 907 q 258 782 305 840 q 188 648 212 725 q 163 484 163 571 q 180 338 162 408 q 235 212 198 269 l 755 833 q 657 887 712 868 q 530 907 602 907 z "},"Œ":{"ha":1302,"x_min":68,"x_max":1217,"o":"m 734 0 q 651 -10 702 -3 q 530 -16 601 -16 q 336 20 422 -16 q 191 121 251 56 q 100 277 132 186 q 68 475 68 367 q 101 687 68 592 q 196 848 134 781 q 346 952 258 916 q 545 989 435 989 q 603 987 573 989 q 659 982 633 985 q 706 977 686 979 q 734 972 726 974 l 1195 972 l 1195 890 l 812 890 l 812 533 l 1167 533 l 1167 452 l 812 452 l 812 82 l 1217 82 l 1217 0 l 734 0 m 721 888 q 538 907 624 907 q 384 875 453 907 q 266 788 315 844 q 190 654 216 732 q 163 484 163 576 q 188 315 163 392 q 261 182 214 238 q 377 96 309 127 q 532 65 446 65 q 721 87 616 65 l 721 888 z "},"Š":{"ha":714,"x_min":88,"x_max":639,"o":"m 88 142 q 142 110 113 124 q 202 85 172 95 q 264 70 233 75 q 324 65 296 65 q 490 108 435 65 q 545 231 545 151 q 532 298 545 269 q 492 352 519 327 q 423 402 465 377 q 326 458 382 427 q 219 522 263 492 q 146 584 174 552 q 105 652 118 615 q 92 735 92 688 q 117 841 92 794 q 184 921 142 888 q 284 971 227 954 q 407 989 342 989 q 599 957 522 989 l 599 857 q 397 907 513 907 q 315 896 353 907 q 248 865 277 886 q 202 815 219 845 q 186 745 186 785 q 197 679 186 707 q 233 627 208 652 q 298 579 258 603 q 397 524 338 555 q 503 460 458 491 q 579 396 549 429 q 624 325 609 362 q 639 241 639 287 q 615 129 639 177 q 549 48 591 80 q 447 0 506 16 q 317 -16 388 -16 q 262 -13 294 -16 q 198 -2 231 -9 q 136 15 165 5 q 88 37 106 25 l 88 142 m 399 1052 l 339 1052 l 191 1278 l 260 1278 l 369 1118 l 479 1278 l 547 1278 l 399 1052 z "},"Ù":{"ha":927,"x_min":114,"x_max":813,"o":"m 813 391 q 455 -17 813 -17 q 114 376 114 -17 l 114 972 l 204 972 l 204 384 q 269 144 204 224 q 468 65 333 65 q 723 374 723 65 l 723 972 l 813 972 l 813 391 m 470 1052 l 297 1274 l 389 1274 l 543 1052 l 470 1052 z "},"Ú":{"ha":927,"x_min":114,"x_max":813,"o":"m 813 391 q 455 -17 813 -17 q 114 376 114 -17 l 114 972 l 204 972 l 204 384 q 269 144 204 224 q 468 65 333 65 q 723 374 723 65 l 723 972 l 813 972 l 813 391 m 461 1052 l 388 1052 l 543 1274 l 634 1274 l 461 1052 z "},"Û":{"ha":927,"x_min":114,"x_max":813,"o":"m 813 391 q 455 -17 813 -17 q 114 376 114 -17 l 114 972 l 204 972 l 204 384 q 269 144 204 224 q 468 65 333 65 q 723 374 723 65 l 723 972 l 813 972 l 813 391 m 585 1052 l 475 1211 l 366 1052 l 299 1052 l 447 1278 l 507 1278 l 655 1052 l 585 1052 z "},"Ü":{"ha":927,"x_min":114,"x_max":813,"o":"m 813 391 q 455 -17 813 -17 q 114 376 114 -17 l 114 972 l 204 972 l 204 384 q 269 144 204 224 q 468 65 333 65 q 723 374 723 65 l 723 972 l 813 972 l 813 391 m 595 1052 q 555 1068 572 1052 q 538 1109 538 1084 q 554 1151 538 1135 q 593 1166 571 1166 q 635 1150 618 1166 q 653 1109 653 1134 q 636 1068 653 1085 q 595 1052 620 1052 m 352 1052 q 329 1056 340 1052 q 311 1068 319 1061 q 298 1087 302 1076 q 293 1109 293 1097 q 310 1151 293 1135 q 350 1166 327 1166 q 373 1162 362 1166 q 392 1150 384 1158 q 405 1132 400 1143 q 410 1109 410 1122 q 393 1068 410 1085 q 352 1052 376 1052 z "},"Ý":{"ha":759,"x_min":23,"x_max":736,"o":"m 418 364 l 418 0 l 328 0 l 328 362 l 23 972 l 125 972 l 348 518 q 359 494 352 510 q 375 452 366 477 l 377 452 q 389 481 381 465 q 407 517 396 497 l 640 972 l 736 972 l 418 364 m 370 1052 l 296 1052 l 451 1274 l 543 1274 l 370 1052 z "},"Ÿ":{"ha":759,"x_min":23,"x_max":736,"o":"m 418 364 l 418 0 l 328 0 l 328 362 l 23 972 l 125 972 l 348 518 q 359 494 352 510 q 375 452 366 477 l 377 452 q 389 481 381 465 q 407 517 396 497 l 640 972 l 736 972 l 418 364 m 496 1052 q 457 1068 474 1052 q 439 1109 439 1084 q 456 1151 439 1135 q 495 1166 473 1166 q 537 1150 519 1166 q 555 1109 555 1134 q 538 1068 555 1085 q 496 1052 522 1052 m 254 1052 q 231 1056 241 1052 q 212 1068 220 1061 q 199 1087 204 1076 q 195 1109 195 1097 q 212 1151 195 1135 q 252 1166 229 1166 q 275 1162 264 1166 q 294 1150 286 1158 q 307 1132 302 1143 q 311 1109 311 1122 q 294 1068 311 1085 q 254 1052 277 1052 z "},"Ž":{"ha":791,"x_min":33,"x_max":749,"o":"m 169 82 l 738 82 l 738 0 l 33 0 l 33 26 l 610 890 l 79 890 l 79 972 l 749 972 l 749 949 l 169 82 m 452 1052 l 392 1052 l 244 1278 l 313 1278 l 422 1118 l 532 1278 l 600 1278 l 452 1052 z "},"Ð":{"ha":955,"x_min":21,"x_max":886,"o":"m 21 526 l 126 526 l 126 972 l 382 972 q 759 853 631 972 q 886 499 886 733 q 851 294 886 387 q 748 137 815 202 q 585 36 681 71 q 370 0 490 0 l 126 0 l 126 444 l 21 444 l 21 526 m 216 890 l 216 526 l 467 526 l 467 444 l 216 444 l 216 82 l 366 82 q 545 109 466 82 q 679 189 624 136 q 763 319 734 241 q 791 496 791 396 q 376 890 791 890 l 216 890 z "},"Þ":{"ha":766,"x_min":126,"x_max":695,"o":"m 216 221 l 216 0 l 126 0 l 126 972 l 216 972 l 216 815 l 377 815 q 614 743 534 815 q 695 533 695 671 q 668 400 695 458 q 595 302 642 342 q 485 242 548 262 q 348 221 421 221 l 216 221 m 216 732 l 216 304 l 345 304 q 535 361 469 304 q 601 526 601 418 q 361 732 601 732 l 216 732 z "},"a":{"ha":696,"x_min":66,"x_max":599,"o":"m 512 0 l 512 123 l 509 123 q 417 20 475 57 q 284 -16 358 -16 q 194 -2 234 -16 q 125 38 153 12 q 82 101 97 64 q 66 182 66 138 q 125 332 66 276 q 301 405 183 388 l 512 435 q 357 635 512 635 q 132 547 235 635 l 132 642 q 181 670 153 657 q 239 691 208 682 q 301 706 269 701 q 364 711 334 711 q 539 646 480 711 q 599 452 599 581 l 599 0 l 512 0 m 333 337 q 253 320 286 330 q 198 293 220 310 q 166 250 176 275 q 156 187 156 224 q 166 136 156 159 q 194 95 176 112 q 240 68 213 77 q 300 58 267 58 q 385 76 347 58 q 452 125 424 94 q 496 199 480 156 q 512 294 512 243 l 512 362 l 333 337 z "},"b":{"ha":797,"x_min":112,"x_max":734,"o":"m 199 112 l 199 0 l 112 0 l 112 1028 l 199 1028 l 199 562 l 201 562 q 305 672 240 634 q 451 711 370 711 q 570 687 517 711 q 659 618 623 663 q 714 510 695 573 q 734 370 734 447 q 712 213 734 283 q 649 91 690 142 q 550 12 608 40 q 420 -16 492 -16 q 201 112 273 -16 l 199 112 m 199 289 q 215 200 199 241 q 259 126 231 158 q 328 77 288 95 q 417 58 368 58 q 511 80 469 58 q 583 143 553 102 q 628 241 612 184 q 644 370 644 299 q 629 480 644 431 q 587 564 614 530 q 520 617 559 599 q 433 635 481 635 q 336 615 379 635 q 262 561 292 595 q 215 480 231 526 q 199 381 199 433 l 199 289 z "},"c":{"ha":629,"x_min":64,"x_max":576,"o":"m 574 31 q 387 -17 496 -16 q 252 9 312 -18 q 151 82 193 35 q 86 194 109 130 q 64 333 64 258 q 87 480 64 411 q 157 600 111 549 q 268 681 202 651 q 418 711 334 711 q 576 677 505 711 l 576 585 q 412 635 500 635 q 302 612 350 635 q 221 548 254 589 q 171 454 188 508 q 153 340 153 400 q 168 233 153 284 q 213 143 182 182 q 289 81 243 104 q 397 58 335 58 q 574 117 495 58 l 574 31 z "},"d":{"ha":798,"x_min":63,"x_max":686,"o":"m 599 0 l 599 122 l 596 122 q 497 20 562 56 q 352 -16 433 -16 q 234 8 287 -16 q 142 77 180 32 q 84 187 104 123 q 63 333 63 252 q 86 487 63 417 q 150 606 109 556 q 251 683 192 656 q 381 711 309 711 q 596 591 531 711 l 599 591 l 599 1028 l 686 1028 l 686 0 l 599 0 m 599 419 q 583 504 599 465 q 540 572 568 543 q 473 618 512 602 q 387 635 434 635 q 292 615 336 635 q 218 556 249 595 q 170 463 187 518 q 153 338 153 408 q 168 220 153 273 q 213 132 184 168 q 281 77 241 96 q 370 58 321 58 q 466 77 423 58 q 537 130 508 96 q 583 208 567 163 q 599 303 599 252 l 599 419 z "},"e":{"ha":713,"x_min":63,"x_max":655,"o":"m 153 332 q 170 217 154 268 q 217 131 186 166 q 291 77 248 96 q 390 58 335 58 q 612 140 507 58 l 612 55 q 370 -16 512 -16 q 243 8 300 -16 q 146 79 186 33 q 85 193 106 125 q 63 348 63 261 q 87 492 63 426 q 153 607 111 559 q 252 683 195 656 q 378 711 310 711 q 497 687 446 711 q 584 621 549 664 q 637 515 618 577 q 655 375 655 452 l 655 332 l 153 332 m 566 408 q 514 576 564 516 q 376 635 465 635 q 295 620 332 635 q 229 575 257 604 q 181 503 200 545 q 155 408 163 460 l 566 408 z "},"f":{"ha":409,"x_min":30,"x_max":435,"o":"m 435 946 q 360 965 406 965 q 238 806 238 965 l 238 694 l 411 694 l 411 618 l 238 618 l 238 0 l 151 0 l 151 618 l 30 618 l 30 694 l 151 694 l 151 811 q 164 906 151 863 q 203 978 178 948 q 268 1025 229 1008 q 358 1041 307 1041 q 435 1028 407 1041 l 435 946 z "},"g":{"ha":798,"x_min":63,"x_max":686,"o":"m 686 54 q 598 -233 686 -140 q 327 -326 510 -326 q 111 -275 213 -326 l 111 -187 q 327 -250 224 -250 q 599 37 599 -250 l 599 121 l 596 121 q 352 -16 516 -16 q 234 7 288 -16 q 143 76 181 31 q 84 185 105 121 q 63 330 63 249 q 85 485 63 415 q 149 606 108 555 q 249 683 191 656 q 381 711 308 711 q 596 591 528 711 l 599 591 l 599 694 l 686 694 l 686 54 m 599 422 q 583 504 599 465 q 540 572 568 543 q 474 618 512 601 q 389 635 435 635 q 291 614 335 635 q 217 555 248 593 q 169 461 186 516 q 153 336 153 406 q 168 221 153 273 q 212 134 184 170 q 281 78 241 98 q 371 58 321 58 q 465 77 422 58 q 536 129 507 96 q 583 206 566 161 q 599 302 599 250 l 599 422 z "},"h":{"ha":764,"x_min":112,"x_max":667,"o":"m 581 0 l 581 408 q 538 580 581 525 q 408 635 496 635 q 328 618 366 635 q 261 570 290 602 q 216 492 233 538 q 199 389 199 446 l 199 0 l 112 0 l 112 1028 l 199 1028 l 199 574 l 201 574 q 435 711 283 711 q 609 640 551 711 q 667 429 667 568 l 667 0 l 581 0 z "},"i":{"ha":311,"x_min":93,"x_max":218,"o":"m 155 870 q 111 888 130 870 q 93 932 93 905 q 111 976 93 959 q 155 994 130 994 q 179 989 168 994 q 199 977 191 985 q 213 957 208 968 q 218 932 218 946 q 213 908 218 920 q 199 888 208 897 q 179 875 191 880 q 155 870 168 870 m 112 0 l 112 694 l 199 694 l 199 0 l 112 0 z "},"j":{"ha":311,"x_min":-153,"x_max":218,"o":"m 199 24 q 138 -237 199 -148 q -57 -327 77 -327 q -153 -304 -104 -327 l -153 -220 q -52 -251 -100 -251 q 112 9 112 -251 l 112 694 l 199 694 l 199 24 m 155 870 q 111 888 130 870 q 93 932 93 905 q 111 976 93 959 q 155 994 130 994 q 179 989 168 994 q 199 977 191 985 q 213 957 208 968 q 218 932 218 946 q 213 908 218 920 q 199 888 208 897 q 179 875 191 880 q 155 870 168 870 z "},"k":{"ha":653,"x_min":112,"x_max":644,"o":"m 521 0 l 201 338 l 199 338 l 199 0 l 112 0 l 112 1028 l 199 1028 l 199 371 l 201 371 l 505 694 l 618 694 l 292 359 l 644 0 l 521 0 z "},"l":{"ha":311,"x_min":112,"x_max":199,"o":"m 112 0 l 112 1028 l 199 1028 l 199 0 l 112 0 z "},"m":{"ha":1168,"x_min":112,"x_max":1072,"o":"m 985 0 l 985 408 q 975 514 985 471 q 946 584 966 557 q 895 623 926 611 q 821 635 864 635 q 749 617 783 635 q 690 568 715 600 q 650 494 665 536 q 635 401 635 451 l 635 0 l 549 0 l 549 417 q 381 635 549 635 q 309 618 342 635 q 251 570 276 601 q 213 495 227 538 q 199 398 199 451 l 199 0 l 112 0 l 112 694 l 199 694 l 199 582 l 201 582 q 415 711 275 711 q 484 700 452 711 q 543 668 517 688 q 587 621 568 648 q 615 559 606 593 q 710 672 652 633 q 843 711 769 711 q 1072 429 1072 711 l 1072 0 l 985 0 z "},"n":{"ha":764,"x_min":112,"x_max":667,"o":"m 581 0 l 581 400 q 410 635 581 635 q 326 617 364 635 q 259 568 287 600 q 215 492 231 536 q 199 397 199 448 l 199 0 l 112 0 l 112 694 l 199 694 l 199 574 l 201 574 q 434 711 279 711 q 608 637 548 711 q 667 423 667 563 l 667 0 l 581 0 z "},"o":{"ha":796,"x_min":63,"x_max":733,"o":"m 396 -16 q 257 9 319 -16 q 153 82 196 35 q 86 195 109 130 q 63 341 63 261 q 87 496 63 428 q 157 613 112 565 q 266 686 202 661 q 408 711 330 711 q 544 686 484 711 q 646 614 604 661 q 711 500 688 568 q 733 348 733 433 q 710 200 733 267 q 643 85 686 133 q 537 10 600 37 q 396 -16 475 -16 m 403 635 q 300 616 346 635 q 221 558 254 596 q 170 466 188 521 q 153 342 153 412 q 170 225 153 277 q 220 136 188 173 q 298 78 252 98 q 401 58 345 58 q 505 78 460 58 q 581 134 549 97 q 628 224 612 171 q 644 347 644 278 q 581 561 644 487 q 403 635 519 635 z "},"p":{"ha":797,"x_min":112,"x_max":734,"o":"m 199 112 l 199 -319 l 112 -319 l 112 694 l 199 694 l 199 562 l 201 562 q 305 672 240 634 q 451 711 370 711 q 570 687 517 711 q 659 618 623 663 q 714 511 695 574 q 734 370 734 448 q 712 213 734 283 q 650 91 690 142 q 551 12 609 40 q 420 -16 493 -16 q 201 112 274 -16 l 199 112 m 199 289 q 215 200 199 241 q 259 126 231 158 q 328 77 288 95 q 417 58 368 58 q 511 80 469 58 q 583 143 553 102 q 628 241 612 184 q 644 370 644 299 q 629 480 644 431 q 587 564 614 530 q 520 617 559 599 q 433 635 481 635 q 336 615 379 635 q 262 561 292 595 q 215 480 231 526 q 199 381 199 433 l 199 289 z "},"q":{"ha":798,"x_min":63,"x_max":686,"o":"m 599 -319 l 599 123 l 596 123 q 352 -16 522 -16 q 233 8 286 -16 q 141 78 179 33 q 83 188 104 123 q 63 334 63 253 q 86 490 63 420 q 152 609 110 559 q 253 684 194 658 q 382 711 311 711 q 596 590 531 711 l 599 590 l 599 694 l 686 694 l 686 -319 l 599 -319 m 599 415 q 584 502 599 462 q 541 572 568 543 q 473 618 513 602 q 386 635 434 635 q 292 615 334 635 q 218 557 249 595 q 170 464 187 519 q 153 336 153 408 q 168 220 153 271 q 212 132 184 168 q 280 77 241 96 q 367 58 319 58 q 466 78 422 58 q 538 130 509 97 q 583 208 568 163 q 599 304 599 253 l 599 415 z "},"r":{"ha":471,"x_min":112,"x_max":456,"o":"m 456 606 q 378 628 426 628 q 317 615 343 628 q 270 579 290 602 q 236 527 250 557 q 214 466 222 498 q 202 401 205 434 q 198 340 198 369 l 198 0 l 112 0 l 112 694 l 198 694 l 198 546 l 201 546 q 232 614 213 584 q 275 665 250 644 q 328 696 299 686 q 389 707 357 707 q 426 705 410 707 q 456 696 443 702 l 456 606 z "},"s":{"ha":564,"x_min":73,"x_max":503,"o":"m 73 125 q 115 97 92 109 q 163 76 138 85 q 212 63 187 67 q 259 58 237 58 q 414 174 414 58 q 403 220 414 201 q 372 255 392 239 q 323 285 351 271 q 258 313 294 298 q 176 353 210 333 q 119 398 141 374 q 85 451 96 422 q 75 516 75 479 q 95 598 75 562 q 149 659 115 634 q 227 697 182 684 q 320 711 271 711 q 477 677 410 711 l 477 585 q 309 635 399 635 q 250 627 277 635 q 204 604 223 619 q 175 569 185 589 q 164 523 164 548 q 172 478 164 497 q 198 443 180 458 q 242 413 215 427 q 309 382 270 399 q 396 342 359 362 q 456 299 433 322 q 492 247 480 275 q 503 180 503 218 q 484 96 503 133 q 430 35 465 60 q 350 -3 396 9 q 250 -16 304 -16 q 73 28 144 -16 l 73 125 z "},"t":{"ha":441,"x_min":22,"x_max":410,"o":"m 410 8 q 313 -14 366 -14 q 144 180 144 -14 l 144 618 l 22 618 l 22 694 l 144 694 l 144 869 l 231 898 l 231 694 l 410 694 l 410 618 l 231 618 l 231 193 q 254 92 231 123 q 332 60 277 60 q 410 85 373 60 l 410 8 z "},"u":{"ha":765,"x_min":97,"x_max":653,"o":"m 566 0 l 566 118 l 564 118 q 345 -16 493 -16 q 97 286 97 -16 l 97 694 l 184 694 l 184 302 q 228 118 184 178 q 364 58 273 58 q 446 76 409 58 q 510 124 483 93 q 551 200 536 156 q 566 298 566 244 l 566 694 l 653 694 l 653 0 l 566 0 z "},"v":{"ha":647,"x_min":11,"x_max":636,"o":"m 359 0 l 277 0 l 11 694 l 106 694 l 298 165 q 321 81 316 117 l 323 81 q 345 163 332 130 l 543 694 l 636 694 l 359 0 z "},"w":{"ha":972,"x_min":20,"x_max":951,"o":"m 739 0 l 652 0 l 505 510 q 494 572 498 534 l 492 572 q 487 547 490 562 q 477 511 484 532 l 315 0 l 231 0 l 20 694 l 113 694 l 266 156 q 275 96 273 132 l 281 96 q 285 123 282 108 q 294 157 288 139 l 462 694 l 534 694 l 684 155 q 694 95 690 132 l 700 95 q 703 122 699 106 q 711 155 706 137 l 864 694 l 951 694 l 739 0 z "},"x":{"ha":612,"x_min":20,"x_max":591,"o":"m 357 342 l 585 0 l 480 0 l 339 230 q 322 256 331 243 q 305 286 314 270 l 302 286 q 292 268 299 279 q 275 239 285 256 l 123 0 l 20 0 l 255 340 l 28 694 l 129 694 l 273 451 q 292 418 284 433 q 306 394 300 404 l 309 394 q 325 420 317 407 q 340 447 332 433 l 494 694 l 591 694 l 357 342 z "},"y":{"ha":650,"x_min":12,"x_max":642,"o":"m 313 -126 q 220 -277 273 -228 q 92 -326 167 -326 q 28 -317 54 -326 l 28 -236 q 59 -244 43 -241 q 90 -247 74 -247 q 164 -220 132 -247 q 218 -139 195 -193 l 279 3 l 12 694 l 108 694 l 307 144 q 314 120 311 134 q 321 92 318 106 l 325 92 q 331 116 328 104 q 340 142 334 127 l 551 694 l 642 694 l 313 -126 z "},"z":{"ha":636,"x_min":31,"x_max":601,"o":"m 163 76 l 591 76 l 591 0 l 31 0 l 31 29 l 467 618 l 66 618 l 66 694 l 601 694 l 601 670 l 163 76 z "},"ß":{"ha":737,"x_min":112,"x_max":684,"o":"m 302 85 q 408 58 353 58 q 485 73 450 58 q 544 114 519 87 q 582 177 568 140 q 595 260 595 214 q 577 354 595 311 q 524 429 559 396 q 440 483 490 461 q 326 513 390 505 l 326 585 q 407 612 371 593 q 469 659 444 631 q 508 722 494 687 q 522 799 522 758 q 481 921 522 877 q 368 965 440 965 q 242 908 286 965 q 199 743 199 852 l 199 1 l 112 1 l 112 756 q 131 874 112 822 q 183 964 149 927 q 267 1021 218 1001 q 375 1041 315 1041 q 471 1024 428 1041 q 546 978 515 1008 q 594 905 576 947 q 611 810 611 863 q 599 728 611 767 q 564 657 587 689 q 507 600 541 625 q 433 558 474 574 l 433 555 q 620 452 555 527 q 684 264 684 377 q 665 153 684 205 q 609 64 645 102 q 523 5 574 26 q 412 -16 473 -16 q 302 -1 353 -16 l 302 85 z "},"à":{"ha":696,"x_min":66,"x_max":599,"o":"m 512 0 l 512 123 l 509 123 q 417 20 475 57 q 284 -16 358 -16 q 194 -2 234 -16 q 125 38 153 12 q 82 101 97 64 q 66 182 66 138 q 125 332 66 276 q 301 405 183 388 l 512 435 q 357 635 512 635 q 132 547 235 635 l 132 642 q 181 670 153 657 q 239 691 208 682 q 301 706 269 701 q 364 711 334 711 q 539 646 480 711 q 599 452 599 581 l 599 0 l 512 0 m 333 337 q 253 320 286 330 q 198 293 220 310 q 166 250 176 275 q 156 187 156 224 q 166 136 156 159 q 194 95 176 112 q 240 68 213 77 q 300 58 267 58 q 385 76 347 58 q 452 125 424 94 q 496 199 480 156 q 512 294 512 243 l 512 362 l 333 337 m 361 816 l 189 1038 l 281 1038 l 435 816 l 361 816 z "},"á":{"ha":696,"x_min":66,"x_max":599,"o":"m 512 0 l 512 123 l 509 123 q 417 20 475 57 q 284 -16 358 -16 q 194 -2 234 -16 q 125 38 153 12 q 82 101 97 64 q 66 182 66 138 q 125 332 66 276 q 301 405 183 388 l 512 435 q 357 635 512 635 q 132 547 235 635 l 132 642 q 181 670 153 657 q 239 691 208 682 q 301 706 269 701 q 364 711 334 711 q 539 646 480 711 q 599 452 599 581 l 599 0 l 512 0 m 333 337 q 253 320 286 330 q 198 293 220 310 q 166 250 176 275 q 156 187 156 224 q 166 136 156 159 q 194 95 176 112 q 240 68 213 77 q 300 58 267 58 q 385 76 347 58 q 452 125 424 94 q 496 199 480 156 q 512 294 512 243 l 512 362 l 333 337 m 321 816 l 248 816 l 402 1038 l 494 1038 l 321 816 z "},"â":{"ha":696,"x_min":66,"x_max":599,"o":"m 512 0 l 512 123 l 509 123 q 417 20 475 57 q 284 -16 358 -16 q 194 -2 234 -16 q 125 38 153 12 q 82 101 97 64 q 66 182 66 138 q 125 332 66 276 q 301 405 183 388 l 512 435 q 357 635 512 635 q 132 547 235 635 l 132 642 q 181 670 153 657 q 239 691 208 682 q 301 706 269 701 q 364 711 334 711 q 539 646 480 711 q 599 452 599 581 l 599 0 l 512 0 m 333 337 q 253 320 286 330 q 198 293 220 310 q 166 250 176 275 q 156 187 156 224 q 166 136 156 159 q 194 95 176 112 q 240 68 213 77 q 300 58 267 58 q 385 76 347 58 q 452 125 424 94 q 496 199 480 156 q 512 294 512 243 l 512 362 l 333 337 m 459 816 l 350 975 l 240 816 l 174 816 l 321 1042 l 382 1042 l 530 816 l 459 816 z "},"ã":{"ha":696,"x_min":66,"x_max":599,"o":"m 512 0 l 512 123 l 509 123 q 417 20 475 57 q 284 -16 358 -16 q 194 -2 234 -16 q 125 38 153 12 q 82 101 97 64 q 66 182 66 138 q 125 332 66 276 q 301 405 183 388 l 512 435 q 357 635 512 635 q 132 547 235 635 l 132 642 q 181 670 153 657 q 239 691 208 682 q 301 706 269 701 q 364 711 334 711 q 539 646 480 711 q 599 452 599 581 l 599 0 l 512 0 m 333 337 q 253 320 286 330 q 198 293 220 310 q 166 250 176 275 q 156 187 156 224 q 166 136 156 159 q 194 95 176 112 q 240 68 213 77 q 300 58 267 58 q 385 76 347 58 q 452 125 424 94 q 496 199 480 156 q 512 294 512 243 l 512 362 l 333 337 m 566 977 q 557 913 566 942 q 533 864 549 885 q 495 832 517 844 q 444 821 473 821 q 338 864 398 821 q 258 897 291 897 q 193 810 193 897 l 137 810 q 145 873 137 845 q 170 922 154 902 q 208 954 185 943 q 258 965 230 965 q 363 923 304 965 q 446 888 411 888 q 491 910 474 888 q 507 977 507 932 l 566 977 z "},"ä":{"ha":696,"x_min":66,"x_max":599,"o":"m 512 0 l 512 123 l 509 123 q 417 20 475 57 q 284 -16 358 -16 q 194 -2 234 -16 q 125 38 153 12 q 82 101 97 64 q 66 182 66 138 q 125 332 66 276 q 301 405 183 388 l 512 435 q 357 635 512 635 q 132 547 235 635 l 132 642 q 181 670 153 657 q 239 691 208 682 q 301 706 269 701 q 364 711 334 711 q 539 646 480 711 q 599 452 599 581 l 599 0 l 512 0 m 333 337 q 253 320 286 330 q 198 293 220 310 q 166 250 176 275 q 156 187 156 224 q 166 136 156 159 q 194 95 176 112 q 240 68 213 77 q 300 58 267 58 q 385 76 347 58 q 452 125 424 94 q 496 199 480 156 q 512 294 512 243 l 512 362 l 333 337 m 465 816 q 426 832 443 816 q 408 873 408 848 q 425 915 408 899 q 464 930 441 930 q 506 914 488 930 q 524 873 524 898 q 507 832 524 849 q 465 816 490 816 m 222 816 q 200 820 210 816 q 181 832 189 825 q 168 851 173 840 q 163 873 163 861 q 180 915 163 899 q 220 930 197 930 q 243 926 233 930 q 262 914 254 922 q 275 896 271 907 q 280 873 280 886 q 263 832 280 849 q 222 816 246 816 z "},"å":{"ha":696,"x_min":66,"x_max":599,"o":"m 512 0 l 512 123 l 509 123 q 417 20 475 57 q 284 -16 358 -16 q 194 -2 234 -16 q 125 38 153 12 q 82 101 97 64 q 66 182 66 138 q 125 332 66 276 q 301 405 183 388 l 512 435 q 357 635 512 635 q 132 547 235 635 l 132 642 q 181 670 153 657 q 239 691 208 682 q 301 706 269 701 q 364 711 334 711 q 539 646 480 711 q 599 452 599 581 l 599 0 l 512 0 m 333 337 q 253 320 286 330 q 198 293 220 310 q 166 250 176 275 q 156 187 156 224 q 166 136 156 159 q 194 95 176 112 q 240 68 213 77 q 300 58 267 58 q 385 76 347 58 q 452 125 424 94 q 496 199 480 156 q 512 294 512 243 l 512 362 l 333 337 m 351 802 q 300 810 324 802 q 256 836 275 819 q 226 876 237 852 q 215 928 215 899 q 226 981 215 957 q 256 1022 237 1004 q 300 1048 275 1039 q 354 1058 325 1058 q 405 1049 380 1058 q 449 1024 430 1040 q 479 983 468 1007 q 491 930 491 960 q 480 879 491 903 q 449 839 469 856 q 405 811 430 821 q 351 802 380 802 m 351 1008 q 293 986 315 1008 q 271 930 271 964 q 292 872 271 892 q 351 852 314 852 q 385 858 370 852 q 411 874 400 863 q 429 899 422 884 q 435 930 435 913 q 411 987 435 966 q 351 1008 387 1008 z "},"æ":{"ha":1160,"x_min":66,"x_max":1101,"o":"m 598 332 q 615 216 599 267 q 662 131 631 165 q 736 77 692 96 q 835 58 780 58 q 1057 140 954 58 l 1057 55 q 816 -16 959 -16 q 656 28 724 -16 q 553 157 589 73 l 551 157 q 287 -16 456 -16 q 194 -2 235 -16 q 125 38 153 12 q 81 100 96 64 q 66 182 66 137 q 132 336 66 281 q 327 399 197 392 l 512 408 q 358 635 512 635 q 132 549 236 635 l 132 642 q 368 711 237 711 q 570 557 525 711 l 572 557 q 823 711 654 711 q 942 687 890 711 q 1029 620 994 664 q 1083 514 1065 576 q 1101 374 1101 452 l 1101 332 l 598 332 m 1012 408 q 960 576 1008 517 q 823 635 911 635 q 741 620 779 635 q 674 575 703 604 q 627 503 646 545 q 600 408 608 461 l 1012 408 m 512 332 l 389 327 q 288 317 332 324 q 214 295 243 311 q 170 253 185 280 q 155 184 155 227 q 165 132 155 155 q 195 92 176 109 q 241 67 214 76 q 302 58 269 58 q 383 76 345 58 q 450 124 421 94 q 495 196 479 155 q 512 283 512 237 l 512 332 z "},"ç":{"ha":629,"x_min":64,"x_max":576,"o":"m 574 31 q 387 -17 496 -16 q 252 9 312 -18 q 151 82 193 35 q 86 194 109 130 q 64 333 64 258 q 87 480 64 411 q 157 600 111 549 q 268 681 202 651 q 418 711 334 711 q 576 677 505 711 l 576 585 q 412 635 500 635 q 302 612 350 635 q 221 548 254 589 q 171 454 188 508 q 153 340 153 400 q 168 233 153 284 q 213 143 182 182 q 289 81 243 104 q 397 58 335 58 q 574 117 495 58 l 574 31 m 515 -176 q 335 -294 515 -294 q 286 -292 310 -294 l 286 -236 q 339 -240 318 -240 q 441 -178 441 -240 q 348 -123 441 -123 q 332 -123 340 -123 q 313 -125 323 -124 l 313 0 l 374 0 l 374 -75 q 478 -101 441 -75 q 515 -176 515 -127 z "},"è":{"ha":713,"x_min":63,"x_max":655,"o":"m 153 332 q 170 217 154 268 q 217 131 186 166 q 291 77 248 96 q 390 58 335 58 q 612 140 507 58 l 612 55 q 370 -16 512 -16 q 243 8 300 -16 q 146 79 186 33 q 85 193 106 125 q 63 348 63 261 q 87 492 63 426 q 153 607 111 559 q 252 683 195 656 q 378 711 310 711 q 497 687 446 711 q 584 621 549 664 q 637 515 618 577 q 655 375 655 452 l 655 332 l 153 332 m 566 408 q 514 576 564 516 q 376 635 465 635 q 295 620 332 635 q 229 575 257 604 q 181 503 200 545 q 155 408 163 460 l 566 408 m 395 816 l 222 1038 l 315 1038 l 469 816 l 395 816 z "},"é":{"ha":713,"x_min":63,"x_max":655,"o":"m 153 332 q 170 217 154 268 q 217 131 186 166 q 291 77 248 96 q 390 58 335 58 q 612 140 507 58 l 612 55 q 370 -16 512 -16 q 243 8 300 -16 q 146 79 186 33 q 85 193 106 125 q 63 348 63 261 q 87 492 63 426 q 153 607 111 559 q 252 683 195 656 q 378 711 310 711 q 497 687 446 711 q 584 621 549 664 q 637 515 618 577 q 655 375 655 452 l 655 332 l 153 332 m 566 408 q 514 576 564 516 q 376 635 465 635 q 295 620 332 635 q 229 575 257 604 q 181 503 200 545 q 155 408 163 460 l 566 408 m 346 816 l 273 816 l 427 1038 l 519 1038 l 346 816 z "},"ê":{"ha":713,"x_min":63,"x_max":655,"o":"m 153 332 q 170 217 154 268 q 217 131 186 166 q 291 77 248 96 q 390 58 335 58 q 612 140 507 58 l 612 55 q 370 -16 512 -16 q 243 8 300 -16 q 146 79 186 33 q 85 193 106 125 q 63 348 63 261 q 87 492 63 426 q 153 607 111 559 q 252 683 195 656 q 378 711 310 711 q 497 687 446 711 q 584 621 549 664 q 637 515 618 577 q 655 375 655 452 l 655 332 l 153 332 m 566 408 q 514 576 564 516 q 376 635 465 635 q 295 620 332 635 q 229 575 257 604 q 181 503 200 545 q 155 408 163 460 l 566 408 m 482 816 l 373 975 l 263 816 l 197 816 l 345 1042 l 405 1042 l 553 816 l 482 816 z "},"ë":{"ha":713,"x_min":63,"x_max":655,"o":"m 153 332 q 170 217 154 268 q 217 131 186 166 q 291 77 248 96 q 390 58 335 58 q 612 140 507 58 l 612 55 q 370 -16 512 -16 q 243 8 300 -16 q 146 79 186 33 q 85 193 106 125 q 63 348 63 261 q 87 492 63 426 q 153 607 111 559 q 252 683 195 656 q 378 711 310 711 q 497 687 446 711 q 584 621 549 664 q 637 515 618 577 q 655 375 655 452 l 655 332 l 153 332 m 566 408 q 514 576 564 516 q 376 635 465 635 q 295 620 332 635 q 229 575 257 604 q 181 503 200 545 q 155 408 163 460 l 566 408 m 490 816 q 451 832 468 816 q 433 873 433 848 q 450 915 433 899 q 489 930 467 930 q 531 914 513 930 q 549 873 549 898 q 532 832 549 849 q 490 816 515 816 m 248 816 q 225 820 235 816 q 206 832 214 825 q 193 851 198 840 q 189 873 189 861 q 205 915 189 899 q 245 930 222 930 q 269 926 258 930 q 288 914 279 922 q 300 896 296 907 q 305 873 305 886 q 288 832 305 849 q 248 816 271 816 z "},"ì":{"ha":311,"x_min":-33,"x_max":214,"o":"m 112 0 l 112 694 l 199 694 l 199 0 l 112 0 m 140 816 l -33 1038 l 60 1038 l 214 816 l 140 816 z "},"í":{"ha":311,"x_min":92,"x_max":338,"o":"m 112 0 l 112 694 l 199 694 l 199 0 l 112 0 m 165 816 l 92 816 l 247 1038 l 338 1038 l 165 816 z "},"î":{"ha":311,"x_min":-22,"x_max":334,"o":"m 112 0 l 112 694 l 199 694 l 199 0 l 112 0 m 264 816 l 155 975 l 45 816 l -22 816 l 126 1042 l 186 1042 l 334 816 l 264 816 z "},"ï":{"ha":311,"x_min":-24,"x_max":336,"o":"m 112 0 l 112 694 l 199 694 l 199 0 l 112 0 m 278 816 q 238 832 256 816 q 221 873 221 848 q 238 915 221 899 q 277 930 254 930 q 319 914 301 930 q 336 873 336 898 q 320 832 336 849 q 278 816 303 816 m 35 816 q 13 820 23 816 q -6 832 2 825 q -19 851 -14 840 q -24 873 -24 861 q -7 915 -24 899 q 33 930 10 930 q 56 926 45 930 q 75 914 67 922 q 88 896 83 907 q 93 873 93 886 q 76 832 93 849 q 35 816 59 816 z "},"ñ":{"ha":764,"x_min":112,"x_max":667,"o":"m 581 0 l 581 400 q 410 635 581 635 q 326 617 364 635 q 259 568 287 600 q 215 492 231 536 q 199 397 199 448 l 199 0 l 112 0 l 112 694 l 199 694 l 199 574 l 201 574 q 434 711 279 711 q 608 637 548 711 q 667 423 667 563 l 667 0 l 581 0 m 612 977 q 603 913 612 942 q 579 864 595 885 q 541 832 564 844 q 490 821 519 821 q 385 864 444 821 q 304 897 337 897 q 239 810 239 897 l 183 810 q 192 873 183 845 q 216 922 200 902 q 254 954 231 943 q 304 965 276 965 q 409 923 351 965 q 492 888 457 888 q 537 910 520 888 q 553 977 553 932 l 612 977 z "},"ò":{"ha":796,"x_min":63,"x_max":733,"o":"m 396 -16 q 257 9 319 -16 q 153 82 196 35 q 86 195 109 130 q 63 341 63 261 q 87 496 63 428 q 157 613 112 565 q 266 686 202 661 q 408 711 330 711 q 544 686 484 711 q 646 614 604 661 q 711 500 688 568 q 733 348 733 433 q 710 200 733 267 q 643 85 686 133 q 537 10 600 37 q 396 -16 475 -16 m 403 635 q 300 616 346 635 q 221 558 254 596 q 170 466 188 521 q 153 342 153 412 q 170 225 153 277 q 220 136 188 173 q 298 78 252 98 q 401 58 345 58 q 505 78 460 58 q 581 134 549 97 q 628 224 612 171 q 644 347 644 278 q 581 561 644 487 q 403 635 519 635 m 411 816 l 238 1038 l 330 1038 l 484 816 l 411 816 z "},"ó":{"ha":796,"x_min":63,"x_max":733,"o":"m 396 -16 q 257 9 319 -16 q 153 82 196 35 q 86 195 109 130 q 63 341 63 261 q 87 496 63 428 q 157 613 112 565 q 266 686 202 661 q 408 711 330 711 q 544 686 484 711 q 646 614 604 661 q 711 500 688 568 q 733 348 733 433 q 710 200 733 267 q 643 85 686 133 q 537 10 600 37 q 396 -16 475 -16 m 403 635 q 300 616 346 635 q 221 558 254 596 q 170 466 188 521 q 153 342 153 412 q 170 225 153 277 q 220 136 188 173 q 298 78 252 98 q 401 58 345 58 q 505 78 460 58 q 581 134 549 97 q 628 224 612 171 q 644 347 644 278 q 581 561 644 487 q 403 635 519 635 m 381 816 l 308 816 l 463 1038 l 554 1038 l 381 816 z "},"ô":{"ha":796,"x_min":63,"x_max":733,"o":"m 396 -16 q 257 9 319 -16 q 153 82 196 35 q 86 195 109 130 q 63 341 63 261 q 87 496 63 428 q 157 613 112 565 q 266 686 202 661 q 408 711 330 711 q 544 686 484 711 q 646 614 604 661 q 711 500 688 568 q 733 348 733 433 q 710 200 733 267 q 643 85 686 133 q 537 10 600 37 q 396 -16 475 -16 m 403 635 q 300 616 346 635 q 221 558 254 596 q 170 466 188 521 q 153 342 153 412 q 170 225 153 277 q 220 136 188 173 q 298 78 252 98 q 401 58 345 58 q 505 78 460 58 q 581 134 549 97 q 628 224 612 171 q 644 347 644 278 q 581 561 644 487 q 403 635 519 635 m 512 816 l 403 975 l 293 816 l 227 816 l 374 1042 l 435 1042 l 583 816 l 512 816 z "},"õ":{"ha":796,"x_min":63,"x_max":733,"o":"m 396 -16 q 257 9 319 -16 q 153 82 196 35 q 86 195 109 130 q 63 341 63 261 q 87 496 63 428 q 157 613 112 565 q 266 686 202 661 q 408 711 330 711 q 544 686 484 711 q 646 614 604 661 q 711 500 688 568 q 733 348 733 433 q 710 200 733 267 q 643 85 686 133 q 537 10 600 37 q 396 -16 475 -16 m 403 635 q 300 616 346 635 q 221 558 254 596 q 170 466 188 521 q 153 342 153 412 q 170 225 153 277 q 220 136 188 173 q 298 78 252 98 q 401 58 345 58 q 505 78 460 58 q 581 134 549 97 q 628 224 612 171 q 644 347 644 278 q 581 561 644 487 q 403 635 519 635 m 625 977 q 616 913 625 942 q 592 864 608 885 q 554 832 576 844 q 503 821 532 821 q 397 864 457 821 q 317 897 350 897 q 252 810 252 897 l 196 810 q 204 873 196 845 q 229 922 213 902 q 267 954 244 943 q 317 965 289 965 q 422 923 363 965 q 505 888 470 888 q 550 910 533 888 q 566 977 566 932 l 625 977 z "},"ö":{"ha":796,"x_min":63,"x_max":733,"o":"m 396 -16 q 257 9 319 -16 q 153 82 196 35 q 86 195 109 130 q 63 341 63 261 q 87 496 63 428 q 157 613 112 565 q 266 686 202 661 q 408 711 330 711 q 544 686 484 711 q 646 614 604 661 q 711 500 688 568 q 733 348 733 433 q 710 200 733 267 q 643 85 686 133 q 537 10 600 37 q 396 -16 475 -16 m 403 635 q 300 616 346 635 q 221 558 254 596 q 170 466 188 521 q 153 342 153 412 q 170 225 153 277 q 220 136 188 173 q 298 78 252 98 q 401 58 345 58 q 505 78 460 58 q 581 134 549 97 q 628 224 612 171 q 644 347 644 278 q 581 561 644 487 q 403 635 519 635 m 522 816 q 483 832 500 816 q 465 873 465 848 q 482 915 465 899 q 521 930 498 930 q 563 914 545 930 q 581 873 581 898 q 564 832 581 849 q 522 816 547 816 m 279 816 q 257 820 267 816 q 238 832 246 825 q 225 851 230 840 q 220 873 220 861 q 237 915 220 899 q 277 930 254 930 q 300 926 290 930 q 319 914 311 922 q 332 896 328 907 q 337 873 337 886 q 320 832 337 849 q 279 816 303 816 z "},"ø":{"ha":796,"x_min":26,"x_max":785,"o":"m 667 589 q 733 350 733 494 q 709 199 733 267 q 642 84 686 132 q 536 10 598 36 q 396 -16 473 -16 q 180 56 265 -16 l 75 -60 l 26 -14 l 134 105 q 63 341 63 201 q 87 496 63 428 q 157 612 112 565 q 267 685 203 660 q 409 711 330 711 q 622 639 539 711 l 735 763 l 785 718 l 667 589 m 565 577 q 403 635 505 635 q 299 615 345 635 q 220 558 252 595 q 170 466 187 520 q 153 342 153 411 q 195 170 153 241 l 565 577 m 237 117 q 401 58 301 58 q 505 78 459 58 q 581 135 550 98 q 628 225 612 172 q 644 347 644 279 q 606 522 644 450 l 237 117 z "},"œ":{"ha":1284,"x_min":63,"x_max":1234,"o":"m 731 332 q 748 216 732 267 q 795 131 765 165 q 869 77 826 96 q 968 58 913 58 q 1190 140 1087 58 l 1190 55 q 950 -16 1090 -16 q 687 164 759 -16 l 684 164 q 396 -16 601 -16 q 257 9 319 -16 q 152 82 195 35 q 86 195 109 130 q 63 340 63 261 q 88 497 63 428 q 158 613 113 566 q 267 686 203 661 q 409 711 331 711 q 584 664 512 711 q 689 530 656 618 l 692 530 q 960 711 771 711 q 1077 687 1026 711 q 1163 621 1128 664 q 1216 515 1198 577 q 1234 376 1234 453 l 1234 332 l 731 332 m 1144 408 q 1092 575 1141 515 q 956 635 1043 635 q 873 619 911 635 q 806 573 835 603 q 758 501 777 543 q 733 408 739 459 l 1144 408 m 403 635 q 299 615 345 635 q 220 557 253 595 q 170 465 188 519 q 153 341 153 410 q 170 224 153 277 q 219 135 187 172 q 297 78 252 98 q 401 58 343 58 q 504 78 459 58 q 581 134 549 97 q 628 224 612 171 q 644 346 644 278 q 628 470 644 416 q 581 561 612 524 q 505 616 550 597 q 403 635 460 635 z "},"š":{"ha":564,"x_min":73,"x_max":503,"o":"m 73 125 q 115 97 92 109 q 163 76 138 85 q 212 63 187 67 q 259 58 237 58 q 414 174 414 58 q 403 220 414 201 q 372 255 392 239 q 323 285 351 271 q 258 313 294 298 q 176 353 210 333 q 119 398 141 374 q 85 451 96 422 q 75 516 75 479 q 95 598 75 562 q 149 659 115 634 q 227 697 182 684 q 320 711 271 711 q 477 677 410 711 l 477 585 q 309 635 399 635 q 250 627 277 635 q 204 604 223 619 q 175 569 185 589 q 164 523 164 548 q 172 478 164 497 q 198 443 180 458 q 242 413 215 427 q 309 382 270 399 q 396 342 359 362 q 456 299 433 322 q 492 247 480 275 q 503 180 503 218 q 484 96 503 133 q 430 35 465 60 q 350 -3 396 9 q 250 -16 304 -16 q 73 28 144 -16 l 73 125 m 309 816 l 249 816 l 101 1042 l 170 1042 l 279 882 l 389 1042 l 456 1042 l 309 816 z "},"ù":{"ha":765,"x_min":97,"x_max":653,"o":"m 566 0 l 566 118 l 564 118 q 345 -16 493 -16 q 97 286 97 -16 l 97 694 l 184 694 l 184 302 q 228 118 184 178 q 364 58 273 58 q 446 76 409 58 q 510 124 483 93 q 551 200 536 156 q 566 298 566 244 l 566 694 l 653 694 l 653 0 l 566 0 m 385 816 l 212 1038 l 304 1038 l 458 816 l 385 816 z "},"ú":{"ha":765,"x_min":97,"x_max":653,"o":"m 566 0 l 566 118 l 564 118 q 345 -16 493 -16 q 97 286 97 -16 l 97 694 l 184 694 l 184 302 q 228 118 184 178 q 364 58 273 58 q 446 76 409 58 q 510 124 483 93 q 551 200 536 156 q 566 298 566 244 l 566 694 l 653 694 l 653 0 l 566 0 m 380 816 l 307 816 l 461 1038 l 553 1038 l 380 816 z "},"û":{"ha":765,"x_min":97,"x_max":653,"o":"m 566 0 l 566 118 l 564 118 q 345 -16 493 -16 q 97 286 97 -16 l 97 694 l 184 694 l 184 302 q 228 118 184 178 q 364 58 273 58 q 446 76 409 58 q 510 124 483 93 q 551 200 536 156 q 566 298 566 244 l 566 694 l 653 694 l 653 0 l 566 0 m 494 816 l 385 975 l 275 816 l 209 816 l 357 1042 l 417 1042 l 565 816 l 494 816 z "},"ü":{"ha":765,"x_min":97,"x_max":653,"o":"m 566 0 l 566 118 l 564 118 q 345 -16 493 -16 q 97 286 97 -16 l 97 694 l 184 694 l 184 302 q 228 118 184 178 q 364 58 273 58 q 446 76 409 58 q 510 124 483 93 q 551 200 536 156 q 566 298 566 244 l 566 694 l 653 694 l 653 0 l 566 0 m 510 816 q 470 832 488 816 q 453 873 453 848 q 470 915 453 899 q 509 930 486 930 q 551 914 533 930 q 568 873 568 898 q 552 832 568 849 q 510 816 535 816 m 267 816 q 244 820 255 816 q 226 832 234 825 q 213 851 218 840 q 208 873 208 861 q 225 915 208 899 q 265 930 242 930 q 288 926 277 930 q 307 914 299 922 q 320 896 315 907 q 325 873 325 886 q 308 832 325 849 q 267 816 291 816 z "},"ý":{"ha":650,"x_min":12,"x_max":642,"o":"m 313 -126 q 220 -277 273 -228 q 92 -326 167 -326 q 28 -317 54 -326 l 28 -236 q 59 -244 43 -241 q 90 -247 74 -247 q 164 -220 132 -247 q 218 -139 195 -193 l 279 3 l 12 694 l 108 694 l 307 144 q 314 120 311 134 q 321 92 318 106 l 325 92 q 331 116 328 104 q 340 142 334 127 l 551 694 l 642 694 l 313 -126 m 321 816 l 248 816 l 402 1038 l 494 1038 l 321 816 z "},"ÿ":{"ha":650,"x_min":12,"x_max":642,"o":"m 313 -126 q 220 -277 273 -228 q 92 -326 167 -326 q 28 -317 54 -326 l 28 -236 q 59 -244 43 -241 q 90 -247 74 -247 q 164 -220 132 -247 q 218 -139 195 -193 l 279 3 l 12 694 l 108 694 l 307 144 q 314 120 311 134 q 321 92 318 106 l 325 92 q 331 116 328 104 q 340 142 334 127 l 551 694 l 642 694 l 313 -126 m 449 816 q 409 832 427 816 q 392 873 392 848 q 409 915 392 899 q 448 930 425 930 q 490 914 472 930 q 507 873 507 898 q 491 832 507 849 q 449 816 474 816 m 206 816 q 183 820 194 816 q 165 832 173 825 q 152 851 157 840 q 147 873 147 861 q 164 915 147 899 q 204 930 181 930 q 227 926 216 930 q 246 914 238 922 q 259 896 254 907 q 264 873 264 886 q 247 832 264 849 q 206 816 230 816 z "},"ž":{"ha":636,"x_min":31,"x_max":601,"o":"m 163 76 l 591 76 l 591 0 l 31 0 l 31 29 l 467 618 l 66 618 l 66 694 l 601 694 l 601 670 l 163 76 m 372 816 l 312 816 l 164 1042 l 233 1042 l 342 882 l 452 1042 l 519 1042 l 372 816 z "},"ð":{"ha":758,"x_min":63,"x_max":694,"o":"m 541 655 q 399 846 475 772 l 197 744 l 168 801 l 353 890 q 178 1027 269 965 l 303 1027 q 360 983 330 1008 q 425 928 390 959 l 625 1027 l 655 972 l 471 882 q 568 765 526 827 q 637 636 610 703 q 680 497 665 568 q 694 351 694 425 q 672 205 694 272 q 610 89 650 138 q 510 12 569 39 q 378 -16 452 -16 q 244 9 302 -16 q 145 81 185 35 q 84 194 104 127 q 63 341 63 260 q 86 490 63 422 q 151 607 109 558 q 252 683 193 656 q 384 710 311 710 q 538 652 476 710 l 541 655 m 386 635 q 290 615 333 635 q 216 556 247 594 q 169 463 186 517 q 153 342 153 409 q 168 224 153 277 q 213 135 184 172 q 285 78 243 98 q 382 58 328 58 q 475 79 434 58 q 545 138 516 100 q 589 229 574 176 q 604 347 604 281 q 386 635 604 635 z "},"þ":{"ha":797,"x_min":112,"x_max":734,"o":"m 199 112 l 199 -319 l 112 -319 l 112 1028 l 199 1028 l 199 562 l 201 562 q 305 672 240 634 q 451 711 370 711 q 570 687 517 711 q 659 618 623 663 q 714 511 695 574 q 734 370 734 448 q 712 213 734 283 q 650 91 690 142 q 551 12 609 40 q 420 -16 493 -16 q 201 112 274 -16 l 199 112 m 199 289 q 215 200 199 241 q 259 126 231 158 q 328 77 288 95 q 417 58 368 58 q 511 80 469 58 q 583 143 553 102 q 628 241 612 184 q 644 370 644 299 q 629 480 644 431 q 587 564 614 530 q 520 617 559 599 q 433 635 481 635 q 336 615 379 635 q 262 561 292 595 q 215 480 231 526 q 199 381 199 433 l 199 289 z "},"&":{"ha":974,"x_min":88,"x_max":959,"o":"m 833 0 l 715 117 q 393 -17 581 -17 q 266 2 323 -17 q 170 57 210 22 q 109 140 130 92 q 88 245 88 188 q 311 531 88 424 q 204 762 204 663 q 222 852 204 810 q 274 924 241 893 q 352 971 307 954 q 452 989 397 989 q 543 974 502 989 q 612 932 583 959 q 656 869 640 906 q 671 789 671 833 q 659 706 671 743 q 620 635 647 668 q 550 573 593 602 q 445 515 507 544 q 575 382 506 450 q 722 237 644 313 q 755 297 740 264 q 781 366 770 330 q 798 440 792 402 q 806 514 804 477 l 889 514 q 774 180 886 330 q 857 100 811 144 q 959 -1 902 56 l 833 0 m 393 568 q 480 616 444 592 q 540 666 517 640 q 574 720 563 692 q 585 781 585 749 q 574 835 585 810 q 545 878 564 860 q 503 906 527 896 q 450 916 478 916 q 385 904 414 916 q 335 872 355 892 q 303 823 315 851 q 292 761 292 794 q 393 568 292 681 m 663 172 q 508 326 582 251 q 365 475 435 401 q 222 375 267 429 q 178 250 178 321 q 194 172 178 207 q 238 112 210 136 q 307 73 267 87 q 396 59 347 59 q 663 172 549 59 z "},",":{"ha":304,"x_min":29,"x_max":208,"o":"m 95 -174 l 29 -174 l 119 154 l 208 154 l 95 -174 z "},";":{"ha":304,"x_min":29,"x_max":222,"o":"m 157 578 q 110 597 128 578 q 92 644 92 616 q 110 690 92 671 q 157 708 129 708 q 203 689 184 708 q 222 644 222 671 q 216 617 222 629 q 202 597 211 606 q 181 583 193 588 q 157 578 170 578 m 95 -174 l 29 -174 l 119 154 l 208 154 l 95 -174 z "},":":{"ha":304,"x_min":87,"x_max":218,"o":"m 152 578 q 126 583 138 578 q 106 597 115 588 q 92 618 97 606 q 87 644 87 630 q 106 689 87 671 q 152 708 125 708 q 177 703 165 708 q 198 690 189 699 q 212 670 207 682 q 218 644 218 658 q 212 617 218 629 q 198 597 207 606 q 177 583 189 588 q 152 578 165 578 m 152 -14 q 106 5 125 -14 q 87 52 87 24 q 105 98 87 79 q 152 117 124 117 q 177 112 165 117 q 198 99 189 107 q 212 78 207 90 q 218 52 218 66 q 212 26 218 38 q 198 5 207 14 q 177 -8 189 -3 q 152 -14 165 -14 z "},".":{"ha":304,"x_min":87,"x_max":218,"o":"m 152 -14 q 106 5 125 -14 q 87 52 87 24 q 105 98 87 79 q 152 117 124 117 q 177 112 165 117 q 198 99 189 107 q 212 78 207 90 q 218 52 218 66 q 212 26 218 38 q 198 5 207 14 q 177 -8 189 -3 q 152 -14 165 -14 z "},"…":{"ha":971,"x_min":95,"x_max":876,"o":"m 810 -12 q 765 7 783 -12 q 747 54 747 26 q 765 100 747 81 q 810 119 783 119 q 836 114 824 119 q 856 99 847 109 q 870 79 865 90 q 876 54 876 67 q 857 7 876 25 q 810 -12 838 -12 m 484 -12 q 438 7 457 -12 q 419 54 419 26 q 424 79 419 67 q 438 99 429 90 q 459 114 448 109 q 484 119 471 119 q 509 113 497 119 q 530 99 521 108 q 544 78 538 90 q 549 54 549 66 q 530 7 549 26 q 484 -12 511 -12 m 159 -12 q 113 7 132 -12 q 95 54 95 26 q 113 100 95 81 q 159 119 132 119 q 184 114 172 119 q 204 99 195 109 q 219 79 214 90 q 224 54 224 67 q 205 7 224 26 q 159 -12 186 -12 z "},"!":{"ha":395,"x_min":132,"x_max":262,"o":"m 233 273 l 158 273 l 149 972 l 243 972 l 233 273 m 197 -12 q 151 6 170 -12 q 132 52 132 25 q 151 99 132 80 q 197 117 170 117 q 222 113 210 117 q 242 99 233 108 q 257 78 252 90 q 262 52 262 66 q 257 27 262 39 q 242 6 252 15 q 222 -7 233 -3 q 197 -12 210 -12 z "},"¡":{"ha":395,"x_min":132,"x_max":262,"o":"m 198 578 q 152 597 171 578 q 132 643 132 615 q 137 668 132 656 q 152 689 142 680 q 173 703 161 698 q 198 708 184 708 q 223 703 212 708 q 243 689 235 698 q 257 668 252 680 q 262 643 262 656 q 244 597 262 616 q 198 578 225 578 m 152 -276 l 162 422 l 237 422 l 246 -276 l 152 -276 z "},"?":{"ha":610,"x_min":85,"x_max":545,"o":"m 241 270 q 230 315 235 288 q 225 370 225 342 q 236 433 225 405 q 264 486 247 461 q 306 534 282 511 q 354 581 329 557 q 393 620 374 600 q 426 662 412 640 q 449 710 440 684 q 458 764 458 735 q 445 827 458 800 q 411 872 433 854 q 358 901 389 891 q 294 911 328 911 q 181 889 233 911 q 85 824 130 867 l 85 920 q 188 972 135 955 q 302 989 241 989 q 397 975 353 989 q 474 934 441 961 q 526 867 507 907 q 545 775 545 827 q 534 705 545 737 q 506 646 524 673 q 467 595 489 619 q 422 550 446 572 q 371 500 393 522 q 334 458 349 478 q 312 416 319 437 q 304 370 304 395 q 310 313 304 338 q 323 270 317 288 l 241 270 m 283 -12 q 259 -7 271 -12 q 239 6 248 -3 q 224 27 230 15 q 219 52 219 39 q 224 78 219 66 q 238 99 229 90 q 259 112 247 107 q 283 117 271 117 q 308 113 296 117 q 329 99 320 108 q 344 78 338 90 q 349 52 349 66 q 344 27 349 39 q 329 6 338 15 q 308 -7 320 -3 q 283 -12 296 -12 z "},"¿":{"ha":610,"x_min":97,"x_max":557,"o":"m 401 426 q 412 381 407 408 q 417 326 417 353 q 406 262 417 291 q 377 209 395 234 q 336 161 359 184 q 288 114 313 138 q 249 75 268 95 q 216 33 231 55 q 193 -14 202 11 q 184 -68 184 -39 q 197 -131 184 -104 q 232 -177 210 -158 q 284 -205 254 -195 q 349 -215 314 -215 q 461 -193 410 -215 q 557 -128 513 -171 l 557 -224 q 454 -276 507 -259 q 340 -293 400 -293 q 245 -279 289 -293 q 168 -238 201 -265 q 116 -171 135 -211 q 97 -79 97 -132 q 107 -10 97 -41 q 135 49 118 22 q 174 99 153 76 q 219 145 196 123 q 270 195 248 173 q 307 238 292 217 q 330 279 322 258 q 338 326 338 300 q 332 383 338 357 q 319 426 326 408 l 401 426 m 358 708 q 383 703 372 708 q 404 689 395 698 q 417 668 412 680 q 422 643 422 656 q 417 617 422 629 q 404 597 412 606 q 383 584 395 589 q 358 578 372 578 q 311 597 330 578 q 293 643 293 616 q 298 668 293 656 q 312 689 303 680 q 333 703 321 698 q 358 708 345 708 z "},"(":{"ha":406,"x_min":98,"x_max":391,"o":"m 306 -221 q 98 370 98 19 q 307 972 98 730 l 391 972 q 178 372 178 722 q 389 -221 178 33 l 306 -221 z "},")":{"ha":406,"x_min":15,"x_max":307,"o":"m 17 -221 q 227 372 227 33 q 15 972 227 722 l 98 972 q 307 370 307 730 q 100 -221 307 19 l 17 -221 z "},"[":{"ha":406,"x_min":138,"x_max":371,"o":"m 138 -221 l 138 972 l 371 972 l 371 903 l 219 903 l 219 -152 l 371 -152 l 371 -221 l 138 -221 z "},"]":{"ha":406,"x_min":35,"x_max":267,"o":"m 35 -221 l 35 -152 l 186 -152 l 186 903 l 35 903 l 35 972 l 267 972 l 267 -221 l 35 -221 z "},"{":{"ha":406,"x_min":63,"x_max":359,"o":"m 359 -221 q 217 -170 264 -218 q 169 -17 169 -121 l 169 185 q 142 300 169 260 q 63 345 115 340 l 63 406 q 169 562 169 418 l 169 767 q 217 921 169 871 q 359 972 264 970 l 359 901 q 277 863 302 897 q 252 753 252 829 l 252 555 q 151 377 252 408 l 151 374 q 252 192 252 343 l 252 1 q 257 -66 252 -39 q 275 -113 262 -94 q 309 -140 288 -131 q 359 -150 329 -149 l 359 -221 z "},"}":{"ha":406,"x_min":47,"x_max":342,"o":"m 342 345 q 237 185 237 334 l 237 -17 q 190 -170 237 -121 q 47 -221 142 -218 l 47 -150 q 95 -141 75 -149 q 129 -116 115 -133 q 148 -70 142 -98 q 155 1 155 -41 l 155 192 q 255 374 155 342 l 255 377 q 155 555 155 409 l 155 753 q 148 821 155 793 q 128 866 141 848 q 94 891 115 883 q 47 901 74 899 l 47 972 q 190 921 142 970 q 237 767 237 872 l 237 562 q 342 406 237 416 l 342 345 z "},"|":{"ha":323,"x_min":121,"x_max":203,"o":"m 121 -326 l 121 1062 l 203 1062 l 203 -326 l 121 -326 z "},"/":{"ha":525,"x_min":-20,"x_max":535,"o":"m 63 -161 l -20 -161 l 450 972 l 535 972 l 63 -161 z "},"\\":{"ha":517,"x_min":-18,"x_max":528,"o":"m 446 -162 l -18 972 l 66 972 l 528 -162 l 446 -162 z "},"'":{"ha":308,"x_min":115,"x_max":193,"o":"m 193 669 l 115 669 l 115 972 l 193 972 l 193 669 z "},"\"":{"ha":505,"x_min":115,"x_max":390,"o":"m 390 669 l 312 669 l 312 972 l 390 972 l 390 669 m 193 669 l 115 669 l 115 972 l 193 972 l 193 669 z "},"‘":{"ha":307,"x_min":74,"x_max":239,"o":"m 161 677 l 74 677 l 174 981 l 239 981 l 161 677 z "},"ʼ":{"ha":307,"x_min":75,"x_max":241,"o":"m 140 677 l 75 677 l 155 981 l 241 981 l 140 677 z "},"“":{"ha":494,"x_min":74,"x_max":427,"o":"m 347 677 l 261 677 l 361 981 l 427 981 l 347 677 m 161 677 l 74 677 l 174 981 l 239 981 l 161 677 z "},"”":{"ha":494,"x_min":75,"x_max":428,"o":"m 328 677 l 262 677 l 340 981 l 428 981 l 328 677 m 140 677 l 75 677 l 155 981 l 241 981 l 140 677 z "},"‚":{"ha":307,"x_min":56,"x_max":221,"o":"m 121 -153 l 56 -153 l 136 148 l 221 148 l 121 -153 z "},"„":{"ha":494,"x_min":56,"x_max":408,"o":"m 309 -155 l 243 -155 l 321 148 l 408 148 l 309 -155 m 121 -155 l 56 -155 l 136 148 l 221 148 l 121 -155 z "},"‹":{"ha":435,"x_min":74,"x_max":360,"o":"m 269 136 l 74 363 l 269 597 l 360 597 l 165 363 l 360 136 l 269 136 z "},"›":{"ha":435,"x_min":75,"x_max":361,"o":"m 75 136 l 269 363 l 75 597 l 165 597 l 361 363 l 165 136 l 75 136 z "},"«":{"ha":674,"x_min":75,"x_max":600,"o":"m 270 136 l 75 363 l 270 597 l 361 597 l 166 363 l 361 136 l 270 136 m 509 136 l 313 363 l 509 597 l 600 597 l 405 363 l 600 136 l 509 136 z "},"»":{"ha":674,"x_min":75,"x_max":600,"o":"m 404 597 l 600 369 l 404 136 l 313 136 l 508 369 l 313 597 l 404 597 m 165 597 l 361 369 l 165 136 l 75 136 l 269 369 l 75 597 l 165 597 z "},"*":{"ha":571,"x_min":50,"x_max":522,"o":"m 330 711 l 463 538 l 399 496 l 288 680 l 174 496 l 111 538 l 243 711 l 50 756 l 72 827 l 260 760 l 247 972 l 326 972 l 313 760 l 499 827 l 522 756 l 330 711 z "},"†":{"ha":517,"x_min":31,"x_max":486,"o":"m 486 619 l 304 640 l 281 155 l 243 155 l 219 640 l 31 619 l 31 707 l 239 694 l 216 972 l 308 972 l 284 694 l 486 707 l 486 619 z "},"‡":{"ha":517,"x_min":31,"x_max":486,"o":"m 486 352 l 284 369 l 308 155 l 216 155 l 239 369 l 31 352 l 31 440 l 219 423 l 252 564 l 219 704 l 31 687 l 31 775 l 239 758 l 216 972 l 308 972 l 284 758 l 486 775 l 486 687 l 304 704 l 272 564 l 304 423 l 486 440 l 486 352 z "},"·":{"ha":304,"x_min":87,"x_max":218,"o":"m 152 412 q 106 431 125 412 q 87 477 87 450 q 105 524 87 505 q 152 543 124 543 q 177 538 165 543 q 198 525 189 533 q 212 504 207 516 q 218 477 218 492 q 212 452 218 464 q 198 431 207 440 q 177 417 189 422 q 152 412 165 412 z "},"•":{"ha":557,"x_min":111,"x_max":446,"o":"m 111 467 q 124 532 111 501 q 160 585 138 562 q 213 621 182 608 q 278 634 243 634 q 343 621 313 634 q 396 585 374 608 q 432 532 419 562 q 446 467 446 501 q 432 401 446 432 q 396 349 419 371 q 343 313 374 326 q 278 300 313 300 q 213 313 243 300 q 160 349 182 326 q 124 401 138 371 q 111 467 111 432 z "},"@":{"ha":1318,"x_min":115,"x_max":1205,"o":"m 783 287 q 586 125 727 125 q 496 145 535 125 q 432 199 458 165 q 393 279 406 233 q 380 377 380 326 q 387 460 380 418 q 410 543 395 503 q 448 617 425 583 q 502 679 471 652 q 573 720 533 705 q 663 734 614 734 q 706 729 684 734 q 747 712 728 723 q 781 684 766 701 q 804 646 795 667 l 806 646 l 813 725 l 885 725 l 852 336 q 944 193 852 193 q 1005 206 979 193 q 1052 243 1032 220 q 1086 296 1072 266 q 1109 359 1101 326 q 1122 425 1118 391 q 1126 487 1126 458 q 1093 667 1126 587 q 1000 803 1060 747 q 856 890 940 860 q 670 920 772 920 q 536 903 599 920 q 420 853 473 885 q 326 775 368 821 q 254 674 283 730 q 210 553 225 618 q 194 416 194 488 q 227 223 194 311 q 322 72 260 135 q 471 -25 384 9 q 667 -60 558 -60 q 954 -2 835 -60 l 954 -76 q 660 -127 830 -127 q 438 -87 538 -127 q 266 24 338 -47 q 155 196 195 96 q 115 414 115 296 q 134 566 115 493 q 186 703 152 639 q 270 819 220 766 q 381 909 319 871 q 518 967 444 946 q 676 987 592 987 q 817 971 749 987 q 944 925 885 955 q 1050 851 1002 895 q 1133 752 1099 807 q 1186 632 1168 697 q 1205 493 1205 567 q 1199 411 1205 454 q 1179 328 1192 369 q 1144 250 1165 287 q 1094 186 1123 214 q 1026 142 1065 158 q 941 125 988 125 q 785 287 791 125 l 783 287 m 661 667 q 568 641 606 667 q 506 573 530 615 q 471 480 481 532 q 460 379 460 429 q 469 302 460 336 q 497 243 479 267 q 540 206 515 219 q 597 193 566 193 q 664 209 635 193 q 714 249 693 224 q 750 307 736 274 q 773 375 764 340 q 786 447 782 411 q 789 514 789 483 q 756 629 789 590 q 661 667 723 667 z "},"©":{"ha":1230,"x_min":108,"x_max":1122,"o":"m 108 484 q 126 619 108 554 q 177 740 144 684 q 256 843 210 797 q 359 922 302 889 q 480 974 416 956 q 615 991 545 991 q 750 974 685 991 q 871 922 814 956 q 974 843 928 889 q 1053 740 1020 797 q 1104 619 1086 684 q 1122 484 1122 554 q 1104 350 1122 414 q 1053 228 1086 285 q 974 125 1020 172 q 871 46 928 79 q 750 -5 814 13 q 615 -23 685 -23 q 480 -5 545 -23 q 359 46 416 13 q 256 125 302 79 q 177 228 210 172 q 126 350 144 285 q 108 484 108 414 m 163 484 q 198 308 163 391 q 295 164 234 226 q 439 67 357 103 q 615 32 522 32 q 791 67 709 32 q 935 164 873 103 q 1032 308 996 226 q 1067 484 1067 391 q 1032 660 1067 578 q 935 804 996 743 q 791 901 873 865 q 615 937 709 937 q 439 901 522 937 q 295 804 357 865 q 198 660 234 743 q 163 484 163 578 m 812 182 q 636 134 732 134 q 507 159 568 134 q 400 229 446 184 q 328 335 354 273 q 301 469 301 396 q 325 612 301 545 q 394 727 349 678 q 504 805 439 777 q 651 833 569 833 q 809 797 739 833 l 809 717 q 640 761 742 761 q 534 740 581 761 q 452 681 486 718 q 400 592 418 643 q 381 481 381 541 q 400 376 381 426 q 453 288 418 326 q 536 228 487 250 q 646 205 585 205 q 812 255 740 205 l 812 182 z "},"®":{"ha":1230,"x_min":174,"x_max":989,"o":"m 581 173 q 293 292 412 173 q 174 578 174 410 q 293 867 174 749 q 581 986 413 986 q 869 867 749 986 q 989 581 989 748 q 870 292 989 411 q 581 173 751 173 m 578 930 q 335 827 435 930 q 234 578 234 724 q 334 331 234 434 q 578 229 434 229 q 826 331 724 229 q 928 578 928 434 q 826 827 928 724 q 578 930 723 930 m 705 327 l 643 456 q 590 534 616 514 q 533 554 565 554 l 486 554 l 486 327 l 420 327 l 420 850 l 573 850 q 710 813 660 850 q 760 713 760 775 q 623 568 760 593 l 623 566 q 710 471 663 556 l 779 327 l 705 327 m 486 796 l 486 609 l 575 609 q 660 633 628 609 q 692 704 692 656 q 562 796 692 796 l 486 796 z "},"™":{"ha":1074,"x_min":50,"x_max":940,"o":"m 876 524 l 876 866 l 873 866 l 722 524 l 678 524 l 532 866 l 530 866 l 530 524 l 467 524 l 467 972 l 549 972 l 701 619 l 704 619 l 861 972 l 940 972 l 940 524 l 876 524 m 260 913 l 260 524 l 194 524 l 194 913 l 50 913 l 50 972 l 406 972 l 406 913 l 260 913 z "},"§":{"ha":623,"x_min":100,"x_max":535,"o":"m 433 277 q 479 220 465 252 q 494 146 494 187 q 477 70 494 104 q 431 9 460 35 q 359 -31 401 -16 q 267 -45 317 -45 q 112 -9 186 -45 l 112 78 q 271 31 197 31 q 371 61 336 31 q 406 140 406 92 q 382 205 406 177 q 356 230 377 216 q 303 262 336 245 l 247 292 q 178 337 205 313 q 133 387 150 361 q 108 440 115 412 q 100 498 100 468 q 205 668 100 612 q 127 818 127 724 q 143 896 127 860 q 188 957 159 931 q 257 997 216 983 q 348 1011 298 1011 q 488 984 430 1011 l 488 898 q 346 935 426 935 q 217 823 217 935 q 223 781 217 800 q 248 745 229 763 q 301 707 267 727 q 391 661 335 687 q 499 578 463 627 q 535 467 535 530 q 433 277 535 355 m 273 627 q 189 505 189 589 q 198 453 189 476 q 227 410 206 431 q 283 369 248 389 q 372 325 319 349 q 427 384 409 353 q 446 461 446 415 q 438 507 446 487 q 412 547 431 528 q 359 585 393 566 q 273 627 326 604 z "},"¶":{"ha":647,"x_min":66,"x_max":576,"o":"m 488 908 l 488 0 l 422 0 l 422 908 l 302 908 l 302 0 l 236 0 l 236 612 q 169 626 199 612 q 115 664 138 640 q 79 721 92 688 q 66 792 66 754 q 80 866 66 833 q 118 923 94 899 q 173 960 142 947 q 240 972 205 972 l 576 972 l 576 908 l 488 908 z "},"-":{"ha":554,"x_min":98,"x_max":469,"o":"m 98 359 l 98 434 l 469 434 l 469 359 l 98 359 z "},"–":{"ha":694,"x_min":0,"x_max":694,"o":"m 0 359 l 0 434 l 694 434 l 694 359 l 0 359 z "},"—":{"ha":1389,"x_min":0,"x_max":1389,"o":"m 0 359 l 0 434 l 1389 434 l 1389 359 l 0 359 z "},"#":{"ha":829,"x_min":31,"x_max":786,"o":"m 772 635 l 591 635 l 544 416 l 736 416 l 721 353 l 532 353 l 473 83 l 403 83 l 461 353 l 286 353 l 228 83 l 158 83 l 216 353 l 31 353 l 44 416 l 229 416 l 275 635 l 82 635 l 96 697 l 288 697 l 347 972 l 416 972 l 358 697 l 534 697 l 593 972 l 663 972 l 604 697 l 786 697 l 772 635 m 346 635 l 298 416 l 475 416 l 522 635 l 346 635 z "},"¹":{"ha":483,"x_min":92,"x_max":430,"o":"m 430 600 l 99 600 l 99 665 l 228 665 l 228 1098 l 92 1055 l 92 1128 l 301 1192 l 301 665 l 430 665 l 430 600 z "},"²":{"ha":483,"x_min":62,"x_max":425,"o":"m 425 600 l 62 600 l 62 672 l 224 831 q 286 896 262 869 q 321 945 309 923 q 337 985 333 966 q 341 1023 341 1003 q 315 1095 341 1069 q 241 1120 290 1120 q 92 1052 163 1120 l 92 1137 q 249 1190 159 1190 q 320 1178 289 1190 q 373 1146 351 1166 q 407 1096 395 1125 q 418 1032 418 1067 q 411 980 418 1006 q 387 924 404 953 q 342 862 370 895 q 275 790 315 829 l 154 674 l 154 671 l 425 671 l 425 600 z "},"³":{"ha":483,"x_min":73,"x_max":412,"o":"m 412 759 q 397 688 412 720 q 357 633 383 656 q 294 597 331 610 q 211 584 257 584 q 73 618 129 584 l 73 699 q 213 651 143 651 q 304 680 271 651 q 336 757 336 708 q 182 861 336 861 l 130 861 l 130 928 l 178 928 q 318 1032 318 928 q 217 1119 318 1119 q 96 1078 160 1119 l 96 1156 q 233 1188 159 1188 q 298 1178 269 1188 q 349 1149 328 1168 q 381 1103 370 1130 q 392 1045 392 1077 q 293 903 392 939 l 293 900 q 382 850 352 886 q 412 759 412 813 z "},"%":{"ha":1113,"x_min":56,"x_max":1063,"o":"m 278 490 q 185 507 227 490 q 115 557 144 525 q 71 634 86 589 q 56 734 56 679 q 73 842 56 794 q 120 922 90 889 q 193 972 151 955 q 288 989 236 989 q 380 972 339 989 q 449 924 420 956 q 493 846 477 892 q 508 742 508 800 q 491 641 508 687 q 445 561 475 595 q 373 509 415 528 q 278 490 330 490 m 286 924 q 221 911 250 924 q 173 874 193 899 q 142 815 153 850 q 132 736 132 781 q 171 603 132 652 q 282 554 211 554 q 346 567 318 554 q 393 605 374 581 q 422 664 412 629 q 432 741 432 699 q 393 877 432 830 q 286 924 353 924 m 292 -14 l 210 -14 l 814 972 l 896 972 l 292 -14 m 833 -16 q 741 2 783 -16 q 671 52 700 20 q 627 129 642 83 q 611 229 611 174 q 628 336 611 288 q 675 416 645 383 q 749 467 706 450 q 844 485 792 485 q 935 468 895 485 q 1004 419 976 451 q 1048 341 1033 387 q 1063 236 1063 294 q 1047 135 1063 181 q 1000 55 1030 89 q 928 3 970 22 q 833 -16 886 -16 m 841 418 q 777 406 806 418 q 729 369 749 393 q 698 310 709 345 q 687 231 687 275 q 697 155 687 189 q 727 97 708 121 q 774 61 747 74 q 838 49 802 49 q 901 62 873 49 q 948 99 928 75 q 978 158 967 123 q 988 236 988 193 q 949 372 988 326 q 841 418 909 418 z "},"‰":{"ha":1662,"x_min":56,"x_max":1613,"o":"m 278 490 q 185 507 227 490 q 115 557 144 525 q 71 634 86 589 q 56 734 56 679 q 73 842 56 794 q 120 922 90 889 q 193 972 151 955 q 288 989 236 989 q 380 972 339 989 q 449 924 420 956 q 493 846 477 892 q 508 742 508 800 q 491 641 508 687 q 445 561 475 595 q 373 509 415 528 q 278 490 330 490 m 286 924 q 221 911 250 924 q 173 874 193 899 q 142 815 153 850 q 132 736 132 781 q 171 603 132 652 q 282 554 211 554 q 346 567 318 554 q 393 605 374 581 q 422 664 412 629 q 432 741 432 699 q 393 877 432 830 q 286 924 353 924 m 292 -14 l 210 -14 l 815 972 l 897 972 l 292 -14 m 1383 -16 q 1290 2 1331 -16 q 1220 52 1249 20 q 1176 129 1192 84 q 1161 229 1161 174 q 1178 336 1161 288 q 1225 416 1195 383 q 1299 467 1256 450 q 1394 485 1342 485 q 1485 468 1444 485 q 1554 418 1526 450 q 1597 340 1582 387 q 1613 236 1613 294 q 1596 135 1613 181 q 1550 55 1580 89 q 1478 3 1520 22 q 1383 -16 1435 -16 m 1391 418 q 1278 369 1319 418 q 1238 231 1238 320 q 1277 97 1238 144 q 1387 49 1317 49 q 1498 99 1459 49 q 1538 236 1538 149 q 1498 372 1538 326 q 1391 418 1459 418 m 833 -16 q 741 2 783 -16 q 671 52 700 20 q 627 129 642 83 q 611 229 611 174 q 628 336 611 288 q 675 416 645 383 q 749 467 706 450 q 844 485 792 485 q 935 468 895 485 q 1004 419 976 451 q 1048 341 1033 387 q 1063 236 1063 294 q 1047 135 1063 181 q 1000 55 1030 89 q 928 3 970 22 q 833 -16 886 -16 m 841 418 q 777 406 806 418 q 729 369 749 393 q 698 310 709 345 q 687 231 687 275 q 697 155 687 189 q 727 97 708 121 q 774 61 747 74 q 838 49 802 49 q 901 62 873 49 q 948 99 928 75 q 978 158 967 123 q 988 236 988 193 q 949 372 988 326 q 841 418 909 418 z "},"⁄":{"ha":203,"x_min":-222,"x_max":443,"o":"m -140 0 l -222 0 l 361 972 l 443 972 l -140 0 z "},"¼":{"ha":1026,"x_min":79,"x_max":1000,"o":"m 417 396 l 86 396 l 86 462 l 215 462 l 215 895 l 79 852 l 79 924 l 288 989 l 288 462 l 417 462 l 417 396 m 926 144 l 926 1 l 853 1 l 853 144 l 587 144 l 587 197 l 842 577 l 926 577 l 926 208 l 1000 208 l 1000 144 l 926 144 m 852 497 q 824 446 838 466 l 667 208 l 853 208 l 853 441 q 855 497 853 466 l 852 497 m 301 0 l 219 0 l 802 972 l 884 972 l 301 0 z "},"½":{"ha":1117,"x_min":79,"x_max":1049,"o":"m 417 396 l 86 396 l 86 462 l 215 462 l 215 895 l 79 852 l 79 924 l 288 989 l 288 462 l 417 462 l 417 396 m 1049 1 l 686 1 l 686 73 l 848 233 q 909 297 886 271 q 945 346 932 324 q 961 386 957 368 q 965 425 965 404 q 939 496 965 471 q 865 521 913 521 q 716 453 787 521 l 716 538 q 873 591 783 591 q 944 579 913 591 q 997 547 975 568 q 1031 497 1019 526 q 1042 433 1042 468 q 1035 381 1042 408 q 1010 325 1027 354 q 966 263 994 296 q 899 191 939 230 l 778 75 l 778 73 l 1049 73 l 1049 1 m 301 0 l 219 0 l 802 972 l 884 972 l 301 0 z "},"¾":{"ha":1026,"x_min":60,"x_max":1000,"o":"m 399 555 q 385 485 399 517 q 344 430 370 453 q 281 393 318 406 q 198 380 244 380 q 60 414 116 380 l 60 495 q 200 448 130 448 q 291 476 258 448 q 323 553 323 505 q 170 658 323 658 l 117 658 l 117 725 l 165 725 q 305 829 305 725 q 204 916 305 916 q 83 874 147 916 l 83 952 q 220 985 146 985 q 285 975 256 985 q 336 945 315 964 q 368 900 357 926 q 379 842 379 873 q 280 699 379 735 l 280 696 q 369 646 339 683 q 399 555 399 610 m 926 144 l 926 1 l 853 1 l 853 144 l 587 144 l 587 197 l 842 577 l 926 577 l 926 208 l 1000 208 l 1000 144 l 926 144 m 852 497 q 824 446 838 466 l 667 208 l 853 208 l 853 441 q 855 497 853 466 l 852 497 m 301 0 l 219 0 l 802 972 l 884 972 l 301 0 z "},"+":{"ha":926,"x_min":150,"x_max":777,"o":"m 500 368 l 500 92 l 427 92 l 427 368 l 150 368 l 150 441 l 427 441 l 427 718 l 500 718 l 500 441 l 777 441 l 777 368 l 500 368 z "},"−":{"ha":926,"x_min":151,"x_max":777,"o":"m 151 368 l 151 441 l 777 441 l 777 368 l 151 368 z "},"±":{"ha":926,"x_min":151,"x_max":777,"o":"m 500 435 l 500 159 l 428 159 l 428 435 l 151 435 l 151 509 l 428 509 l 428 785 l 500 785 l 500 509 l 777 509 l 777 435 l 500 435 m 151 0 l 151 73 l 777 73 l 777 0 l 151 0 z "},"×":{"ha":926,"x_min":183,"x_max":743,"o":"m 691 124 l 463 353 l 235 124 l 183 176 l 412 404 l 183 633 l 235 685 l 463 456 l 691 685 l 743 633 l 515 404 l 743 176 l 691 124 z "},"÷":{"ha":926,"x_min":151,"x_max":777,"o":"m 467 588 q 423 606 441 588 q 405 650 405 624 q 422 694 405 676 q 467 713 440 713 q 511 696 495 713 q 527 650 527 680 q 509 606 527 623 q 467 588 492 588 m 151 368 l 151 441 l 777 441 l 777 368 l 151 368 m 465 97 q 441 102 452 97 q 421 115 429 106 q 408 134 412 123 q 403 158 403 145 q 421 203 403 184 q 465 222 439 222 q 509 205 494 222 q 525 159 525 189 q 520 135 525 146 q 508 115 516 123 q 489 102 500 106 q 465 97 478 97 z "},"=":{"ha":926,"x_min":150,"x_max":777,"o":"m 150 507 l 150 580 l 777 580 l 777 507 l 150 507 m 150 231 l 150 304 l 777 304 l 777 231 l 150 231 z "},"<":{"ha":926,"x_min":176,"x_max":750,"o":"m 176 386 l 176 412 l 750 734 l 750 651 l 303 402 l 303 399 l 750 180 l 750 96 l 176 386 z "},">":{"ha":926,"x_min":176,"x_max":750,"o":"m 176 96 l 176 180 l 625 399 l 625 402 l 176 651 l 176 734 l 750 412 l 750 386 l 176 96 z "},"¬":{"ha":926,"x_min":151,"x_max":777,"o":"m 703 136 l 703 420 l 151 420 l 151 494 l 777 494 l 777 136 l 703 136 z "},"°":{"ha":530,"x_min":85,"x_max":444,"o":"m 85 798 q 99 868 85 836 q 138 925 113 901 q 195 964 162 949 q 264 978 227 978 q 334 964 302 978 q 391 925 367 949 q 430 868 416 901 q 444 798 444 836 q 430 728 444 761 q 391 671 416 696 q 334 633 367 647 q 264 619 302 619 q 195 633 227 619 q 138 671 162 647 q 99 728 113 696 q 85 798 85 761 m 154 799 q 162 755 154 776 q 186 719 171 734 q 222 694 201 703 q 265 685 242 685 q 308 694 288 685 q 343 720 328 704 q 367 756 358 736 q 375 799 375 777 q 367 842 375 822 q 345 878 359 863 q 310 903 330 894 q 265 912 290 912 q 221 903 241 912 q 186 878 201 894 q 162 842 171 863 q 154 799 154 822 z "},"^":{"ha":926,"x_min":166,"x_max":761,"o":"m 677 450 l 461 867 l 458 867 l 248 450 l 166 450 l 439 989 l 475 989 l 761 450 l 677 450 z "},"~":{"ha":926,"x_min":154,"x_max":773,"o":"m 773 495 q 723 357 768 406 q 600 308 677 308 q 441 374 530 308 q 328 425 372 425 q 227 311 233 425 l 154 311 q 169 389 156 355 q 204 448 182 424 q 258 486 227 473 q 328 498 290 498 q 474 441 396 498 q 516 413 498 425 q 549 394 534 401 q 577 384 564 387 q 604 380 591 380 q 672 410 647 380 q 701 495 697 440 l 773 495 z "},"¦":{"ha":323,"x_min":121,"x_max":203,"o":"m 121 485 l 121 1062 l 203 1062 l 203 485 l 121 485 m 121 -326 l 121 251 l 203 251 l 203 -326 l 121 -326 z "},"_":{"ha":576,"x_min":0,"x_max":576,"o":"m 0 -191 l 0 -121 l 576 -121 l 576 -191 l 0 -191 z "},"ª":{"ha":525,"x_min":54,"x_max":452,"o":"m 378 486 l 378 568 l 376 568 q 307 498 350 523 q 211 474 264 474 q 146 485 175 474 q 96 514 117 495 q 65 558 76 533 q 54 614 54 584 q 224 774 54 751 l 378 795 q 271 922 378 922 q 98 861 180 922 l 98 937 q 277 987 179 987 q 408 939 363 987 q 452 801 452 892 l 452 486 l 378 486 m 275 722 q 210 710 238 717 q 164 691 182 703 q 137 661 146 679 q 128 618 128 644 q 154 558 128 581 q 227 536 180 536 q 285 549 257 536 q 342 595 313 562 q 370 643 361 617 q 378 698 378 669 l 378 736 l 275 722 z "},"º":{"ha":574,"x_min":51,"x_max":532,"o":"m 290 472 q 191 490 235 472 q 115 542 146 509 q 67 623 84 576 q 51 726 51 669 q 69 836 51 787 q 119 918 87 884 q 197 968 152 951 q 298 986 243 986 q 395 968 352 986 q 469 918 439 951 q 516 838 500 885 q 532 732 532 791 q 515 627 532 675 q 467 545 498 579 q 391 491 435 510 q 290 472 346 472 m 294 922 q 226 908 256 922 q 174 869 195 895 q 140 808 152 844 q 128 727 128 772 q 139 649 128 684 q 172 589 151 614 q 224 551 193 564 q 293 538 254 538 q 361 551 331 538 q 412 589 391 564 q 444 649 433 614 q 455 730 455 685 q 444 810 455 774 q 412 870 433 846 q 362 908 391 895 q 294 922 332 922 z "},"¤":{"ha":772,"x_min":79,"x_max":693,"o":"m 642 186 l 549 279 q 386 224 478 224 q 223 279 292 224 l 130 186 l 79 240 l 172 330 q 118 492 118 406 q 172 653 118 584 l 79 745 l 130 798 l 223 705 q 386 760 298 760 q 548 705 476 760 l 642 798 l 693 745 l 600 653 q 654 492 654 581 q 600 330 654 406 l 693 240 l 642 186 m 387 687 q 310 671 346 687 q 248 629 275 656 q 207 568 222 603 q 191 493 191 532 q 207 418 191 454 q 249 356 222 382 q 311 313 276 329 q 386 298 347 298 q 461 313 425 298 q 523 356 496 329 q 566 418 550 382 q 581 493 581 454 q 565 568 581 533 q 522 630 549 604 q 460 672 495 656 q 387 687 425 687 z "},"€":{"ha":732,"x_min":61,"x_max":670,"o":"m 670 35 q 481 -16 581 -16 q 360 6 415 -16 q 263 72 305 28 q 193 181 221 116 q 151 333 165 247 l 61 333 l 61 409 l 144 409 q 142 437 142 422 q 141 469 141 452 q 145 552 141 509 l 61 552 l 61 628 l 156 628 q 204 780 172 713 q 281 893 236 847 q 385 964 327 940 q 508 989 442 989 q 670 951 597 989 l 670 862 q 501 913 592 913 q 415 893 456 913 q 340 838 374 874 q 282 748 307 801 q 244 628 258 695 l 597 628 l 597 552 l 233 552 q 231 521 232 538 q 231 485 231 505 q 231 447 231 466 q 233 409 231 427 l 597 409 l 597 333 l 242 333 q 329 128 264 197 q 489 59 393 59 q 670 120 576 59 l 670 35 z "},"$":{"ha":732,"x_min":110,"x_max":634,"o":"m 401 -142 l 339 -142 l 339 0 q 111 56 204 0 l 111 150 q 161 119 134 133 q 218 96 188 106 q 279 81 248 86 q 339 76 310 76 l 339 452 q 257 499 298 475 q 183 553 216 522 q 130 624 151 583 q 110 722 110 665 q 127 815 110 772 q 174 890 144 858 q 247 944 205 923 q 339 972 289 965 l 339 1095 l 401 1095 l 401 975 q 505 963 460 973 q 581 937 550 953 l 581 848 q 401 898 510 896 l 401 513 q 512 448 467 479 q 584 386 557 417 q 623 320 611 354 q 634 246 634 286 q 618 158 634 199 q 572 86 602 117 q 499 33 543 54 q 401 4 456 12 l 401 -142 m 339 895 q 237 840 275 883 q 199 733 199 798 q 206 679 199 703 q 228 633 212 655 q 271 591 244 612 q 339 547 298 570 l 339 895 m 401 79 q 509 133 473 93 q 545 235 545 174 q 537 286 545 262 q 512 332 529 310 q 468 375 495 354 q 401 418 440 396 l 401 79 z "},"¢":{"ha":732,"x_min":119,"x_max":630,"o":"m 629 142 q 479 95 566 103 l 479 -36 l 406 -36 l 406 96 q 284 132 338 103 q 194 207 231 161 q 138 313 157 253 q 119 443 119 374 q 137 572 119 511 q 192 682 155 633 q 281 766 228 732 q 406 816 335 801 l 406 956 l 479 956 l 479 821 q 630 788 562 820 l 630 694 q 479 743 561 739 l 479 171 q 629 227 566 179 l 629 142 m 406 737 q 319 699 356 726 q 257 633 282 671 q 220 549 233 595 q 208 451 208 502 q 219 358 208 404 q 255 275 231 313 q 316 212 279 238 q 406 175 353 185 l 406 737 z "},"£":{"ha":732,"x_min":63,"x_max":663,"o":"m 63 0 l 63 75 q 221 304 221 134 l 221 439 l 77 439 l 77 518 l 221 518 l 221 703 q 240 818 221 766 q 292 909 258 871 q 372 968 326 947 q 476 989 419 989 q 610 963 547 989 l 610 878 q 475 913 545 913 q 351 857 393 913 q 308 692 308 802 l 308 518 l 512 518 l 512 439 l 308 439 l 308 327 q 170 76 308 145 l 663 76 l 663 0 l 63 0 z "},"¥":{"ha":732,"x_min":48,"x_max":687,"o":"m 437 516 l 650 516 l 650 441 l 410 441 l 410 288 l 650 288 l 650 212 l 410 212 l 410 0 l 323 0 l 323 212 l 81 212 l 81 288 l 323 288 l 323 441 l 81 441 l 81 516 l 295 516 l 48 972 l 148 972 l 336 604 q 368 534 359 560 l 372 534 q 385 570 377 552 q 403 608 393 589 l 593 972 l 687 972 l 437 516 z "},"ƒ":{"ha":732,"x_min":70,"x_max":631,"o":"m 631 883 q 572 897 605 897 q 444 774 462 897 l 422 626 l 536 626 l 536 551 l 411 551 l 347 92 q 270 -121 327 -53 q 125 -189 213 -189 q 100 -186 113 -189 q 70 -179 86 -184 l 70 -102 q 122 -114 95 -114 q 260 94 231 -114 l 324 551 l 254 551 l 254 626 l 336 626 l 363 806 q 387 877 369 846 q 432 929 406 908 q 493 962 459 951 q 564 972 527 972 q 631 962 601 972 l 631 883 z "},"`":{"ha":358,"x_min":54,"x_max":300,"o":"m 227 816 l 54 1038 l 146 1038 l 300 816 l 227 816 z "},"´":{"ha":368,"x_min":92,"x_max":338,"o":"m 165 816 l 92 816 l 247 1038 l 338 1038 l 165 816 z "},"ˆ":{"ha":517,"x_min":75,"x_max":431,"o":"m 360 816 l 251 975 l 141 816 l 75 816 l 222 1042 l 283 1042 l 431 816 l 360 816 z "},"ˇ":{"ha":517,"x_min":84,"x_max":439,"o":"m 292 816 l 232 816 l 84 1042 l 153 1042 l 262 882 l 372 1042 l 439 1042 l 292 816 z "},"˜":{"ha":454,"x_min":26,"x_max":454,"o":"m 454 977 q 446 913 454 942 q 422 864 437 885 q 384 832 406 844 q 333 821 361 821 q 227 864 287 821 q 146 897 180 897 q 82 810 82 897 l 26 810 q 34 873 26 845 q 58 922 43 902 q 96 954 74 943 q 147 965 119 965 q 252 923 193 965 q 335 888 300 888 q 379 910 363 888 q 396 977 396 932 l 454 977 z "},"¨":{"ha":564,"x_min":100,"x_max":460,"o":"m 401 816 q 362 832 379 816 q 345 873 345 848 q 361 915 345 899 q 400 930 378 930 q 442 914 425 930 q 460 873 460 898 q 443 832 460 849 q 401 816 427 816 m 159 816 q 136 820 146 816 q 117 832 125 825 q 104 851 109 840 q 100 873 100 861 q 117 915 100 899 q 157 930 134 930 q 180 926 169 930 q 199 914 191 922 q 212 896 207 907 q 216 873 216 886 q 199 832 216 849 q 159 816 182 816 z "},"¯":{"ha":431,"x_min":42,"x_max":387,"o":"m 42 816 l 42 881 l 387 881 l 387 816 l 42 816 z "},"˘":{"ha":418,"x_min":25,"x_max":393,"o":"m 393 981 q 372 913 388 943 q 332 861 357 883 q 276 828 308 840 q 206 816 243 816 q 135 827 168 816 q 79 860 103 839 q 41 912 56 882 q 25 981 27 943 l 87 981 q 123 902 92 929 q 208 874 154 874 q 251 882 231 874 q 288 904 271 890 q 314 937 304 918 q 328 981 325 957 l 393 981 z "},"˚":{"ha":396,"x_min":60,"x_max":336,"o":"m 197 802 q 145 810 170 802 q 102 836 121 819 q 72 876 83 852 q 60 928 60 899 q 71 981 60 957 q 101 1022 82 1004 q 145 1048 120 1039 q 199 1058 170 1058 q 251 1049 226 1058 q 294 1024 275 1040 q 325 983 313 1007 q 336 930 336 960 q 325 879 336 903 q 295 839 314 856 q 250 811 275 821 q 197 802 225 802 m 197 1008 q 138 986 161 1008 q 116 930 116 964 q 138 872 116 892 q 197 852 159 852 q 230 858 215 852 q 257 874 245 863 q 274 899 268 884 q 280 930 280 913 q 256 987 280 966 q 197 1008 233 1008 z "},"¸":{"ha":282,"x_min":37,"x_max":265,"o":"m 265 -176 q 85 -294 265 -294 q 37 -292 60 -294 l 37 -236 q 90 -240 68 -240 q 191 -178 191 -240 q 98 -123 191 -123 q 82 -123 91 -123 q 63 -125 74 -124 l 63 0 l 124 0 l 124 -75 q 229 -101 192 -75 q 265 -176 265 -127 z "},"µ":{"ha":779,"x_min":112,"x_max":678,"o":"m 589 0 q 581 120 581 56 l 578 120 q 372 -16 515 -16 q 202 67 255 -16 l 198 67 l 198 -267 l 112 -267 l 112 694 l 198 694 l 198 289 q 243 120 198 178 q 379 61 289 61 q 461 78 425 61 q 525 127 498 96 q 566 202 551 158 q 580 299 580 245 l 580 694 l 667 694 l 667 176 q 670 79 667 123 q 678 0 673 35 l 589 0 z "},"₹":{"ha":732,"x_min":82,"x_max":674,"o":"m 82 743 l 433 743 q 414 806 428 777 q 375 854 399 834 q 314 885 350 874 q 229 897 278 897 l 82 897 l 82 972 l 674 972 l 674 897 l 442 897 q 472 868 458 884 q 496 831 486 851 q 512 789 506 811 q 521 744 519 767 l 674 744 l 674 665 l 517 665 q 447 526 500 583 q 295 446 393 470 l 295 444 q 337 419 318 433 q 374 386 356 405 q 409 341 391 366 q 446 283 426 316 l 614 0 l 512 0 l 357 267 q 315 334 335 305 q 272 384 295 363 q 222 414 250 404 q 158 424 195 424 l 82 424 l 82 498 l 215 498 q 292 511 256 498 q 356 545 328 523 q 404 598 385 568 q 431 667 423 629 l 82 667 l 82 743 z "},"₨":{"ha":1190,"x_min":126,"x_max":1118,"o":"m 578 0 l 454 289 q 420 352 437 327 q 382 394 402 378 q 338 416 361 410 q 289 423 315 423 l 216 423 l 216 0 l 126 0 l 126 972 l 367 972 q 484 955 431 972 q 573 905 536 938 q 630 825 610 872 q 650 716 650 777 q 636 621 650 665 q 593 542 621 576 q 525 483 565 507 q 432 449 484 459 l 432 446 q 487 403 460 435 q 538 318 513 371 l 684 0 l 578 0 m 216 890 l 216 505 l 336 505 q 426 519 385 505 q 495 559 466 533 q 540 624 524 586 q 556 708 556 661 q 503 842 556 794 q 346 890 449 890 l 216 890 m 714 123 q 801 76 753 94 q 894 59 848 59 q 995 82 961 59 q 1029 151 1029 104 q 1020 186 1029 171 q 994 213 1011 201 q 950 237 976 226 q 893 259 925 248 q 813 294 846 276 q 758 332 779 311 q 727 378 737 353 q 718 435 718 404 q 734 502 718 471 q 780 555 750 532 q 850 590 809 577 q 941 602 891 602 q 1023 594 983 602 q 1094 572 1063 587 l 1094 483 q 939 528 1022 528 q 885 522 909 528 q 844 504 861 515 q 816 476 826 492 q 806 439 806 460 q 814 403 806 418 q 837 376 821 388 q 877 353 853 363 q 933 332 901 343 q 1009 301 975 317 q 1068 266 1044 286 q 1105 219 1092 246 q 1118 154 1118 192 q 1104 89 1118 119 q 1063 34 1090 58 q 993 -3 1035 11 q 894 -16 951 -16 q 795 -6 840 -16 q 714 26 749 5 l 714 123 z "},"‌":{"ha":0,"x_min":-24,"x_max":24,"o":"m 24 1187 l 24 -277 l -24 -277 l -24 1187 l 24 1187 z "},"‍":{"ha":0,"x_min":-149,"x_max":149,"o":"m 24 -277 l -24 -277 l -24 984 l -115 892 l -149 925 l -33 1040 l -149 1154 l -115 1187 l 0 1071 l 115 1187 l 149 1154 l 33 1040 l 149 925 l 115 892 l 24 984 l 24 -277 z "},"◌":{"ha":825,"x_min":69,"x_max":756,"o":"m 665 623 q 632 589 665 589 q 597 623 597 589 q 632 656 597 656 q 665 623 665 656 m 564 689 q 532 656 564 656 q 496 689 496 656 q 532 724 496 724 q 564 689 564 724 m 732 522 q 697 488 732 488 q 664 522 664 488 q 699 555 664 555 q 732 522 732 555 m 756 404 q 724 370 756 370 q 688 404 688 370 q 724 438 688 438 q 756 404 756 438 m 446 714 q 412 680 446 680 q 378 714 378 680 q 412 747 378 747 q 446 714 446 747 m 329 689 q 294 656 329 656 q 261 689 261 656 q 294 724 261 724 q 329 689 329 724 m 732 286 q 697 253 732 253 q 664 286 664 253 q 697 321 664 321 q 732 286 732 321 m 229 623 q 195 589 229 589 q 161 621 161 589 q 195 656 161 656 q 229 623 229 656 m 665 184 q 632 151 665 151 q 597 184 597 151 q 632 219 597 219 q 665 184 665 219 m 564 118 q 532 85 564 85 q 496 118 496 85 q 532 153 496 153 q 564 118 564 153 m 161 522 q 129 488 161 488 q 94 522 94 488 q 127 555 94 555 q 161 522 161 555 m 137 404 q 130 379 137 387 q 104 370 122 370 q 69 404 69 370 q 104 438 69 438 q 130 430 122 438 q 137 404 137 421 m 446 96 q 412 61 446 61 q 378 96 378 61 q 412 129 378 129 q 446 96 446 129 m 161 286 q 127 253 161 253 q 94 286 94 253 q 127 321 94 321 q 161 286 161 321 m 329 121 q 294 85 329 85 q 261 118 261 85 q 294 153 261 153 q 329 121 329 153 m 229 184 q 195 151 229 151 q 161 184 161 151 q 195 219 161 219 q 229 184 229 219 z "},"ऄ":{"ha":1115,"x_min":77,"x_max":1139,"o":"m 559 631 q 637 581 606 610 q 685 574 662 576 q 730 571 708 571 q 825 589 781 571 q 911 653 869 608 l 911 1011 l 1139 1011 l 1139 934 l 998 934 l 998 0 l 911 0 l 911 546 l 907 547 q 836 508 873 519 q 762 496 800 496 q 726 499 744 496 q 689 505 707 501 q 700 465 696 486 q 704 420 704 444 q 687 321 704 366 q 637 244 669 277 q 561 194 606 212 q 460 176 515 176 q 337 201 391 176 q 241 264 283 226 q 171 350 200 303 q 122 440 142 397 q 92 518 102 484 q 77 568 81 553 l 146 600 q 173 524 158 563 q 206 446 187 484 q 248 373 224 408 q 302 313 271 339 q 371 272 332 287 q 457 256 409 256 q 532 269 500 256 q 584 304 564 282 q 614 355 604 326 q 623 418 623 385 q 612 485 623 455 q 574 537 600 515 q 505 571 547 559 q 401 583 463 583 q 390 582 397 583 q 374 581 382 582 l 374 663 q 381 662 379 662 q 387 662 384 662 q 478 676 439 662 q 543 714 517 691 q 581 767 568 738 q 594 827 594 797 q 584 876 594 854 q 556 912 574 898 q 514 935 538 927 q 460 943 490 943 q 394 932 431 943 q 302 896 357 922 l 264 966 q 365 1006 317 991 q 461 1021 414 1021 q 547 1006 508 1021 q 614 966 587 992 q 658 904 642 940 q 673 825 673 868 q 645 718 673 766 q 559 634 616 670 l 559 631 m 912 993 q 892 1106 908 1065 q 848 1166 876 1147 q 782 1192 821 1186 q 694 1200 743 1197 q 611 1207 652 1202 q 532 1233 569 1212 q 468 1300 496 1255 q 426 1428 439 1345 l 491 1444 q 524 1354 501 1386 q 576 1307 546 1322 q 644 1289 607 1292 q 719 1284 680 1285 q 781 1279 750 1282 q 839 1266 811 1276 q 891 1237 867 1256 q 934 1187 915 1219 q 965 1107 953 1155 q 982 993 978 1060 l 912 993 z "},"अ":{"ha":1115,"x_min":77,"x_max":1139,"o":"m 559 631 q 637 581 606 610 q 685 574 662 576 q 730 571 708 571 q 825 589 781 571 q 911 653 869 608 l 911 1011 l 1139 1011 l 1139 934 l 998 934 l 998 0 l 911 0 l 911 546 l 907 547 q 836 508 873 519 q 762 496 800 496 q 726 499 744 496 q 689 505 707 501 q 700 465 696 486 q 704 420 704 444 q 687 321 704 366 q 637 244 669 277 q 561 194 606 212 q 460 176 515 176 q 337 201 391 176 q 241 264 283 226 q 171 350 200 303 q 122 440 142 397 q 92 518 102 484 q 77 568 81 553 l 146 600 q 173 524 158 563 q 206 446 187 484 q 248 373 224 408 q 302 313 271 339 q 371 272 332 287 q 457 256 409 256 q 532 269 500 256 q 584 304 564 282 q 614 355 604 326 q 623 418 623 385 q 612 485 623 455 q 574 537 600 515 q 505 571 547 559 q 401 583 463 583 q 390 582 397 583 q 374 581 382 582 l 374 663 q 381 662 379 662 q 387 662 384 662 q 478 676 439 662 q 543 714 517 691 q 581 767 568 738 q 594 827 594 797 q 584 876 594 854 q 556 912 574 898 q 514 935 538 927 q 460 943 490 943 q 394 932 431 943 q 302 896 357 922 l 264 966 q 365 1006 317 991 q 461 1021 414 1021 q 547 1006 508 1021 q 614 966 587 992 q 658 904 642 940 q 673 825 673 868 q 645 718 673 766 q 559 634 616 670 l 559 631 z "},"आ":{"ha":1455,"x_min":77,"x_max":1479,"o":"m 559 631 q 637 581 606 610 q 685 574 662 576 q 730 571 708 571 q 825 589 781 571 q 911 653 869 608 l 911 1011 l 1139 1011 l 1139 934 l 998 934 l 998 0 l 911 0 l 911 546 l 907 547 q 836 508 873 519 q 762 496 800 496 q 726 499 744 496 q 689 505 707 501 q 700 465 696 486 q 704 420 704 444 q 687 321 704 366 q 637 244 669 277 q 561 194 606 212 q 460 176 515 176 q 337 201 391 176 q 241 264 283 226 q 171 350 200 303 q 122 440 142 397 q 92 518 102 484 q 77 568 81 553 l 146 600 q 173 524 158 563 q 206 446 187 484 q 248 373 224 408 q 302 313 271 339 q 371 272 332 287 q 457 256 409 256 q 532 269 500 256 q 584 304 564 282 q 614 355 604 326 q 623 418 623 385 q 612 485 623 455 q 574 537 600 515 q 505 571 547 559 q 401 583 463 583 q 390 582 397 583 q 374 581 382 582 l 374 663 q 381 662 379 662 q 387 662 384 662 q 478 676 439 662 q 543 714 517 691 q 581 767 568 738 q 594 827 594 797 q 584 876 594 854 q 556 912 574 898 q 514 935 538 927 q 460 943 490 943 q 394 932 431 943 q 302 896 357 922 l 264 966 q 365 1006 317 991 q 461 1021 414 1021 q 547 1006 508 1021 q 614 966 587 992 q 658 904 642 940 q 673 825 673 868 q 645 718 673 766 q 559 634 616 670 l 559 631 m 1479 934 l 1337 934 l 1337 0 l 1250 0 l 1250 934 l 1088 934 l 1088 1011 l 1479 1011 l 1479 934 z "},"इ":{"ha":772,"x_min":-24,"x_max":795,"o":"m 441 74 q 552 -30 492 18 q 685 -117 613 -77 l 648 -178 q 564 -126 607 -157 q 481 -63 522 -96 q 406 4 441 -30 q 343 68 370 39 q 242 93 282 76 q 179 130 202 109 q 147 172 156 150 q 138 214 138 195 q 142 242 138 229 q 156 267 146 256 q 179 284 165 278 q 214 291 194 291 q 307 257 259 291 q 403 151 355 222 q 543 212 494 165 q 592 338 592 258 q 585 386 592 367 q 561 417 577 406 q 520 432 545 428 q 458 437 494 437 l 285 437 q 200 455 236 437 q 140 503 164 473 q 104 568 116 532 q 92 640 92 604 q 105 701 92 677 q 140 739 117 725 q 193 759 162 753 q 260 765 224 765 l 507 765 l 507 934 l -24 934 l -24 1011 l 795 1011 l 795 934 l 593 934 l 593 688 l 268 688 q 195 673 215 688 q 174 624 174 659 q 182 581 174 600 q 204 547 190 561 q 239 525 218 532 q 284 517 259 517 l 457 517 q 559 503 518 517 q 626 465 601 490 q 663 406 652 441 q 673 330 673 372 q 660 243 673 283 q 618 171 647 203 q 546 115 590 138 q 440 77 502 91 l 441 74 z "},"ई":{"ha":772,"x_min":-24,"x_max":816,"o":"m 441 74 q 552 -30 492 18 q 685 -117 613 -77 l 648 -178 q 564 -126 607 -157 q 481 -63 522 -96 q 406 4 441 -30 q 343 68 370 39 q 242 93 282 76 q 179 130 202 109 q 147 172 156 150 q 138 214 138 195 q 142 242 138 229 q 156 267 146 256 q 179 284 165 278 q 214 291 194 291 q 307 257 259 291 q 403 151 355 222 q 543 212 494 165 q 592 338 592 258 q 585 386 592 367 q 561 417 577 406 q 520 432 545 428 q 458 437 494 437 l 285 437 q 200 455 236 437 q 140 503 164 473 q 104 568 116 532 q 92 640 92 604 q 105 701 92 677 q 140 739 117 725 q 193 759 162 753 q 260 765 224 765 l 507 765 l 507 934 l -24 934 l -24 1011 l 795 1011 l 795 934 l 593 934 l 593 688 l 268 688 q 195 673 215 688 q 174 624 174 659 q 182 581 174 600 q 204 547 190 561 q 239 525 218 532 q 284 517 259 517 l 457 517 q 559 503 518 517 q 626 465 601 490 q 663 406 652 441 q 673 330 673 372 q 660 243 673 283 q 618 171 647 203 q 546 115 590 138 q 440 77 502 91 l 441 74 m 754 1323 q 697 1376 726 1359 q 631 1392 668 1392 q 577 1382 602 1392 q 536 1352 553 1372 q 510 1303 519 1332 q 500 1238 500 1274 q 523 1119 500 1179 q 588 1004 546 1059 l 502 1004 q 440 1122 461 1062 q 418 1243 418 1183 q 436 1342 418 1299 q 483 1415 454 1385 q 552 1460 513 1445 q 633 1476 591 1476 q 734 1451 688 1476 q 816 1379 779 1426 l 754 1323 z "},"उ":{"ha":975,"x_min":-24,"x_max":999,"o":"m 999 934 l 769 934 q 801 851 789 894 q 812 767 812 808 q 804 700 812 732 q 778 640 795 668 q 736 588 761 611 q 677 548 711 564 l 677 545 q 751 496 718 525 q 807 430 784 467 q 843 352 831 394 q 856 265 856 310 q 839 164 856 214 q 788 76 823 115 q 699 14 753 37 q 570 -10 645 -10 q 426 18 491 -10 q 308 94 361 47 q 216 201 256 141 q 147 326 176 262 q 100 453 118 391 q 74 568 82 516 l 147 592 q 177 470 157 532 q 224 350 196 408 q 287 240 252 292 q 366 150 323 189 q 459 89 409 111 q 565 66 509 66 q 637 77 600 66 q 703 110 673 87 q 752 172 733 134 q 772 267 772 211 q 749 373 772 328 q 689 448 727 418 q 600 493 650 478 q 492 507 549 507 q 464 506 477 507 q 437 504 450 505 l 437 587 q 447 587 439 587 q 469 587 455 587 q 592 602 542 587 q 672 642 642 616 q 716 702 703 668 q 729 774 729 736 q 714 860 729 820 q 675 934 699 899 l -24 934 l -24 1011 l 999 1011 l 999 934 z "},"ऊ":{"ha":1310,"x_min":-24,"x_max":1334,"o":"m 1334 934 l 769 934 q 801 851 789 894 q 812 767 812 808 q 804 700 812 732 q 778 640 795 668 q 736 588 761 611 q 677 548 711 564 l 677 545 q 744 502 714 527 q 797 445 774 477 q 839 491 816 470 q 887 527 861 511 q 941 550 912 542 q 1002 559 970 559 q 1093 539 1052 559 q 1162 485 1133 519 q 1207 406 1191 451 q 1223 311 1223 361 q 1208 217 1223 262 q 1169 134 1194 173 q 1111 61 1144 95 q 1039 0 1077 27 l 989 64 q 1055 122 1027 94 q 1102 179 1084 150 q 1131 241 1121 209 q 1140 312 1140 274 q 1130 382 1140 352 q 1103 433 1120 413 q 1061 464 1086 454 q 1008 475 1037 475 q 952 465 978 475 q 905 440 926 455 q 867 406 884 425 q 837 370 850 388 q 856 265 856 319 q 839 164 856 214 q 788 76 823 115 q 699 14 753 37 q 570 -10 645 -10 q 426 18 491 -10 q 308 94 361 47 q 216 201 256 141 q 147 326 176 262 q 100 453 118 391 q 74 568 82 516 l 147 592 q 177 470 157 532 q 224 350 196 408 q 288 240 252 292 q 367 150 323 189 q 459 89 410 111 q 566 66 509 66 q 637 77 601 66 q 704 110 674 87 q 753 172 734 134 q 772 267 772 211 q 749 373 772 328 q 689 448 727 418 q 600 493 650 478 q 492 507 549 507 q 464 506 477 507 q 437 504 450 505 l 437 587 q 447 587 439 587 q 469 587 455 587 q 592 602 542 587 q 672 642 642 616 q 716 702 703 668 q 729 774 729 736 q 714 860 729 820 q 675 934 699 899 l -24 934 l -24 1011 l 1334 1011 l 1334 934 z "},"ऋ":{"ha":1236,"x_min":-24,"x_max":1260,"o":"m 85 736 q 130 740 103 738 q 184 744 157 743 q 234 747 211 746 q 268 749 257 749 q 335 735 301 749 q 403 700 368 722 q 473 649 437 678 q 547 587 509 620 l 549 589 l 549 934 l -24 934 l -24 1011 l 1260 1011 l 1260 934 l 635 934 l 635 533 q 694 541 666 534 q 747 558 723 548 q 791 581 772 568 q 820 604 810 593 q 801 696 801 646 q 807 747 801 722 q 825 790 813 771 q 857 821 838 810 q 902 833 876 833 q 941 824 925 833 q 968 800 958 815 q 984 766 979 785 q 989 724 989 746 q 985 684 989 705 q 974 645 981 663 q 956 609 966 626 q 932 581 945 593 q 1030 509 991 545 q 1093 436 1069 473 q 1126 364 1116 400 q 1136 294 1136 328 q 1110 185 1136 233 q 1039 100 1084 138 q 933 36 994 63 q 805 -9 873 9 l 782 71 q 813 81 790 73 q 867 101 837 88 q 930 131 897 113 q 990 173 963 149 q 1036 228 1018 197 q 1053 295 1053 258 q 1036 367 1053 331 q 992 434 1019 403 q 932 491 966 466 q 864 531 898 516 q 814 501 839 515 q 761 478 789 488 q 703 462 734 468 q 635 454 672 456 l 635 -1 l 549 -1 l 549 414 l 171 109 l 112 176 l 544 503 q 478 557 511 529 q 411 608 445 585 q 342 646 377 631 q 272 661 307 661 q 239 660 261 661 q 189 656 216 659 q 134 652 162 654 q 85 647 106 649 l 85 736 z "},"ऌ":{"ha":1008,"x_min":-24,"x_max":1031,"o":"m 503 636 q 545 700 520 674 q 605 737 570 726 l 605 934 l -24 934 l -24 1011 l 1031 1011 l 1031 934 l 691 934 l 691 747 q 779 723 742 743 q 841 673 817 703 q 877 606 865 643 q 889 530 889 568 q 880 468 889 496 q 855 415 870 439 q 821 370 840 391 q 783 330 802 349 q 749 295 765 312 q 721 261 733 279 q 701 224 708 243 q 693 184 693 205 q 700 147 693 162 q 719 122 707 132 q 746 108 731 113 q 777 103 762 103 q 824 112 800 103 q 870 135 848 121 q 911 166 892 149 q 945 199 931 183 l 999 140 q 955 98 979 119 q 906 62 932 78 q 850 37 880 47 q 787 27 821 27 q 722 38 753 27 q 666 68 690 48 q 626 119 641 89 q 611 190 611 150 q 620 245 611 220 q 642 290 628 269 q 674 330 656 311 q 711 366 692 348 q 747 401 729 383 q 779 441 765 420 q 801 487 793 462 q 810 542 810 511 q 802 592 810 569 q 779 633 794 616 q 739 659 763 650 q 684 669 715 669 q 620 655 646 669 q 580 617 595 642 q 559 560 565 593 q 553 486 553 526 q 553 463 553 475 q 555 439 554 450 l 472 439 q 462 516 470 476 q 438 589 454 556 q 394 643 421 622 q 328 664 368 664 q 276 653 301 664 q 230 620 250 642 q 198 562 210 597 q 186 478 186 527 q 199 385 186 429 q 233 302 212 341 q 282 229 254 263 q 341 165 310 195 q 404 109 372 135 q 465 59 436 82 l 419 -7 q 367 32 399 7 q 300 90 336 56 q 230 166 265 123 q 166 259 194 209 q 120 365 138 309 q 102 483 102 421 q 119 590 102 542 q 165 673 136 639 q 236 727 195 708 q 326 746 277 746 q 391 735 362 746 q 440 709 419 725 q 476 673 461 692 q 499 636 490 654 l 503 636 z "},"ऍ":{"ha":764,"x_min":-24,"x_max":787,"o":"m 562 934 l 218 934 l 218 426 q 232 342 218 376 q 276 282 246 309 q 351 232 305 256 q 460 176 396 208 q 568 121 519 147 q 650 66 616 94 q 702 5 684 37 q 720 -70 720 -28 q 716 -98 720 -83 q 706 -129 713 -113 q 688 -161 699 -145 q 665 -191 677 -177 l 600 -142 q 623 -107 612 -126 q 633 -66 633 -88 q 617 -17 633 -39 q 573 25 602 5 q 504 66 544 45 q 414 111 463 87 q 330 152 368 133 q 259 192 291 172 q 204 235 228 212 q 164 286 180 258 q 140 351 148 315 q 132 435 132 388 l 132 934 l -24 934 l -24 1011 l 787 1011 l 787 934 l 648 934 l 648 459 q 634 380 648 410 q 598 334 620 350 q 553 312 577 317 q 509 307 529 307 q 463 312 485 307 q 419 328 440 318 l 419 411 q 455 396 433 402 q 498 389 476 389 q 531 397 518 389 q 550 418 543 404 q 559 452 557 432 q 562 498 562 473 l 562 934 m 191 1423 q 216 1332 201 1373 q 254 1261 231 1291 q 313 1215 278 1232 q 396 1199 347 1199 q 455 1206 424 1199 q 515 1238 486 1214 q 566 1305 543 1261 q 600 1423 588 1350 l 684 1404 q 644 1271 671 1326 q 578 1181 616 1216 q 493 1130 540 1146 q 397 1114 447 1114 q 301 1131 346 1114 q 219 1182 256 1147 q 154 1272 182 1217 q 110 1404 126 1327 l 191 1423 z "},"ऎ":{"ha":764,"x_min":-24,"x_max":787,"o":"m 562 934 l 218 934 l 218 426 q 232 342 218 376 q 276 282 246 309 q 351 232 305 256 q 460 176 396 208 q 568 121 519 147 q 650 66 616 94 q 702 5 684 37 q 720 -70 720 -28 q 716 -98 720 -83 q 706 -129 713 -113 q 688 -161 699 -145 q 665 -191 677 -177 l 600 -142 q 623 -107 612 -126 q 633 -66 633 -88 q 617 -17 633 -39 q 573 25 602 5 q 504 66 544 45 q 414 111 463 87 q 330 152 368 133 q 259 192 291 172 q 204 235 228 212 q 164 286 180 258 q 140 351 148 315 q 132 435 132 388 l 132 934 l -24 934 l -24 1011 l 787 1011 l 787 934 l 648 934 l 648 459 q 634 380 648 410 q 598 334 620 350 q 553 312 577 317 q 509 307 529 307 q 463 312 485 307 q 419 328 440 318 l 419 411 q 455 396 433 402 q 498 389 476 389 q 531 397 518 389 q 550 418 543 404 q 559 452 557 432 q 562 498 562 473 l 562 934 m 569 993 q 549 1106 565 1065 q 505 1166 532 1147 q 439 1192 477 1186 q 351 1200 400 1197 q 268 1207 309 1202 q 189 1233 226 1212 q 124 1300 153 1255 q 83 1428 96 1345 l 148 1444 q 180 1354 158 1386 q 233 1307 203 1322 q 300 1289 264 1292 q 376 1284 337 1285 q 437 1279 407 1282 q 496 1266 468 1276 q 548 1237 524 1256 q 591 1187 572 1219 q 622 1107 610 1155 q 639 993 635 1060 l 569 993 z "},"ए":{"ha":764,"x_min":-24,"x_max":787,"o":"m 562 934 l 218 934 l 218 426 q 232 342 218 376 q 276 282 246 309 q 351 232 305 256 q 460 176 396 208 q 568 121 519 147 q 650 66 616 94 q 702 5 684 37 q 720 -70 720 -28 q 716 -98 720 -83 q 706 -129 713 -113 q 688 -161 699 -145 q 665 -191 677 -177 l 600 -142 q 623 -107 612 -126 q 633 -66 633 -88 q 617 -17 633 -39 q 573 25 602 5 q 504 66 544 45 q 414 111 463 87 q 330 152 368 133 q 259 192 291 172 q 204 235 228 212 q 164 286 180 258 q 140 351 148 315 q 132 435 132 388 l 132 934 l -24 934 l -24 1011 l 787 1011 l 787 934 l 648 934 l 648 459 q 634 380 648 410 q 598 334 620 350 q 553 312 577 317 q 509 307 529 307 q 463 312 485 307 q 419 328 440 318 l 419 411 q 455 396 433 402 q 498 389 476 389 q 531 397 518 389 q 550 418 543 404 q 559 452 557 432 q 562 498 562 473 l 562 934 z "},"ऐ":{"ha":764,"x_min":-24,"x_max":787,"o":"m 562 934 l 218 934 l 218 426 q 232 342 218 376 q 276 282 246 309 q 351 232 305 256 q 460 176 396 208 q 568 121 519 147 q 650 66 616 94 q 702 5 684 37 q 720 -70 720 -28 q 716 -98 720 -83 q 706 -129 713 -113 q 688 -161 699 -145 q 665 -191 677 -177 l 600 -142 q 623 -107 612 -126 q 633 -66 633 -88 q 617 -17 633 -39 q 573 25 602 5 q 504 66 544 45 q 414 111 463 87 q 330 152 368 133 q 259 192 291 172 q 204 235 228 212 q 164 286 180 258 q 140 351 148 315 q 132 435 132 388 l 132 934 l -24 934 l -24 1011 l 787 1011 l 787 934 l 648 934 l 648 459 q 634 380 648 410 q 598 334 620 350 q 553 312 577 317 q 509 307 529 307 q 463 312 485 307 q 419 328 440 318 l 419 411 q 455 396 433 402 q 498 389 476 389 q 531 397 518 389 q 550 418 543 404 q 559 452 557 432 q 562 498 562 473 l 562 934 m 568 977 q 490 1116 524 1058 q 431 1215 457 1175 q 382 1278 404 1255 q 339 1315 360 1302 q 294 1332 317 1328 q 243 1336 271 1336 l 109 1336 l 109 1428 l 241 1428 q 307 1421 277 1428 q 365 1395 337 1414 q 421 1345 393 1377 q 482 1264 450 1313 q 554 1146 515 1215 q 643 985 593 1077 l 568 977 z "},"ऑ":{"ha":1455,"x_min":77,"x_max":1580,"o":"m 559 631 q 637 581 606 610 q 685 574 662 576 q 730 571 708 571 q 825 589 781 571 q 911 653 869 608 l 911 1011 l 1139 1011 l 1139 934 l 998 934 l 998 0 l 911 0 l 911 546 l 907 547 q 836 508 873 519 q 762 496 800 496 q 726 499 744 496 q 689 505 707 501 q 700 465 696 486 q 704 420 704 444 q 687 321 704 366 q 637 244 669 277 q 561 194 606 212 q 460 176 515 176 q 337 201 391 176 q 241 264 283 226 q 171 350 200 303 q 122 440 142 397 q 92 518 102 484 q 77 568 81 553 l 146 600 q 173 524 158 563 q 206 446 187 484 q 248 373 224 408 q 302 313 271 339 q 371 272 332 287 q 457 256 409 256 q 532 269 500 256 q 584 304 564 282 q 614 355 604 326 q 623 418 623 385 q 612 485 623 455 q 574 537 600 515 q 505 571 547 559 q 401 583 463 583 q 390 582 397 583 q 374 581 382 582 l 374 663 q 381 662 379 662 q 387 662 384 662 q 478 676 439 662 q 543 714 517 691 q 581 767 568 738 q 594 827 594 797 q 584 876 594 854 q 556 912 574 898 q 514 935 538 927 q 460 943 490 943 q 394 932 431 943 q 302 896 357 922 l 264 966 q 365 1006 317 991 q 461 1021 414 1021 q 547 1006 508 1021 q 614 966 587 992 q 658 904 642 940 q 673 825 673 868 q 645 718 673 766 q 559 634 616 670 l 559 631 m 1479 934 l 1337 934 l 1337 0 l 1250 0 l 1250 934 l 1088 934 l 1088 1011 l 1479 1011 l 1479 934 m 1088 1423 q 1112 1332 1097 1373 q 1151 1261 1127 1291 q 1209 1215 1175 1232 q 1293 1199 1244 1199 q 1352 1206 1320 1199 q 1411 1238 1383 1214 q 1462 1305 1440 1261 q 1496 1423 1485 1350 l 1580 1404 q 1540 1271 1568 1326 q 1475 1181 1513 1216 q 1390 1130 1436 1146 q 1293 1114 1343 1114 q 1198 1131 1242 1114 q 1116 1182 1153 1147 q 1051 1272 1079 1217 q 1006 1404 1023 1327 l 1088 1423 z "},"ऒ":{"ha":1455,"x_min":77,"x_max":1479,"o":"m 559 631 q 637 581 606 610 q 685 574 662 576 q 730 571 708 571 q 825 589 781 571 q 911 653 869 608 l 911 1011 l 1139 1011 l 1139 934 l 998 934 l 998 0 l 911 0 l 911 546 l 907 547 q 836 508 873 519 q 762 496 800 496 q 726 499 744 496 q 689 505 707 501 q 700 465 696 486 q 704 420 704 444 q 687 321 704 366 q 637 244 669 277 q 561 194 606 212 q 460 176 515 176 q 337 201 391 176 q 241 264 283 226 q 171 350 200 303 q 122 440 142 397 q 92 518 102 484 q 77 568 81 553 l 146 600 q 173 524 158 563 q 206 446 187 484 q 248 373 224 408 q 302 313 271 339 q 371 272 332 287 q 457 256 409 256 q 532 269 500 256 q 584 304 564 282 q 614 355 604 326 q 623 418 623 385 q 612 485 623 455 q 574 537 600 515 q 505 571 547 559 q 401 583 463 583 q 390 582 397 583 q 374 581 382 582 l 374 663 q 381 662 379 662 q 387 662 384 662 q 478 676 439 662 q 543 714 517 691 q 581 767 568 738 q 594 827 594 797 q 584 876 594 854 q 556 912 574 898 q 514 935 538 927 q 460 943 490 943 q 394 932 431 943 q 302 896 357 922 l 264 966 q 365 1006 317 991 q 461 1021 414 1021 q 547 1006 508 1021 q 614 966 587 992 q 658 904 642 940 q 673 825 673 868 q 645 718 673 766 q 559 634 616 670 l 559 631 m 1479 934 l 1337 934 l 1337 0 l 1250 0 l 1250 934 l 1088 934 l 1088 1011 l 1479 1011 l 1479 934 m 1261 993 q 1240 1106 1257 1065 q 1197 1166 1224 1147 q 1131 1192 1169 1186 q 1043 1200 1092 1197 q 959 1207 1001 1202 q 881 1233 918 1212 q 816 1300 844 1255 q 774 1428 788 1345 l 840 1444 q 872 1354 850 1386 q 925 1307 895 1322 q 992 1289 956 1292 q 1067 1284 1029 1285 q 1129 1279 1099 1282 q 1187 1266 1160 1276 q 1239 1237 1215 1256 q 1282 1187 1263 1219 q 1314 1107 1301 1155 q 1331 993 1326 1060 l 1261 993 z "},"ओ":{"ha":1455,"x_min":77,"x_max":1479,"o":"m 559 631 q 637 581 606 610 q 685 574 662 576 q 730 571 708 571 q 825 589 781 571 q 911 653 869 608 l 911 1011 l 1139 1011 l 1139 934 l 998 934 l 998 0 l 911 0 l 911 546 l 907 547 q 836 508 873 519 q 762 496 800 496 q 726 499 744 496 q 689 505 707 501 q 700 465 696 486 q 704 420 704 444 q 687 321 704 366 q 637 244 669 277 q 561 194 606 212 q 460 176 515 176 q 337 201 391 176 q 241 264 283 226 q 171 350 200 303 q 122 440 142 397 q 92 518 102 484 q 77 568 81 553 l 146 600 q 173 524 158 563 q 206 446 187 484 q 248 373 224 408 q 302 313 271 339 q 371 272 332 287 q 457 256 409 256 q 532 269 500 256 q 584 304 564 282 q 614 355 604 326 q 623 418 623 385 q 612 485 623 455 q 574 537 600 515 q 505 571 547 559 q 401 583 463 583 q 390 582 397 583 q 374 581 382 582 l 374 663 q 381 662 379 662 q 387 662 384 662 q 478 676 439 662 q 543 714 517 691 q 581 767 568 738 q 594 827 594 797 q 584 876 594 854 q 556 912 574 898 q 514 935 538 927 q 460 943 490 943 q 394 932 431 943 q 302 896 357 922 l 264 966 q 365 1006 317 991 q 461 1021 414 1021 q 547 1006 508 1021 q 614 966 587 992 q 658 904 642 940 q 673 825 673 868 q 645 718 673 766 q 559 634 616 670 l 559 631 m 1479 934 l 1337 934 l 1337 0 l 1250 0 l 1250 934 l 1088 934 l 1088 1011 l 1479 1011 l 1479 934 m 1259 977 q 1182 1116 1215 1058 q 1122 1215 1149 1175 q 1074 1278 1096 1255 q 1030 1315 1052 1302 q 986 1332 1009 1328 q 935 1336 963 1336 l 801 1336 l 801 1428 l 932 1428 q 999 1421 968 1428 q 1057 1395 1029 1414 q 1113 1345 1085 1377 q 1174 1264 1141 1313 q 1245 1146 1206 1215 q 1335 985 1284 1077 l 1259 977 z "},"औ":{"ha":1455,"x_min":77,"x_max":1479,"o":"m 559 631 q 637 581 606 610 q 685 574 662 576 q 730 571 708 571 q 825 589 781 571 q 911 653 869 608 l 911 1011 l 1139 1011 l 1139 934 l 998 934 l 998 0 l 911 0 l 911 546 l 907 547 q 836 508 873 519 q 762 496 800 496 q 726 499 744 496 q 689 505 707 501 q 700 465 696 486 q 704 420 704 444 q 687 321 704 366 q 637 244 669 277 q 561 194 606 212 q 460 176 515 176 q 337 201 391 176 q 241 264 283 226 q 171 350 200 303 q 122 440 142 397 q 92 518 102 484 q 77 568 81 553 l 146 600 q 173 524 158 563 q 206 446 187 484 q 248 373 224 408 q 302 313 271 339 q 371 272 332 287 q 457 256 409 256 q 532 269 500 256 q 584 304 564 282 q 614 355 604 326 q 623 418 623 385 q 612 485 623 455 q 574 537 600 515 q 505 571 547 559 q 401 583 463 583 q 390 582 397 583 q 374 581 382 582 l 374 663 q 381 662 379 662 q 387 662 384 662 q 478 676 439 662 q 543 714 517 691 q 581 767 568 738 q 594 827 594 797 q 584 876 594 854 q 556 912 574 898 q 514 935 538 927 q 460 943 490 943 q 394 932 431 943 q 302 896 357 922 l 264 966 q 365 1006 317 991 q 461 1021 414 1021 q 547 1006 508 1021 q 614 966 587 992 q 658 904 642 940 q 673 825 673 868 q 645 718 673 766 q 559 634 616 670 l 559 631 m 1479 934 l 1337 934 l 1337 0 l 1250 0 l 1250 934 l 1088 934 l 1088 1011 l 1479 1011 l 1479 934 m 1263 994 q 1150 1089 1198 1050 q 1068 1153 1103 1128 q 1008 1192 1033 1178 q 964 1212 983 1205 q 930 1219 945 1218 q 897 1220 914 1220 l 757 1220 l 757 1303 l 884 1303 q 957 1292 924 1303 q 1022 1259 989 1281 q 1095 1205 1056 1238 q 1187 1131 1134 1173 l 1191 1133 q 1127 1236 1155 1192 q 1076 1311 1099 1280 q 1035 1362 1053 1342 q 998 1394 1016 1382 q 963 1410 981 1406 q 926 1415 946 1415 l 790 1415 l 790 1499 l 920 1499 q 979 1492 953 1499 q 1031 1465 1006 1485 q 1084 1411 1057 1446 q 1145 1320 1111 1376 q 1225 1183 1180 1263 q 1330 994 1270 1103 l 1263 994 z "},"ॠ":{"ha":1253,"x_min":-24,"x_max":1276,"o":"m 632 545 q 675 529 655 533 q 717 526 695 526 q 747 528 731 526 q 779 536 762 530 q 815 552 796 542 q 854 580 833 563 q 845 617 848 597 q 842 656 842 636 q 849 712 842 685 q 869 761 856 739 q 903 795 883 782 q 951 808 924 808 q 987 800 972 808 q 1011 778 1002 791 q 1025 745 1021 764 q 1030 705 1030 726 q 1026 661 1030 684 q 1013 618 1021 639 q 992 578 1004 597 q 966 546 981 559 l 1076 391 q 974 310 1015 344 q 907 247 932 275 q 871 193 882 218 q 860 138 860 168 q 869 86 860 111 q 896 43 878 62 q 938 14 913 25 q 996 3 964 3 q 1099 32 1047 3 q 1206 113 1150 60 l 1261 53 q 1194 -5 1225 19 q 1131 -44 1162 -29 q 1070 -67 1100 -60 q 1008 -74 1040 -74 q 917 -59 960 -74 q 844 -15 875 -43 q 795 53 813 13 q 777 142 777 92 q 792 224 777 187 q 832 292 807 260 q 891 352 858 323 q 961 408 924 380 l 894 504 q 803 459 844 471 q 728 447 762 447 q 682 451 707 447 q 632 465 656 454 l 632 -1 l 546 -1 l 546 421 l 168 115 l 109 183 l 541 510 q 475 564 508 536 q 408 615 441 591 q 339 653 374 638 q 269 668 304 668 q 235 667 258 668 q 186 663 213 665 q 131 659 159 661 q 81 654 102 656 l 81 743 q 126 747 100 745 q 180 751 153 749 q 231 754 208 753 q 264 755 254 755 q 331 742 298 755 q 399 707 365 729 q 470 656 434 685 q 543 594 505 627 l 546 595 l 546 934 l -24 934 l -24 1011 l 1276 1011 l 1276 934 l 632 934 l 632 545 z "},"ॡ":{"ha":1011,"x_min":-24,"x_max":1035,"o":"m 419 -7 q 367 32 398 7 q 300 91 335 57 q 229 167 264 125 q 165 259 193 210 q 119 365 137 309 q 102 483 102 421 q 119 590 102 542 q 165 673 136 639 q 236 727 195 708 q 326 746 277 746 q 390 736 361 746 q 439 710 418 726 q 475 674 460 694 q 499 636 490 654 l 503 636 q 545 700 519 673 q 605 737 570 726 l 605 934 l -24 934 l -24 1011 l 1035 1011 l 1035 934 l 691 934 l 691 747 q 782 722 744 743 q 843 671 819 702 q 878 604 867 641 q 889 531 889 567 q 879 465 889 494 q 853 411 869 435 q 817 364 837 386 q 775 322 796 342 q 744 290 758 306 q 718 259 729 275 q 701 227 707 243 q 694 192 694 210 q 703 155 694 170 q 727 131 712 140 q 763 116 743 121 q 807 112 783 112 q 858 116 831 112 q 906 125 884 120 l 924 45 q 865 37 895 43 q 809 19 834 31 q 768 -12 785 7 q 752 -62 752 -32 q 761 -100 752 -85 q 786 -124 770 -115 q 820 -137 801 -133 q 861 -140 840 -140 q 913 -135 887 -140 q 957 -122 939 -130 l 983 -199 q 927 -217 956 -211 q 869 -222 898 -222 q 795 -212 831 -222 q 732 -180 760 -201 q 688 -129 705 -159 q 672 -57 672 -98 q 684 5 672 -22 q 713 53 695 33 l 713 55 q 638 118 662 83 q 614 201 614 153 q 622 250 614 229 q 641 290 629 271 q 670 327 653 309 q 707 363 687 344 q 748 404 729 384 q 781 445 767 423 q 802 490 794 466 q 810 543 810 513 q 800 597 810 574 q 774 637 791 621 q 733 661 757 652 q 682 669 710 669 q 622 656 646 669 q 582 620 597 644 q 559 563 566 597 q 553 487 553 530 q 553 463 553 475 q 555 439 554 451 l 472 439 q 461 518 469 478 q 437 591 453 558 q 394 644 420 623 q 328 664 368 664 q 276 653 301 664 q 230 620 250 642 q 198 562 210 597 q 186 478 186 527 q 199 385 186 429 q 233 302 212 341 q 282 229 254 263 q 341 164 311 195 q 404 108 372 134 q 465 59 436 81 l 419 -7 z "},"क":{"ha":1164,"x_min":-24,"x_max":1188,"o":"m 1188 934 l 642 934 l 642 625 l 646 623 q 742 711 687 683 q 854 739 796 739 q 947 719 905 739 q 1018 666 988 699 q 1063 589 1047 633 q 1079 496 1079 545 q 1065 407 1079 452 q 1023 318 1052 361 q 948 237 994 275 q 839 169 903 199 l 795 242 q 886 299 848 267 q 948 367 924 332 q 984 438 972 402 q 996 509 996 475 q 986 567 996 540 q 960 614 977 594 q 919 646 943 634 q 864 657 895 657 q 801 645 833 657 q 739 608 769 633 q 683 547 709 584 q 642 463 658 511 l 642 0 l 555 0 l 555 279 l 551 280 q 464 215 511 238 q 355 191 416 191 q 240 217 290 191 q 157 283 191 242 q 106 375 123 324 q 90 477 90 426 q 105 573 90 526 q 153 657 121 620 q 229 716 184 694 q 332 739 274 739 q 453 712 397 739 q 551 644 509 686 l 555 644 l 555 934 l -24 934 l -24 1011 l 1188 1011 l 1188 934 m 555 544 q 457 627 511 596 q 344 657 404 657 q 269 641 300 657 q 215 598 237 625 q 183 538 194 572 q 173 469 173 504 q 184 396 173 432 q 218 332 196 360 q 271 286 239 303 q 342 269 302 269 q 413 281 375 269 q 482 322 450 294 q 534 392 513 349 q 555 494 555 435 l 555 544 z "},"ख":{"ha":1131,"x_min":-24,"x_max":1155,"o":"m 839 25 q 814 16 829 21 q 778 6 799 10 q 731 -2 758 1 q 672 -5 705 -5 q 477 34 562 -5 q 322 147 393 74 q 190 324 252 220 q 63 555 128 427 l 132 593 q 182 525 157 545 q 237 506 206 506 q 314 546 286 506 q 342 654 342 586 q 336 718 342 684 q 318 789 330 753 q 289 862 307 825 q 246 934 271 899 l -24 934 l -24 1011 l 1155 1011 l 1155 934 l 1013 934 l 1013 0 l 926 0 l 926 353 l 923 353 q 841 295 886 314 q 745 277 795 277 q 640 299 685 277 q 564 358 595 321 q 518 442 534 395 q 503 538 503 489 q 518 629 503 585 q 561 707 532 673 q 631 763 589 742 q 728 783 673 783 q 784 777 758 783 q 834 758 810 770 q 879 729 857 746 q 923 691 901 712 l 926 692 l 926 934 l 338 934 q 406 786 385 858 q 428 652 428 713 q 414 559 428 602 q 375 486 401 517 q 314 436 350 454 q 233 418 277 418 l 231 416 q 334 253 281 317 q 441 151 387 189 q 549 99 494 114 q 656 84 603 84 q 713 88 687 84 q 763 97 740 92 q 805 109 786 102 q 839 121 824 115 l 839 25 m 926 579 q 894 619 912 597 q 852 659 876 640 q 801 690 829 677 q 738 702 772 702 q 673 687 701 702 q 626 649 645 673 q 596 595 606 625 q 587 532 587 564 q 596 469 587 500 q 626 414 606 438 q 673 374 645 389 q 739 359 702 359 q 798 369 766 359 q 859 402 831 379 q 907 464 888 426 q 926 558 926 502 l 926 579 z "},"ग":{"ha":842,"x_min":-24,"x_max":866,"o":"m 866 934 l 724 934 l 724 0 l 637 0 l 637 934 l 305 934 l 305 407 q 303 379 305 393 q 297 355 302 366 q 282 337 292 344 q 258 331 273 331 q 223 341 243 331 q 182 367 203 351 q 141 404 161 383 q 105 447 121 425 q 79 491 89 469 q 69 531 69 513 q 78 560 69 549 q 101 575 86 570 q 135 582 115 581 q 178 583 155 583 l 218 583 l 218 934 l -24 934 l -24 1011 l 866 1011 l 866 934 z "},"घ":{"ha":873,"x_min":-24,"x_max":897,"o":"m 897 934 l 754 934 l 754 0 l 667 0 l 667 297 l 665 298 q 610 240 640 264 q 550 200 581 216 q 486 177 519 184 q 421 170 454 170 q 327 186 372 170 q 247 232 281 202 q 193 304 213 262 q 172 397 172 346 q 193 490 172 446 q 258 575 213 534 l 258 578 q 182 612 215 590 q 128 663 150 635 q 96 725 106 692 q 85 795 85 759 q 95 866 85 831 q 127 934 106 901 l -24 934 l -24 1011 l 897 1011 l 897 934 m 227 934 q 170 792 170 866 q 182 729 170 757 q 216 683 194 702 q 267 654 237 664 q 334 644 297 644 q 435 661 380 644 l 452 575 q 422 570 441 574 q 382 557 404 566 q 338 535 360 549 q 297 502 315 522 q 268 454 279 481 q 256 392 256 427 q 268 331 256 358 q 300 286 279 304 q 349 258 321 268 q 411 248 378 248 q 502 268 461 248 q 575 317 543 288 q 630 379 608 346 q 667 439 653 412 l 667 934 l 227 934 z "},"ङ":{"ha":1139,"x_min":-24,"x_max":1163,"o":"m 915 572 q 936 631 915 609 q 989 654 957 654 q 1020 648 1006 654 q 1045 630 1034 642 q 1062 603 1056 619 q 1068 568 1068 587 q 1047 510 1068 532 q 994 488 1026 488 q 937 511 959 488 q 915 572 915 534 m 1163 934 l 804 934 l 804 675 l 462 675 q 414 671 433 675 q 384 659 395 667 q 367 637 372 650 q 362 605 362 624 q 366 569 362 588 q 382 533 370 549 q 414 505 394 516 q 467 494 435 494 l 658 494 q 761 478 719 494 q 830 435 804 463 q 868 370 857 408 q 880 290 880 332 q 860 177 880 231 q 801 81 840 123 q 705 15 762 39 q 573 -10 648 -10 q 415 21 490 -10 q 276 108 339 52 q 164 241 212 164 q 89 410 116 318 l 161 437 q 225 297 186 364 q 316 180 264 231 q 432 98 368 129 q 568 68 495 68 q 661 84 618 68 q 733 129 703 100 q 780 198 764 157 q 797 290 797 239 q 788 350 797 326 q 761 388 779 374 q 715 408 743 402 q 650 414 688 414 l 478 414 q 389 433 426 414 q 327 482 351 452 q 291 549 302 512 q 279 621 279 586 q 293 686 279 660 q 329 727 306 711 q 385 748 353 742 q 454 755 417 755 l 718 755 l 718 934 l -24 934 l -24 1011 l 1163 1011 l 1163 934 z "},"च":{"ha":916,"x_min":-24,"x_max":940,"o":"m 940 934 l 798 934 l 798 0 l 711 0 l 711 326 l 708 328 q 628 264 668 287 q 554 229 589 241 q 492 214 519 217 q 448 211 465 211 q 342 230 387 211 q 266 280 296 249 q 221 351 236 311 q 205 432 205 391 q 228 531 205 483 q 294 613 250 578 l 294 616 l 70 616 l 70 694 l 617 694 l 617 616 l 549 616 q 432 599 481 616 q 351 555 382 582 q 303 494 319 528 q 288 426 288 460 q 298 374 288 399 q 326 330 307 349 q 373 299 345 311 q 440 288 401 288 q 526 304 486 288 q 602 344 567 319 q 664 399 636 369 q 711 460 691 430 l 711 934 l -24 934 l -24 1011 l 940 1011 l 940 934 z "},"छ":{"ha":1069,"x_min":-24,"x_max":1093,"o":"m 674 934 l -24 934 l -24 1011 l 1093 1011 l 1093 934 l 763 934 l 763 773 q 833 745 800 766 q 891 690 866 725 q 931 607 916 656 q 946 492 946 557 q 930 360 946 424 q 883 240 913 296 q 810 137 852 184 q 714 58 767 91 q 601 6 662 24 q 472 -13 539 -13 q 346 7 399 -13 q 258 60 293 28 q 206 134 223 93 q 189 217 189 175 q 202 289 189 254 q 237 355 215 324 l 236 358 q 155 406 184 377 q 111 465 125 435 q 93 521 96 495 q 90 560 90 547 q 106 640 90 606 q 150 698 123 675 q 213 733 178 722 q 287 745 249 745 q 350 737 318 745 q 410 713 381 729 l 410 635 q 355 655 386 647 q 295 663 324 663 q 250 657 271 663 q 211 638 228 651 q 184 605 195 625 q 174 554 174 584 q 185 497 174 522 q 214 456 197 473 q 253 430 232 439 q 295 420 275 420 q 327 424 309 420 q 364 434 345 428 q 399 445 382 439 q 429 455 416 451 l 454 374 q 373 348 407 365 q 317 310 339 332 q 285 263 295 288 q 275 210 275 237 q 287 155 275 180 q 322 110 298 129 q 382 80 347 91 q 466 69 418 69 q 589 90 531 69 q 695 146 647 110 q 778 231 743 182 q 835 336 814 279 q 823 335 831 336 q 805 335 814 335 q 685 357 736 335 q 599 413 633 378 q 548 492 565 448 q 531 581 531 536 q 540 646 531 614 q 568 703 549 677 q 613 747 586 728 q 674 773 640 766 l 674 934 m 861 482 q 851 568 861 528 q 824 635 842 607 q 781 680 806 664 q 726 696 755 696 q 681 686 701 696 q 647 658 661 675 q 625 617 633 640 q 616 570 616 594 q 627 514 616 542 q 662 464 638 486 q 723 428 686 441 q 812 414 760 414 q 833 414 822 414 q 856 416 844 414 q 860 449 859 433 q 861 482 861 465 z "},"ज":{"ha":1019,"x_min":-24,"x_max":1042,"o":"m 1042 934 l 900 934 l 900 0 l 813 0 l 813 612 l 555 612 l 555 608 q 648 478 616 543 q 679 348 679 414 q 666 271 679 307 q 628 207 654 234 q 565 164 603 180 q 477 148 528 148 q 374 168 421 148 q 289 221 328 188 q 221 299 251 255 q 167 391 191 343 q 126 489 143 439 q 96 582 109 538 q 76 660 83 625 q 64 715 68 695 l 138 734 q 195 519 161 613 q 271 359 229 425 q 363 260 313 294 q 471 226 414 226 q 528 237 504 226 q 567 266 551 248 q 589 308 582 284 q 596 359 596 332 q 585 429 596 393 q 551 499 573 465 q 496 565 529 533 q 422 622 464 596 l 422 689 l 813 689 l 813 934 l -24 934 l -24 1011 l 1042 1011 l 1042 934 z "},"झ":{"ha":1038,"x_min":-24,"x_max":1061,"o":"m 441 74 q 552 -27 492 21 q 685 -117 612 -76 l 648 -178 q 565 -127 607 -157 q 483 -64 523 -97 q 408 3 444 -31 q 343 68 372 37 q 245 92 285 75 q 182 129 205 108 q 148 172 158 149 q 138 214 138 195 q 142 243 138 229 q 156 268 146 257 q 180 284 165 278 q 216 291 195 291 q 305 258 257 291 q 403 151 353 224 q 544 213 496 165 q 592 342 592 260 q 585 389 592 370 q 563 417 578 407 q 524 432 547 428 q 469 435 501 435 l 288 435 q 201 454 238 435 q 140 502 165 473 q 104 568 116 532 q 92 640 92 604 q 105 701 92 677 q 140 739 117 725 q 193 759 162 753 q 260 765 224 765 l 499 765 l 499 934 l -24 934 l -24 1011 l 1061 1011 l 1061 934 l 919 934 l 919 0 l 832 0 l 832 434 l 829 435 q 763 402 795 411 q 692 394 730 394 q 665 396 678 394 q 671 365 669 381 q 673 332 673 349 q 618 171 673 236 q 441 77 563 106 l 441 74 m 586 688 l 268 688 q 223 684 241 688 q 195 672 205 680 q 179 652 184 665 q 174 623 174 640 q 179 588 174 606 q 197 553 184 569 q 234 526 210 537 q 294 515 257 515 l 463 515 q 562 502 522 515 q 627 464 602 489 l 640 464 q 687 467 663 464 q 735 477 711 469 q 784 499 760 485 q 832 536 808 513 l 832 934 l 586 934 l 586 688 z "},"ञ":{"ha":1065,"x_min":-24,"x_max":1089,"o":"m 272 631 q 371 688 319 669 q 473 707 422 707 q 558 692 518 707 q 629 648 599 677 q 678 577 660 618 q 697 484 696 536 q 747 490 724 484 q 792 505 771 496 q 830 525 812 514 q 860 547 847 536 l 860 934 l -24 934 l -24 1011 l 1089 1011 l 1089 934 l 947 934 l 947 0 l 860 0 l 860 448 q 792 418 829 427 q 706 409 754 409 l 686 409 q 653 341 675 371 q 601 290 631 311 q 533 257 570 269 q 455 246 496 246 q 332 272 390 246 q 224 339 275 298 q 132 431 174 380 q 57 532 90 482 l 117 579 q 190 476 152 523 q 270 395 229 429 q 356 343 312 361 q 446 324 400 324 q 516 337 485 324 q 568 373 547 351 q 602 427 590 396 q 614 494 614 458 q 603 555 614 529 q 572 597 591 581 q 529 623 553 614 q 477 631 504 631 q 394 613 435 631 q 319 566 354 596 l 272 631 z "},"ट":{"ha":791,"x_min":-24,"x_max":815,"o":"m 696 131 q 589 87 648 102 q 469 72 530 72 q 325 99 390 72 q 212 173 259 125 q 139 285 165 220 q 113 427 113 350 q 136 554 113 499 q 198 645 158 608 q 292 701 237 682 q 409 720 346 720 l 546 720 l 546 934 l -24 934 l -24 1011 l 815 1011 l 815 934 l 633 934 l 633 642 l 429 642 q 334 627 377 642 q 261 583 292 612 q 214 511 231 553 q 197 416 197 469 q 216 310 197 358 q 270 226 235 261 q 354 172 305 191 q 464 152 404 152 q 588 172 530 152 q 696 227 647 193 l 696 131 z "},"ठ":{"ha":889,"x_min":-23,"x_max":913,"o":"m 515 826 l 515 934 l -23 934 l -23 1011 l 913 1011 l 913 934 l 602 934 l 602 810 q 589 734 602 772 q 547 669 576 696 q 647 618 603 650 q 721 544 690 586 q 768 450 751 502 q 784 340 784 399 q 759 203 784 267 q 689 90 734 138 q 579 13 643 41 q 437 -15 515 -15 q 297 13 359 -15 q 191 89 235 41 q 124 202 147 138 q 100 340 100 267 q 115 444 100 399 q 152 522 129 488 q 204 579 175 555 q 263 619 233 603 q 322 646 294 635 q 372 663 350 656 q 427 682 401 672 q 472 709 452 692 q 503 754 492 726 q 515 826 515 781 m 433 66 q 543 88 494 66 q 628 149 593 111 q 682 240 663 188 q 701 351 701 292 q 686 446 701 405 q 649 515 671 486 q 598 563 626 545 q 545 593 570 582 q 501 608 520 604 q 475 614 481 613 q 432 598 459 606 q 372 578 404 590 q 306 547 340 566 q 245 499 273 528 q 201 428 218 470 q 184 326 184 385 q 203 216 184 264 q 255 134 222 168 q 335 83 289 101 q 433 66 380 66 z "},"ड":{"ha":973,"x_min":-24,"x_max":997,"o":"m 997 934 l 798 934 l 798 675 l 455 675 q 408 671 427 675 q 377 659 389 667 q 360 637 365 650 q 355 605 355 624 q 359 569 355 588 q 375 533 363 549 q 408 505 387 516 q 460 494 428 494 l 651 494 q 754 478 712 494 q 823 435 797 463 q 861 370 850 408 q 873 290 873 332 q 853 177 873 231 q 795 81 833 123 q 700 15 756 39 q 569 -10 643 -10 q 412 21 487 -10 q 274 108 337 52 q 163 241 211 164 q 89 410 116 318 l 161 437 q 224 297 185 364 q 315 180 263 231 q 429 98 366 129 q 564 68 492 68 q 655 84 614 68 q 727 129 697 100 q 773 198 757 157 q 790 290 790 239 q 781 350 790 326 q 754 388 772 374 q 709 408 736 402 q 644 414 681 414 l 471 414 q 382 433 419 414 q 320 482 345 452 q 284 549 296 512 q 273 621 273 586 q 286 686 273 660 q 322 727 299 711 q 378 748 346 742 q 448 755 410 755 l 711 755 l 711 934 l -24 934 l -24 1011 l 997 1011 l 997 934 z "},"ढ":{"ha":891,"x_min":-24,"x_max":915,"o":"m 435 75 q 402 143 413 106 q 392 218 392 179 q 408 304 392 267 q 451 367 424 342 q 512 404 477 391 q 584 416 547 416 q 666 399 630 416 q 728 352 703 381 q 767 286 753 323 q 781 210 781 249 q 765 127 781 168 q 716 55 749 87 q 633 3 684 23 q 513 -16 583 -16 q 418 -6 466 -16 q 326 25 370 4 q 243 78 281 46 q 176 155 205 111 q 131 255 147 199 q 115 379 115 311 q 138 524 115 461 q 204 629 162 587 q 303 693 246 671 q 428 715 361 715 l 577 715 l 577 934 l -24 934 l -24 1011 l 915 1011 l 915 934 l 664 934 l 664 637 l 445 637 q 336 616 382 637 q 259 558 290 595 q 213 473 229 522 q 198 370 198 425 q 216 258 198 309 q 267 169 235 207 q 341 105 298 130 q 433 68 385 79 l 435 75 m 697 214 q 689 258 697 237 q 667 297 682 280 q 632 324 652 314 q 586 334 611 334 q 545 326 564 334 q 509 302 525 318 q 485 262 494 286 q 475 204 475 237 q 487 131 475 168 q 521 62 498 94 q 600 78 566 64 q 654 114 633 92 q 687 161 676 135 q 697 214 697 187 z "},"ण":{"ha":998,"x_min":-24,"x_max":1022,"o":"m 1022 934 l 880 934 l 880 0 l 793 0 l 793 934 l 606 934 l 606 497 q 588 378 606 429 q 540 296 570 328 q 467 248 509 263 q 376 232 425 232 q 277 250 322 232 q 199 303 232 268 q 149 390 167 338 q 131 510 131 442 l 131 934 l -24 934 l -24 1011 l 1022 1011 l 1022 934 m 220 934 l 220 473 q 228 411 220 441 q 253 358 235 381 q 298 322 270 336 q 368 308 327 308 q 439 322 410 308 q 486 358 468 336 q 511 411 503 381 q 519 473 519 441 l 519 934 l 220 934 z "},"त":{"ha":840,"x_min":-24,"x_max":864,"o":"m 864 934 l 722 934 l 722 0 l 635 0 l 635 617 l 401 617 q 313 611 353 617 q 245 586 273 605 q 201 532 216 567 q 185 439 185 496 q 196 348 185 390 q 225 269 207 306 q 267 201 243 233 q 317 141 291 169 q 370 90 343 114 q 421 45 397 66 l 368 -14 q 343 4 364 -12 q 291 48 321 20 q 227 116 261 76 q 165 207 193 156 q 117 319 136 258 q 98 453 98 381 q 118 571 98 524 q 175 645 138 617 q 263 684 212 673 q 380 695 315 695 l 635 695 l 635 934 l -24 934 l -24 1011 l 864 1011 l 864 934 z "},"थ":{"ha":852,"x_min":65,"x_max":876,"o":"m 408 808 q 395 715 408 760 q 357 634 382 671 q 294 568 332 597 q 208 521 256 539 q 237 437 218 472 q 283 380 257 403 q 343 348 310 358 q 412 337 376 337 q 478 345 446 337 q 542 368 511 353 q 599 404 572 382 q 647 453 626 426 l 647 1011 l 876 1011 l 876 934 l 734 934 l 734 0 l 647 0 l 647 340 l 644 341 q 604 311 626 326 q 555 284 583 296 q 494 264 528 272 q 419 257 460 257 q 288 284 342 257 q 197 356 233 311 q 141 460 161 401 q 113 581 121 518 q 212 616 172 593 q 276 669 252 639 q 311 734 300 699 q 321 805 321 769 q 296 904 321 867 q 231 940 271 940 q 199 933 214 940 q 175 916 185 927 q 158 890 164 905 q 153 859 153 876 q 168 807 153 833 q 220 762 184 780 l 178 694 q 128 727 149 708 q 93 767 106 745 q 72 812 79 789 q 65 861 65 836 q 76 921 65 892 q 109 972 87 950 q 161 1007 130 994 q 231 1020 191 1020 q 307 1004 274 1020 q 362 960 340 988 q 396 893 385 932 q 408 808 408 854 z "},"द":{"ha":848,"x_min":-24,"x_max":872,"o":"m 872 934 l 637 934 l 637 643 l 416 643 q 247 587 303 643 q 190 430 190 532 q 212 318 190 363 q 269 245 234 273 q 348 205 304 217 q 435 193 391 193 q 488 197 460 193 q 537 212 515 201 q 532 238 534 224 q 531 267 531 252 q 537 321 531 294 q 555 371 543 349 q 587 408 568 393 q 634 422 607 422 q 669 414 654 422 q 695 394 685 407 q 712 363 706 380 q 718 324 718 345 q 700 250 718 290 q 637 172 682 210 q 694 78 655 123 q 790 -11 732 34 l 726 -78 q 658 -7 686 -42 q 612 57 630 28 q 583 106 593 85 q 568 136 572 127 q 506 119 538 125 q 441 114 474 114 q 320 134 380 114 q 212 196 260 155 q 136 298 165 237 q 106 442 106 360 q 129 565 106 513 q 190 651 151 617 q 283 703 229 686 q 400 720 337 720 l 551 720 l 551 934 l -24 934 l -24 1011 l 872 1011 l 872 934 z "},"ध":{"ha":846,"x_min":75,"x_max":869,"o":"m 320 770 q 342 808 334 788 q 350 850 350 827 q 345 882 350 867 q 329 910 339 898 q 303 929 319 922 q 269 936 288 936 q 229 928 249 936 q 194 904 210 920 q 169 861 178 887 q 159 800 159 836 q 173 728 159 759 q 211 678 186 698 q 268 648 235 658 q 338 638 300 638 q 428 650 381 638 l 444 567 q 355 540 393 559 q 292 495 317 521 q 255 440 267 470 q 243 382 243 411 q 253 332 243 356 q 281 291 262 309 q 328 262 300 273 q 391 251 355 251 q 477 269 438 251 q 548 312 517 286 q 603 368 580 338 q 640 423 626 398 l 640 1011 l 869 1011 l 869 934 l 727 934 l 727 0 l 640 0 l 640 287 l 637 288 q 583 234 612 256 q 523 199 553 212 q 461 179 492 185 q 400 172 430 172 q 300 191 345 172 q 224 242 255 210 q 176 314 193 273 q 159 397 159 354 q 183 494 159 447 q 258 575 208 541 l 258 577 q 174 612 209 589 q 118 664 140 634 q 85 728 96 693 q 75 800 75 764 q 90 886 75 846 q 131 955 104 926 q 193 1001 157 984 q 273 1017 229 1017 q 344 1003 314 1017 q 394 966 374 989 q 424 913 414 943 q 433 854 433 884 q 421 786 433 817 q 388 728 408 755 l 320 770 z "},"न":{"ha":802,"x_min":-24,"x_max":825,"o":"m 825 934 l 683 934 l 683 0 l 600 0 l 600 534 l 277 534 l 277 465 q 276 424 277 441 q 270 393 275 406 q 257 375 266 381 q 233 369 248 369 q 172 391 201 369 q 120 443 143 412 q 84 506 98 473 q 71 560 71 538 q 79 588 71 578 q 101 604 87 598 q 134 610 115 609 q 174 612 153 612 l 600 612 l 600 934 l -24 934 l -24 1011 l 825 1011 l 825 934 z "},"ऩ":{"ha":802,"x_min":-24,"x_max":825,"o":"m 825 934 l 683 934 l 683 0 l 600 0 l 600 534 l 277 534 l 277 465 q 276 424 277 441 q 270 393 275 406 q 257 375 266 381 q 233 369 248 369 q 172 391 201 369 q 120 443 143 412 q 84 506 98 473 q 71 560 71 538 q 79 588 71 578 q 101 604 87 598 q 134 610 115 609 q 174 612 153 612 l 600 612 l 600 934 l -24 934 l -24 1011 l 825 1011 l 825 934 m 292 203 q 314 261 292 239 q 370 284 336 284 q 401 278 387 284 q 427 260 416 271 q 444 233 438 249 q 450 199 450 218 q 428 140 450 163 q 373 118 406 118 q 341 124 355 118 q 315 141 326 130 q 298 168 304 153 q 292 203 292 184 z "},"प":{"ha":822,"x_min":-24,"x_max":846,"o":"m 846 934 l 703 934 l 703 0 l 616 0 l 616 353 l 614 354 q 385 262 519 262 q 268 283 317 262 q 189 340 220 304 q 143 424 157 376 q 128 523 128 471 l 128 934 l -24 934 l -24 1011 l 846 1011 l 846 934 m 616 934 l 215 934 l 215 536 q 222 463 215 498 q 248 401 230 427 q 298 359 267 374 q 378 343 330 343 q 451 353 416 343 q 515 380 485 363 q 571 421 545 397 q 616 473 596 445 l 616 934 z "},"फ":{"ha":1193,"x_min":-24,"x_max":1217,"o":"m 663 625 l 667 623 q 764 712 709 683 q 879 742 819 742 q 972 722 930 742 q 1044 668 1014 702 q 1091 589 1074 634 q 1107 495 1107 545 q 1094 407 1107 452 q 1050 318 1080 361 q 976 237 1021 275 q 867 169 930 198 l 824 242 q 915 300 877 267 q 977 368 953 332 q 1013 439 1001 403 q 1024 507 1024 475 q 1014 567 1024 539 q 986 616 1004 595 q 943 649 968 637 q 888 661 918 661 q 825 648 857 661 q 762 610 792 635 q 705 548 731 585 q 663 463 680 511 l 663 0 l 576 0 l 576 355 l 574 355 q 476 291 528 311 q 366 271 425 271 q 190 337 252 271 q 127 533 127 403 l 127 934 l -24 934 l -24 1011 l 1217 1011 l 1217 934 l 663 934 l 663 625 m 576 934 l 214 934 l 214 540 q 221 460 214 495 q 245 401 229 425 q 290 365 262 378 q 359 353 318 353 q 427 362 395 353 q 485 387 458 371 q 534 426 511 404 q 576 476 557 449 l 576 934 z "},"ब":{"ha":848,"x_min":-24,"x_max":871,"o":"m 642 260 l 639 261 q 541 197 596 220 q 411 174 485 174 q 271 200 331 174 q 172 269 212 227 q 112 365 132 311 q 92 475 92 419 q 112 585 92 532 q 172 678 133 638 q 266 742 210 718 q 390 766 321 766 q 527 738 466 766 q 639 663 589 709 l 642 664 l 642 934 l -24 934 l -24 1011 l 871 1011 l 871 934 l 729 934 l 729 0 l 642 0 l 642 260 m 174 469 q 189 387 174 426 q 232 317 203 347 q 301 270 260 288 q 395 252 342 252 q 444 257 420 252 q 490 269 468 261 l 248 635 q 192 561 211 605 q 174 469 174 517 m 642 553 q 527 649 587 614 q 393 684 467 684 q 356 682 373 684 q 322 675 338 680 l 564 309 q 621 377 600 338 q 642 460 642 416 l 642 553 z "},"भ":{"ha":961,"x_min":67,"x_max":985,"o":"m 985 934 l 842 934 l 842 0 l 755 0 l 755 393 l 374 393 l 374 296 q 365 254 374 270 q 333 237 355 237 q 299 246 318 237 q 260 268 280 254 q 221 301 240 282 q 186 340 201 319 q 162 382 171 361 q 153 422 153 404 q 172 459 153 448 q 239 470 192 470 l 292 470 l 292 857 q 272 919 292 898 q 227 940 253 940 q 196 934 210 940 q 172 919 182 928 q 156 895 161 909 q 151 867 151 882 q 164 816 151 842 q 210 769 178 791 l 168 710 q 123 743 142 724 q 92 783 104 762 q 73 826 79 804 q 67 871 67 849 q 77 930 67 902 q 107 979 87 958 q 157 1012 127 1000 q 226 1025 186 1025 q 336 979 297 1025 q 376 848 376 933 l 376 470 l 755 470 l 755 1011 l 985 1011 l 985 934 z "},"म":{"ha":908,"x_min":-24,"x_max":932,"o":"m 932 934 l 789 934 l 789 0 l 703 0 l 703 393 l 304 393 l 304 325 q 302 283 304 300 q 294 256 300 267 q 277 241 288 246 q 250 237 267 237 q 216 245 235 237 q 179 268 198 254 q 142 302 160 283 q 109 341 123 321 q 86 383 95 362 q 78 423 78 404 q 84 450 78 440 q 100 464 90 459 q 123 469 111 468 q 151 469 136 469 l 217 469 l 217 934 l -24 934 l -24 1011 l 932 1011 l 932 934 m 304 934 l 304 469 l 703 469 l 703 934 l 304 934 z "},"य":{"ha":843,"x_min":-24,"x_max":867,"o":"m 867 934 l 724 934 l 724 0 l 637 0 l 637 334 l 634 335 q 593 304 616 320 q 539 276 570 289 q 472 256 509 264 q 391 248 435 248 q 254 275 310 248 q 160 347 197 302 q 102 452 123 393 q 70 577 81 512 q 201 637 161 595 q 241 738 241 680 q 223 831 241 781 q 172 934 205 881 l -24 934 l -24 1011 l 867 1011 l 867 934 m 263 934 q 309 830 292 882 q 325 729 325 779 q 316 660 325 693 q 287 600 307 627 q 238 551 268 572 q 166 517 208 530 q 247 373 194 418 q 383 328 300 328 q 455 336 418 328 q 525 360 491 345 q 587 397 558 375 q 637 448 616 420 l 637 934 l 263 934 z "},"र":{"ha":654,"x_min":-24,"x_max":677,"o":"m 677 934 l 410 934 q 445 872 429 905 q 472 804 460 840 q 490 732 484 769 q 497 659 497 696 q 484 573 497 615 q 445 499 471 532 q 378 447 418 467 q 285 427 338 427 l 265 427 l 264 422 q 328 326 292 374 q 408 231 365 277 q 499 141 450 184 q 600 60 548 98 l 544 -5 q 381 137 455 60 q 248 295 307 215 q 145 451 189 375 q 71 587 100 527 l 143 626 q 170 579 156 600 q 201 543 184 558 q 237 520 217 528 q 280 513 256 513 q 335 526 311 513 q 376 561 359 538 q 402 611 393 583 q 411 671 411 640 q 403 742 411 707 q 381 810 395 777 q 350 874 368 843 q 314 934 332 905 l -24 934 l -24 1011 l 677 1011 l 677 934 z "},"ऱ":{"ha":654,"x_min":-24,"x_max":677,"o":"m 677 934 l 410 934 q 445 872 429 905 q 472 804 460 840 q 490 732 484 769 q 497 659 497 696 q 484 573 497 615 q 445 499 471 532 q 378 447 418 467 q 285 427 338 427 l 265 427 l 264 422 q 328 326 292 374 q 408 231 365 277 q 499 141 450 184 q 600 60 548 98 l 544 -5 q 381 137 455 60 q 248 295 307 215 q 145 451 189 375 q 71 587 100 527 l 143 626 q 170 579 156 600 q 201 543 184 558 q 237 520 217 528 q 280 513 256 513 q 335 526 311 513 q 376 561 359 538 q 402 611 393 583 q 411 671 411 640 q 403 742 411 707 q 381 810 395 777 q 350 874 368 843 q 314 934 332 905 l -24 934 l -24 1011 l 677 1011 l 677 934 m 88 103 q 110 162 88 139 q 165 184 132 184 q 197 178 182 184 q 223 160 212 172 q 240 134 234 149 q 246 100 246 118 q 224 41 246 63 q 169 18 202 18 q 137 24 151 18 q 111 42 122 31 q 94 68 100 53 q 88 103 88 84 z "},"ल":{"ha":958,"x_min":-24,"x_max":982,"o":"m 982 934 l 840 934 l 840 0 l 753 0 l 753 651 q 710 664 732 660 q 669 669 689 669 q 612 656 637 669 q 570 623 587 644 q 544 571 553 601 q 535 505 535 541 q 536 485 535 496 q 538 465 536 475 l 456 465 q 442 549 450 510 q 419 615 434 587 q 382 659 405 643 q 323 675 359 675 q 263 661 289 675 q 221 621 238 646 q 196 561 204 596 q 187 486 187 526 q 215 345 187 408 q 288 229 242 281 q 394 136 334 177 q 519 62 454 95 l 475 -10 q 414 23 451 1 q 334 77 376 45 q 250 152 292 109 q 174 246 208 194 q 118 360 140 298 q 97 492 97 421 q 113 601 97 552 q 158 685 130 650 q 227 739 187 720 q 315 758 267 758 q 372 750 346 758 q 420 726 398 741 q 458 690 441 711 q 488 644 475 669 l 492 645 q 523 694 505 674 q 563 728 541 715 q 609 746 585 741 q 660 751 634 751 q 707 747 684 751 q 753 732 731 742 l 753 934 l -24 934 l -24 1011 l 982 1011 l 982 934 z "},"ळ":{"ha":1168,"x_min":-22,"x_max":1192,"o":"m 802 934 l -22 934 l -22 1011 l 1192 1011 l 1192 934 l 888 934 l 888 720 q 967 686 931 710 q 1028 628 1003 663 q 1067 551 1053 594 q 1081 460 1081 508 q 1058 335 1081 391 q 997 239 1035 279 q 909 177 958 199 q 809 155 861 155 q 679 187 740 155 q 558 281 618 219 q 519 233 541 255 q 473 195 498 211 q 416 169 447 178 q 346 160 385 160 q 243 181 290 160 q 162 241 196 203 q 110 331 129 279 q 92 444 92 383 q 112 564 92 510 q 168 655 132 617 q 251 713 203 693 q 353 734 298 734 q 489 696 425 734 q 618 587 553 658 q 652 636 634 613 q 693 676 671 659 q 742 706 715 694 q 802 722 769 718 l 802 934 m 360 652 q 282 635 317 652 q 223 590 248 618 q 186 523 199 561 q 174 443 174 485 q 184 370 174 406 q 216 304 195 334 q 269 256 237 275 q 343 238 300 238 q 404 250 377 238 q 452 283 431 262 q 492 333 474 304 q 525 394 509 361 q 556 460 541 426 q 587 529 571 495 q 477 622 534 591 q 360 652 419 652 m 794 236 q 873 250 836 236 q 938 291 910 264 q 983 359 966 318 q 1000 454 1000 399 q 991 522 1000 488 q 963 584 982 556 q 915 629 944 612 q 844 647 885 647 q 780 633 808 647 q 730 597 752 620 q 690 543 708 574 q 656 477 672 512 q 623 405 640 442 q 589 334 607 368 q 629 296 607 314 q 677 266 652 279 q 732 244 703 252 q 794 236 762 236 z "},"ऴ":{"ha":1168,"x_min":-22,"x_max":1192,"o":"m 802 934 l -22 934 l -22 1011 l 1192 1011 l 1192 934 l 888 934 l 888 720 q 967 686 931 710 q 1028 628 1003 663 q 1067 551 1053 594 q 1081 460 1081 508 q 1058 335 1081 391 q 997 239 1035 279 q 909 177 958 199 q 809 155 861 155 q 679 187 740 155 q 558 281 618 219 q 519 233 541 255 q 473 195 498 211 q 416 169 447 178 q 346 160 385 160 q 243 181 290 160 q 162 241 196 203 q 110 331 129 279 q 92 444 92 383 q 112 564 92 510 q 168 655 132 617 q 251 713 203 693 q 353 734 298 734 q 489 696 425 734 q 618 587 553 658 q 652 636 634 613 q 693 676 671 659 q 742 706 715 694 q 802 722 769 718 l 802 934 m 360 652 q 282 635 317 652 q 223 590 248 618 q 186 523 199 561 q 174 443 174 485 q 184 370 174 406 q 216 304 195 334 q 269 256 237 275 q 343 238 300 238 q 404 250 377 238 q 452 283 431 262 q 492 333 474 304 q 525 394 509 361 q 556 460 541 426 q 587 529 571 495 q 477 622 534 591 q 360 652 419 652 m 794 236 q 873 250 836 236 q 938 291 910 264 q 983 359 966 318 q 1000 454 1000 399 q 991 522 1000 488 q 963 584 982 556 q 915 629 944 612 q 844 647 885 647 q 780 633 808 647 q 730 597 752 620 q 690 543 708 574 q 656 477 672 512 q 623 405 640 442 q 589 334 607 368 q 629 296 607 314 q 677 266 652 279 q 732 244 703 252 q 794 236 762 236 m 509 -39 q 531 19 509 -3 q 587 42 553 42 q 618 36 604 42 q 644 18 633 29 q 661 -9 655 7 q 667 -43 667 -24 q 645 -102 667 -79 q 590 -124 623 -124 q 558 -118 572 -124 q 532 -101 543 -112 q 515 -74 522 -90 q 509 -39 509 -58 z "},"व":{"ha":804,"x_min":-24,"x_max":827,"o":"m 598 260 l 595 261 q 503 197 556 220 q 383 174 450 174 q 257 200 311 174 q 165 267 202 225 q 110 361 129 308 q 92 470 92 414 q 111 580 92 528 q 166 671 130 632 q 252 734 201 711 q 366 758 303 758 q 492 730 436 758 q 595 659 549 703 l 598 659 l 598 934 l -24 934 l -24 1011 l 827 1011 l 827 934 l 685 934 l 685 0 l 598 0 l 598 260 m 598 550 q 494 643 549 609 q 374 676 439 676 q 289 659 326 676 q 227 612 252 642 q 188 544 201 583 q 174 463 174 505 q 188 381 174 419 q 228 314 202 342 q 290 268 253 285 q 372 252 326 252 q 458 268 418 252 q 530 313 499 284 q 580 379 562 341 q 598 460 598 417 l 598 550 z "},"श":{"ha":1050,"x_min":-24,"x_max":1074,"o":"m 436 550 q 414 548 425 549 q 393 547 403 547 q 291 566 336 547 q 215 616 246 584 q 166 691 183 648 q 149 785 149 734 q 162 863 149 827 q 199 930 174 899 l 199 934 l -24 934 l -24 1011 l 1074 1011 l 1074 934 l 932 934 l 932 0 l 845 0 l 845 934 l 562 934 l 561 930 q 599 884 581 910 q 630 826 617 857 q 650 761 643 795 q 658 689 658 726 q 641 583 658 633 q 592 488 623 532 q 517 407 560 444 q 421 340 473 370 l 421 338 q 496 270 456 309 q 575 190 536 231 q 649 109 614 149 q 707 39 684 69 l 648 -12 q 597 50 629 12 q 527 131 566 87 q 440 218 487 174 q 345 299 394 262 q 297 284 325 290 q 238 279 269 279 q 183 284 210 279 q 135 301 157 290 q 101 330 114 312 q 88 374 88 349 q 116 432 88 413 q 186 452 143 452 q 264 438 222 452 q 349 393 306 424 q 423 431 383 406 q 496 492 463 456 q 552 578 530 529 q 574 689 574 627 q 563 775 574 732 q 527 853 551 819 q 467 909 503 888 q 382 931 431 931 q 316 918 344 931 q 269 883 288 905 q 242 833 251 861 q 233 777 233 806 q 243 718 233 746 q 273 669 253 690 q 324 636 294 648 q 395 623 355 623 q 414 624 404 623 q 436 627 425 625 l 436 550 z "},"ष":{"ha":822,"x_min":-24,"x_max":846,"o":"m 846 934 l 703 934 l 703 0 l 616 0 l 616 353 l 614 354 q 385 262 519 262 q 268 283 317 262 q 189 340 220 304 q 143 424 157 376 q 128 523 128 471 l 128 934 l -24 934 l -24 1011 l 846 1011 l 846 934 m 378 343 q 469 359 427 343 q 547 401 511 374 l 217 871 l 215 871 l 215 536 q 222 463 215 498 q 248 401 230 427 q 298 359 267 374 q 378 343 330 343 m 616 934 l 273 934 l 606 460 l 616 473 l 616 934 z "},"स":{"ha":965,"x_min":-24,"x_max":989,"o":"m 989 1011 l 989 934 l 846 934 l 846 0 l 760 0 l 760 471 l 336 471 q 299 454 317 459 q 260 448 281 450 l 258 445 q 412 236 323 331 q 611 60 501 142 l 555 -5 q 392 138 466 60 q 257 294 317 215 q 151 450 197 373 q 71 591 104 526 l 143 629 q 168 583 156 601 q 192 554 180 564 q 219 539 205 543 q 250 535 233 535 q 325 572 300 535 q 349 671 349 610 q 341 747 349 709 q 322 819 334 785 q 297 882 311 852 q 271 934 283 911 l -24 934 l -24 1011 l 989 1011 m 760 934 l 361 934 q 415 801 395 868 q 435 670 435 734 q 428 607 435 637 q 409 549 422 576 l 410 547 l 760 547 l 760 934 z "},"ह":{"ha":816,"x_min":-24,"x_max":840,"o":"m 496 180 q 539 196 517 186 q 582 221 562 205 q 614 260 601 237 q 627 317 627 283 q 613 375 627 350 q 575 418 600 401 q 515 443 550 435 q 436 452 479 452 q 359 444 399 452 q 288 417 320 437 q 236 362 256 397 q 215 272 215 327 q 236 171 215 217 q 290 86 257 124 q 365 17 323 47 q 445 -37 406 -14 q 519 -76 485 -60 q 574 -101 553 -92 l 541 -168 q 445 -122 494 -146 q 351 -69 397 -98 q 266 -5 306 -40 q 196 71 226 29 q 149 162 166 113 q 132 271 132 212 q 146 369 132 327 q 188 441 161 410 q 130 528 151 479 q 108 621 108 576 q 117 673 108 648 q 148 715 127 697 q 201 744 168 734 q 279 755 233 755 l 598 755 l 598 934 l -24 934 l -24 1011 l 840 1011 l 840 934 l 684 934 l 684 675 l 284 675 q 241 669 258 675 q 212 653 223 663 q 196 629 201 643 q 191 601 191 616 q 195 570 191 586 q 206 540 199 555 q 222 511 213 525 q 241 486 231 497 q 331 521 281 510 q 433 532 380 532 q 544 519 493 532 q 632 478 595 505 q 689 409 669 450 q 710 313 710 368 q 691 221 710 258 q 644 161 672 184 q 584 123 616 137 q 528 102 553 110 l 496 180 z "},"क़":{"ha":1164,"x_min":-24,"x_max":1188,"o":"m 1188 934 l 642 934 l 642 625 l 646 623 q 742 711 687 683 q 854 739 796 739 q 947 719 905 739 q 1018 666 988 699 q 1063 589 1047 633 q 1079 496 1079 545 q 1065 407 1079 452 q 1023 318 1052 361 q 948 237 994 275 q 839 169 903 199 l 795 242 q 886 299 848 267 q 948 367 924 332 q 984 438 972 402 q 996 509 996 475 q 986 567 996 540 q 960 614 977 594 q 919 646 943 634 q 864 657 895 657 q 801 645 833 657 q 739 608 769 633 q 683 547 709 584 q 642 463 658 511 l 642 0 l 555 0 l 555 279 l 551 280 q 464 215 511 238 q 355 191 416 191 q 240 217 290 191 q 157 283 191 242 q 106 375 123 324 q 90 477 90 426 q 105 573 90 526 q 153 657 121 620 q 229 716 184 694 q 332 739 274 739 q 453 712 397 739 q 551 644 509 686 l 555 644 l 555 934 l -24 934 l -24 1011 l 1188 1011 l 1188 934 m 555 544 q 457 627 511 596 q 344 657 404 657 q 269 641 300 657 q 215 598 237 625 q 183 538 194 572 q 173 469 173 504 q 184 396 173 432 q 218 332 196 360 q 271 286 239 303 q 342 269 302 269 q 413 281 375 269 q 482 322 450 294 q 534 392 513 349 q 555 494 555 435 l 555 544 m 241 24 q 263 83 241 60 q 319 106 285 106 q 351 99 336 106 q 376 82 366 93 q 393 55 387 71 q 399 21 399 39 q 377 -38 399 -16 q 322 -60 355 -60 q 290 -54 304 -60 q 264 -37 275 -48 q 248 -10 254 -26 q 241 24 241 5 z "},"ख़":{"ha":1131,"x_min":-24,"x_max":1155,"o":"m 839 25 q 814 16 829 21 q 778 6 799 10 q 731 -2 758 1 q 672 -5 705 -5 q 477 34 562 -5 q 322 147 393 74 q 190 324 252 220 q 63 555 128 427 l 132 593 q 182 525 157 545 q 237 506 206 506 q 314 546 286 506 q 342 654 342 586 q 336 718 342 684 q 318 789 330 753 q 289 862 307 825 q 246 934 271 899 l -24 934 l -24 1011 l 1155 1011 l 1155 934 l 1013 934 l 1013 0 l 926 0 l 926 353 l 923 353 q 841 295 886 314 q 745 277 795 277 q 640 299 685 277 q 564 358 595 321 q 518 442 534 395 q 503 538 503 489 q 518 629 503 585 q 561 707 532 673 q 631 763 589 742 q 728 783 673 783 q 784 777 758 783 q 834 758 810 770 q 879 729 857 746 q 923 691 901 712 l 926 692 l 926 934 l 338 934 q 406 786 385 858 q 428 652 428 713 q 414 559 428 602 q 375 486 401 517 q 314 436 350 454 q 233 418 277 418 l 231 416 q 334 253 281 317 q 441 151 387 189 q 549 99 494 114 q 656 84 603 84 q 713 88 687 84 q 763 97 740 92 q 805 109 786 102 q 839 121 824 115 l 839 25 m 926 579 q 894 619 912 597 q 852 659 876 640 q 801 690 829 677 q 738 702 772 702 q 673 687 701 702 q 626 649 645 673 q 596 595 606 625 q 587 532 587 564 q 596 469 587 500 q 626 414 606 438 q 673 374 645 389 q 739 359 702 359 q 798 369 766 359 q 859 402 831 379 q 907 464 888 426 q 926 558 926 502 l 926 579 m 93 0 q 115 59 93 36 q 170 81 136 81 q 202 75 187 81 q 228 57 217 68 q 245 31 239 46 q 251 -3 251 15 q 229 -62 251 -40 q 174 -85 207 -85 q 141 -79 156 -85 q 116 -61 127 -73 q 99 -35 105 -50 q 93 0 93 -19 z "},"ग़":{"ha":841,"x_min":-24,"x_max":866,"o":"m 866 934 l 724 934 l 724 0 l 637 0 l 637 934 l 305 934 l 305 407 q 303 379 305 393 q 297 355 302 366 q 282 337 292 344 q 258 331 273 331 q 223 341 243 331 q 182 367 203 351 q 141 404 161 383 q 105 447 121 425 q 79 491 89 469 q 69 531 69 513 q 78 560 69 549 q 101 575 86 570 q 135 582 115 581 q 178 583 155 583 l 218 583 l 218 934 l -24 934 l -24 1011 l 866 1011 l 866 934 m 311 115 q 332 173 311 151 q 388 196 354 196 q 420 190 405 196 q 446 172 435 183 q 463 145 456 161 q 469 111 469 130 q 447 52 469 75 q 391 30 425 30 q 359 36 374 30 q 334 53 345 42 q 317 80 323 64 q 311 115 311 96 z "},"ज़":{"ha":1019,"x_min":-24,"x_max":1042,"o":"m 1042 934 l 900 934 l 900 0 l 813 0 l 813 612 l 555 612 l 555 608 q 648 478 616 543 q 679 348 679 414 q 666 271 679 307 q 628 207 654 234 q 565 164 603 180 q 477 148 528 148 q 374 168 421 148 q 289 221 328 188 q 221 299 251 255 q 167 391 191 343 q 126 489 143 439 q 96 582 109 538 q 76 660 83 625 q 64 715 68 695 l 138 734 q 195 519 161 613 q 271 359 229 425 q 363 260 313 294 q 471 226 414 226 q 528 237 504 226 q 567 266 551 248 q 589 308 582 284 q 596 359 596 332 q 585 429 596 393 q 551 499 573 465 q 496 565 529 533 q 422 622 464 596 l 422 689 l 813 689 l 813 934 l -24 934 l -24 1011 l 1042 1011 l 1042 934 m 353 -33 q 375 26 353 3 q 431 49 397 49 q 463 42 448 49 q 488 25 477 36 q 505 -2 499 14 q 511 -36 511 -18 q 489 -95 511 -73 q 434 -117 467 -117 q 402 -111 416 -117 q 376 -94 387 -105 q 359 -67 366 -83 q 353 -33 353 -52 z "},"ड़":{"ha":973,"x_min":-24,"x_max":997,"o":"m 997 934 l 798 934 l 798 675 l 455 675 q 408 671 427 675 q 377 659 389 667 q 360 637 365 650 q 355 605 355 624 q 359 569 355 588 q 375 533 363 549 q 408 505 387 516 q 460 494 428 494 l 651 494 q 754 478 712 494 q 823 435 797 463 q 861 370 850 408 q 873 290 873 332 q 853 177 873 231 q 795 81 833 123 q 700 15 756 39 q 569 -10 643 -10 q 412 21 487 -10 q 274 108 337 52 q 163 241 211 164 q 89 410 116 318 l 161 437 q 224 297 185 364 q 315 180 263 231 q 429 98 366 129 q 564 68 492 68 q 655 84 614 68 q 727 129 697 100 q 773 198 757 157 q 790 290 790 239 q 781 350 790 326 q 754 388 772 374 q 709 408 736 402 q 644 414 681 414 l 471 414 q 382 433 419 414 q 320 482 345 452 q 284 549 296 512 q 273 621 273 586 q 286 686 273 660 q 322 727 299 711 q 378 748 346 742 q 448 755 410 755 l 711 755 l 711 934 l -24 934 l -24 1011 l 997 1011 l 997 934 m 494 -182 q 515 -123 494 -146 q 571 -100 537 -100 q 603 -107 588 -100 q 629 -124 618 -113 q 646 -151 640 -136 q 652 -185 652 -167 q 630 -244 652 -222 q 574 -267 608 -267 q 542 -260 557 -267 q 517 -243 528 -254 q 500 -216 506 -232 q 494 -182 494 -201 z "},"ढ़":{"ha":891,"x_min":-24,"x_max":915,"o":"m 435 75 q 402 143 413 106 q 392 218 392 179 q 408 304 392 267 q 451 367 424 342 q 512 404 477 391 q 584 416 547 416 q 666 399 630 416 q 728 352 703 381 q 767 286 753 323 q 781 210 781 249 q 765 127 781 168 q 716 55 749 87 q 633 3 684 23 q 513 -16 583 -16 q 418 -6 466 -16 q 326 25 370 4 q 243 78 281 46 q 176 155 205 111 q 131 255 147 199 q 115 379 115 311 q 138 524 115 461 q 204 629 162 587 q 303 693 246 671 q 428 715 361 715 l 577 715 l 577 934 l -24 934 l -24 1011 l 915 1011 l 915 934 l 664 934 l 664 637 l 445 637 q 336 616 382 637 q 259 558 290 595 q 213 473 229 522 q 198 370 198 425 q 216 258 198 309 q 267 169 235 207 q 341 105 298 130 q 433 68 385 79 l 435 75 m 697 214 q 689 258 697 237 q 667 297 682 280 q 632 324 652 314 q 586 334 611 334 q 545 326 564 334 q 509 302 525 318 q 485 262 494 286 q 475 204 475 237 q 487 131 475 168 q 521 62 498 94 q 600 78 566 64 q 654 114 633 92 q 687 161 676 135 q 697 214 697 187 m 445 -182 q 467 -123 445 -146 q 522 -100 488 -100 q 554 -107 539 -100 q 580 -124 569 -113 q 597 -151 591 -136 q 603 -185 603 -167 q 581 -244 603 -222 q 526 -267 559 -267 q 493 -260 508 -267 q 468 -243 479 -254 q 451 -216 457 -232 q 445 -182 445 -201 z "},"फ़":{"ha":1193,"x_min":-24,"x_max":1217,"o":"m 663 625 l 667 623 q 764 712 709 683 q 879 742 819 742 q 972 722 930 742 q 1044 668 1014 702 q 1091 589 1074 634 q 1107 495 1107 545 q 1094 407 1107 452 q 1050 318 1080 361 q 976 237 1021 275 q 867 169 930 198 l 824 242 q 915 300 877 267 q 977 368 953 332 q 1013 439 1001 403 q 1024 507 1024 475 q 1014 567 1024 539 q 986 616 1004 595 q 943 649 968 637 q 888 661 918 661 q 825 648 857 661 q 762 610 792 635 q 705 548 731 585 q 663 463 680 511 l 663 0 l 576 0 l 576 355 l 574 355 q 476 291 528 311 q 366 271 425 271 q 190 337 252 271 q 127 533 127 403 l 127 934 l -24 934 l -24 1011 l 1217 1011 l 1217 934 l 663 934 l 663 625 m 576 934 l 214 934 l 214 540 q 221 460 214 495 q 245 401 229 425 q 290 365 262 378 q 359 353 318 353 q 427 362 395 353 q 485 387 458 371 q 534 426 511 404 q 576 476 557 449 l 576 934 m 280 8 q 302 67 280 44 q 357 90 323 90 q 389 83 374 90 q 415 65 404 77 q 432 39 426 54 q 438 5 438 23 q 416 -54 438 -32 q 361 -77 394 -77 q 329 -71 343 -77 q 303 -53 314 -64 q 286 -26 292 -42 q 280 8 280 -11 z "},"य़":{"ha":843,"x_min":-24,"x_max":867,"o":"m 867 934 l 724 934 l 724 0 l 637 0 l 637 334 l 634 335 q 593 304 616 320 q 539 276 570 289 q 472 256 509 264 q 391 248 435 248 q 254 275 310 248 q 160 347 197 302 q 102 452 123 393 q 70 577 81 512 q 201 637 161 595 q 241 738 241 680 q 223 831 241 781 q 172 934 205 881 l -24 934 l -24 1011 l 867 1011 l 867 934 m 263 934 q 309 830 292 882 q 325 729 325 779 q 316 660 325 693 q 287 600 307 627 q 238 551 268 572 q 166 517 208 530 q 247 373 194 418 q 383 328 300 328 q 455 336 418 328 q 525 360 491 345 q 587 397 558 375 q 637 448 616 420 l 637 934 l 263 934 m 292 68 q 314 126 292 104 q 370 149 336 149 q 401 143 387 149 q 427 125 416 136 q 444 98 438 114 q 450 64 450 83 q 428 5 450 28 q 373 -17 406 -17 q 341 -11 355 -17 q 315 6 326 -5 q 298 33 304 18 q 292 68 292 49 z "},"ॻ":{"ha":842,"x_min":-24,"x_max":866,"o":"m 866 934 l 724 934 l 724 0 l 125 0 l 125 77 l 637 77 l 637 934 l 305 934 l 305 407 q 303 379 305 393 q 297 355 302 366 q 282 337 292 344 q 258 331 273 331 q 223 341 243 331 q 182 367 203 351 q 141 404 161 383 q 105 447 121 425 q 79 491 89 469 q 69 531 69 513 q 77 560 69 549 q 100 575 85 570 q 134 582 115 581 q 177 583 154 583 l 218 583 l 218 934 l -24 934 l -24 1011 l 866 1011 l 866 934 z "},"ॼ":{"ha":1019,"x_min":-24,"x_max":1042,"o":"m 1042 934 l 900 934 l 900 0 l 125 0 l 125 77 l 813 77 l 813 624 l 555 624 l 555 621 q 648 490 616 555 q 679 360 679 426 q 666 283 679 319 q 628 219 654 246 q 565 176 603 192 q 477 160 528 160 q 374 180 421 160 q 289 234 328 200 q 221 311 251 267 q 167 404 191 355 q 126 501 143 452 q 96 594 109 550 q 76 672 83 637 q 64 728 68 707 l 138 746 q 195 531 161 625 q 271 372 229 437 q 363 272 313 307 q 471 238 414 238 q 528 249 504 238 q 567 278 551 260 q 589 320 582 296 q 596 371 596 345 q 585 441 596 406 q 551 511 573 477 q 496 577 529 545 q 422 634 464 608 l 422 701 l 813 701 l 813 934 l -24 934 l -24 1011 l 1042 1011 l 1042 934 z "},"ॾ":{"ha":980,"x_min":-24,"x_max":1004,"o":"m 873 -77 l 125 -77 l 125 0 l 873 0 l 873 -77 m 1004 934 l 804 934 l 804 676 l 465 676 q 417 673 436 676 q 386 662 398 669 q 370 643 374 654 q 365 614 365 631 q 369 582 365 599 q 385 550 373 564 q 417 525 397 535 q 470 515 437 515 l 661 515 q 764 502 722 515 q 832 466 806 489 q 868 412 857 443 q 880 346 880 381 q 860 251 880 296 q 801 171 840 205 q 705 115 762 136 q 574 94 648 94 q 412 122 490 94 q 270 200 334 150 q 156 318 205 250 q 79 469 107 387 l 152 496 q 217 374 177 433 q 310 271 256 315 q 428 199 363 226 q 570 172 494 172 q 661 184 620 172 q 733 218 703 196 q 780 272 763 241 q 797 343 797 304 q 789 387 797 370 q 763 415 781 404 q 718 430 745 426 q 654 435 691 435 l 481 435 q 391 453 429 435 q 330 499 354 471 q 294 562 305 528 q 282 630 282 597 q 295 691 282 667 q 332 730 309 715 q 388 750 355 744 q 457 756 420 756 l 718 756 l 718 934 l -24 934 l -24 1011 l 1004 1011 l 1004 934 z "},"ॿ":{"ha":848,"x_min":-24,"x_max":871,"o":"m 642 273 l 639 275 q 541 211 596 233 q 411 188 485 188 q 271 214 331 188 q 172 282 212 240 q 112 379 132 325 q 92 488 92 433 q 112 599 92 546 q 172 692 133 652 q 266 755 210 732 q 390 779 321 779 q 527 751 466 779 q 639 677 589 723 l 642 677 l 642 934 l -24 934 l -24 1011 l 871 1011 l 871 934 l 729 934 l 729 0 l 125 0 l 125 77 l 642 77 l 642 273 m 174 482 q 189 400 174 439 q 232 331 203 361 q 301 283 260 301 q 395 266 342 266 q 444 270 420 266 q 490 282 468 275 l 248 649 q 192 575 211 618 q 174 482 174 531 m 642 566 q 527 663 587 628 q 393 698 467 698 q 356 695 373 698 q 322 688 338 693 l 564 323 q 621 390 600 351 q 642 474 642 429 l 642 566 z "},"ऽ":{"ha":787,"x_min":90,"x_max":681,"o":"m 648 934 l 348 934 q 290 930 316 934 q 247 915 264 926 q 219 884 229 904 q 209 833 209 865 q 223 763 209 793 q 265 707 238 732 q 329 657 292 681 q 414 608 367 634 q 475 573 444 591 q 536 533 507 555 q 592 486 566 512 q 638 429 618 460 q 669 359 658 397 q 681 275 681 321 q 660 161 681 214 q 602 71 639 109 q 515 11 566 33 q 407 -10 465 -10 q 301 8 351 -10 q 211 53 252 26 q 139 110 170 80 q 90 163 109 140 l 150 216 q 269 109 205 146 q 402 71 332 71 q 482 86 446 71 q 544 129 518 102 q 584 192 570 155 q 597 271 597 229 q 577 366 597 325 q 523 438 556 406 q 449 495 490 469 q 368 544 408 520 q 276 600 319 572 q 198 662 232 628 q 145 740 165 696 q 125 842 125 783 q 136 912 125 881 q 171 965 146 943 q 235 999 195 987 q 334 1011 275 1011 l 648 1011 l 648 934 z "},"ॽ":{"ha":739,"x_min":115,"x_max":621,"o":"m 115 970 q 219 1008 166 996 q 321 1020 272 1020 q 441 1000 387 1020 q 536 945 496 981 q 598 860 576 909 q 621 749 621 810 q 598 638 621 687 q 537 552 576 589 q 446 489 498 515 q 335 448 394 463 l 335 0 l 248 0 l 248 507 q 358 537 305 519 q 450 584 410 555 q 514 655 490 613 q 538 757 538 697 q 522 837 538 802 q 478 895 506 871 q 411 929 450 918 q 328 941 373 941 q 216 925 273 941 q 115 881 160 909 l 115 970 z "},"ा":{"ha":344,"x_min":-24,"x_max":368,"o":"m 368 934 l 225 934 l 225 0 l 138 0 l 138 934 l -24 934 l -24 1011 l 368 1011 l 368 934 z "},"ि":{"ha":344,"x_min":-24,"x_max":1031,"o":"m 368 934 l 225 934 l 225 0 l 138 0 l 138 934 l -24 934 l -24 1011 l 135 1011 q 107 1100 116 1057 q 98 1181 98 1143 q 113 1270 98 1230 q 158 1340 127 1311 q 236 1385 189 1369 q 347 1402 283 1402 q 527 1369 438 1402 q 703 1280 616 1335 q 871 1153 789 1225 q 1031 1004 954 1081 l 929 1004 q 882 1049 913 1019 q 808 1113 850 1078 q 713 1185 766 1148 q 603 1251 661 1221 q 481 1300 544 1281 q 354 1319 418 1319 q 271 1307 304 1319 q 219 1275 238 1295 q 191 1226 199 1254 q 183 1168 183 1199 q 216 1011 183 1105 l 368 1011 l 368 934 z "},"ी":{"ha":344,"x_min":-309,"x_max":368,"o":"m 368 934 l 225 934 l 225 0 l 138 0 l 138 934 l -24 934 l -24 1011 l 140 1011 q 111 1135 128 1084 q 72 1220 93 1185 q 28 1274 51 1254 q -17 1303 5 1293 q -58 1316 -39 1314 q -92 1319 -77 1319 q -153 1310 -127 1319 q -194 1285 -178 1301 q -218 1249 -210 1270 q -225 1203 -225 1227 q -218 1153 -225 1179 q -199 1100 -212 1126 q -170 1049 -187 1074 q -130 1004 -152 1025 l -216 1004 q -284 1105 -260 1055 q -309 1211 -309 1156 q -294 1288 -309 1253 q -253 1349 -280 1323 q -186 1388 -226 1374 q -96 1402 -146 1402 q 31 1372 -23 1402 q 124 1290 85 1342 q 185 1166 162 1237 q 220 1011 208 1095 l 368 1011 l 368 934 z "},"ु":{"ha":0,"x_min":-596,"x_max":52,"o":"m -334 -22 q -244 20 -292 5 q -151 34 -197 34 q -68 21 -106 34 q -5 -16 -31 7 q 37 -73 22 -40 q 52 -145 52 -106 q 36 -219 52 -184 q -10 -282 21 -255 q -87 -326 -41 -309 q -198 -342 -134 -342 q -335 -319 -275 -342 q -444 -262 -395 -296 q -530 -185 -492 -227 q -596 -106 -567 -144 l -536 -57 q -464 -138 -500 -101 q -390 -201 -429 -174 q -306 -242 -351 -227 q -204 -257 -260 -257 q -124 -247 -157 -257 q -71 -220 -91 -237 q -41 -184 -50 -204 q -32 -142 -32 -163 q -61 -76 -32 -102 q -147 -50 -91 -50 q -210 -59 -173 -50 q -294 -96 -246 -68 l -334 -22 z "},"ू":{"ha":0,"x_min":-389,"x_max":267,"o":"m 203 -345 q 128 -235 166 -288 q 46 -142 90 -182 q -46 -76 3 -101 q -155 -52 -96 -52 q -220 -61 -192 -52 q -267 -86 -248 -71 q -295 -122 -286 -102 q -305 -163 -305 -142 q -297 -200 -305 -183 q -274 -231 -290 -218 q -237 -252 -259 -244 q -185 -260 -214 -260 q -136 -255 -162 -260 q -83 -241 -109 -250 l -63 -323 q -121 -339 -92 -334 q -178 -344 -150 -344 q -261 -330 -222 -344 q -328 -292 -300 -317 q -373 -234 -357 -268 q -389 -157 -389 -199 q -369 -75 -389 -111 q -317 -16 -349 -39 q -242 20 -284 8 q -156 33 -200 33 q -52 15 -100 33 q 39 -32 -3 -3 q 117 -97 81 -60 q 180 -172 152 -134 q 231 -245 209 -210 q 267 -308 252 -281 l 203 -345 z "},"ृ":{"ha":0,"x_min":-415,"x_max":-42,"o":"m -119 -56 l -193 -56 q -254 -64 -228 -56 q -297 -88 -280 -73 q -323 -121 -315 -102 q -332 -161 -332 -140 q -322 -200 -332 -182 q -295 -232 -313 -218 q -250 -252 -277 -245 q -186 -260 -223 -260 q -126 -254 -155 -260 q -62 -237 -97 -249 l -42 -319 q -106 -337 -75 -330 q -174 -344 -137 -344 q -271 -330 -227 -344 q -347 -292 -315 -317 q -397 -230 -379 -267 q -415 -149 -415 -194 q -396 -69 -415 -102 q -347 -13 -378 -35 q -277 19 -316 9 q -197 29 -238 29 l -119 29 l -119 -56 z "},"ॢ":{"ha":0,"x_min":-481,"x_max":81,"o":"m -311 -343 q -362 -307 -333 -330 q -418 -252 -391 -283 q -463 -183 -444 -221 q -481 -102 -481 -144 q -471 -44 -481 -69 q -443 -1 -460 -18 q -400 26 -425 17 q -347 36 -376 36 q -288 21 -315 36 q -246 -20 -262 7 l -245 -20 q -200 22 -227 9 q -144 35 -174 35 q -88 24 -113 35 q -46 -6 -63 12 q -20 -46 -28 -24 q -11 -90 -11 -68 q -24 -148 -11 -124 q -52 -189 -37 -172 q -81 -221 -68 -207 q -94 -251 -94 -235 q -83 -277 -94 -267 q -58 -288 -72 -288 q -34 -282 -45 -288 q -11 -268 -22 -277 q 9 -249 0 -259 q 27 -228 19 -238 l 81 -282 q 56 -309 69 -296 q 27 -334 43 -323 q -9 -351 11 -345 q -55 -357 -29 -357 q -101 -348 -81 -357 q -137 -323 -122 -338 q -160 -287 -152 -307 q -168 -245 -168 -267 q -163 -211 -168 -225 q -149 -184 -157 -196 q -131 -163 -141 -173 q -113 -142 -121 -153 q -100 -119 -105 -132 q -94 -90 -94 -106 q -110 -53 -94 -65 q -145 -41 -125 -41 q -173 -48 -161 -41 q -192 -66 -184 -55 q -203 -91 -199 -77 q -206 -119 -206 -105 q -206 -138 -206 -131 q -204 -151 -205 -145 l -279 -151 q -284 -112 -281 -131 q -294 -77 -288 -92 q -313 -53 -301 -62 q -343 -43 -324 -43 q -382 -58 -366 -43 q -397 -108 -397 -73 q -387 -161 -397 -136 q -359 -208 -376 -186 q -318 -249 -341 -230 q -270 -283 -295 -267 l -311 -343 z "},"ॅ":{"ha":0,"x_min":-449,"x_max":125,"o":"m -368 1423 q -343 1332 -358 1373 q -304 1261 -328 1291 q -246 1215 -281 1232 q -163 1199 -212 1199 q -104 1206 -135 1199 q -44 1238 -73 1214 q 7 1305 -16 1261 q 41 1423 29 1350 l 125 1404 q 85 1271 113 1326 q 19 1181 58 1216 q -65 1130 -19 1146 q -162 1114 -112 1114 q -258 1131 -213 1114 q -339 1182 -302 1147 q -405 1272 -376 1217 q -449 1404 -433 1327 l -368 1423 z "},"ॆ":{"ha":0,"x_min":-681,"x_max":-125,"o":"m -195 993 q -215 1106 -199 1065 q -259 1166 -231 1147 q -325 1192 -286 1186 q -412 1200 -363 1197 q -496 1207 -454 1202 q -574 1233 -538 1212 q -639 1300 -611 1255 q -681 1428 -667 1345 l -616 1444 q -583 1354 -606 1386 q -530 1307 -561 1322 q -463 1289 -500 1292 q -388 1284 -427 1285 q -326 1279 -357 1282 q -268 1266 -296 1276 q -216 1237 -240 1256 q -173 1187 -192 1219 q -141 1107 -154 1155 q -125 993 -129 1060 l -195 993 z "},"े":{"ha":0,"x_min":-654,"x_max":-121,"o":"m -196 977 q -273 1116 -240 1058 q -333 1215 -307 1175 q -381 1278 -359 1255 q -425 1315 -404 1302 q -469 1332 -446 1328 q -521 1336 -492 1336 l -654 1336 l -654 1428 l -523 1428 q -457 1421 -487 1428 q -398 1395 -427 1414 q -342 1345 -370 1377 q -281 1264 -314 1313 q -210 1146 -249 1215 q -121 985 -171 1077 l -196 977 z "},"ै":{"ha":0,"x_min":-699,"x_max":-125,"o":"m -193 994 q -305 1089 -258 1050 q -388 1153 -353 1128 q -447 1192 -422 1178 q -491 1212 -472 1205 q -526 1219 -510 1218 q -558 1220 -541 1220 l -699 1220 l -699 1303 l -571 1303 q -499 1292 -531 1303 q -433 1259 -467 1281 q -360 1205 -399 1238 q -268 1131 -321 1173 l -264 1133 q -329 1236 -300 1192 q -379 1311 -357 1280 q -421 1362 -402 1342 q -457 1394 -439 1382 q -492 1410 -475 1406 q -529 1415 -509 1415 l -665 1415 l -665 1499 l -536 1499 q -476 1492 -503 1499 q -424 1465 -450 1485 q -372 1411 -399 1446 q -310 1320 -345 1376 q -231 1183 -275 1263 q -125 994 -186 1103 l -193 994 z "},"ॉ":{"ha":344,"x_min":-108,"x_max":466,"o":"m 368 934 l 225 934 l 225 0 l 138 0 l 138 934 l -24 934 l -24 1011 l 368 1011 l 368 934 m -26 1423 q -2 1332 -17 1373 q 37 1261 13 1291 q 95 1215 60 1232 q 178 1199 130 1199 q 237 1206 206 1199 q 297 1238 269 1214 q 348 1305 326 1261 q 382 1423 370 1350 l 466 1404 q 426 1271 454 1326 q 360 1181 399 1216 q 276 1130 322 1146 q 179 1114 229 1114 q 83 1131 128 1114 q 2 1182 39 1147 q -63 1272 -35 1217 q -108 1404 -92 1327 l -26 1423 z "},"ॊ":{"ha":344,"x_min":-337,"x_max":368,"o":"m 368 934 l 225 934 l 225 0 l 138 0 l 138 934 l -24 934 l -24 1011 l 368 1011 l 368 934 m 149 993 q 129 1106 145 1065 q 85 1166 113 1147 q 19 1192 58 1186 q -68 1200 -20 1197 q -152 1207 -111 1202 q -231 1233 -194 1212 q -295 1300 -267 1255 q -337 1428 -323 1345 l -272 1444 q -239 1354 -262 1386 q -186 1307 -217 1322 q -119 1289 -156 1292 q -44 1284 -83 1285 q 18 1279 -13 1282 q 76 1266 48 1276 q 128 1237 104 1256 q 171 1187 152 1219 q 202 1107 190 1155 q 219 993 215 1060 l 149 993 z "},"ो":{"ha":344,"x_min":-311,"x_max":368,"o":"m 368 934 l 225 934 l 225 0 l 138 0 l 138 934 l -24 934 l -24 1011 l 368 1011 l 368 934 m 148 977 q 71 1116 104 1058 q 11 1215 37 1175 q -38 1278 -16 1255 q -81 1315 -60 1302 q -125 1332 -102 1328 q -177 1336 -149 1336 l -311 1336 l -311 1428 l -179 1428 q -113 1421 -143 1428 q -55 1395 -83 1414 q 2 1345 -26 1377 q 62 1264 30 1313 q 134 1146 95 1215 q 223 985 173 1077 l 148 977 z "},"ौ":{"ha":344,"x_min":-355,"x_max":368,"o":"m 368 934 l 225 934 l 225 0 l 138 0 l 138 934 l -24 934 l -24 1011 l 368 1011 l 368 934 m 151 994 q 39 1089 86 1050 q -44 1153 -9 1128 q -103 1192 -79 1178 q -147 1212 -128 1205 q -182 1219 -166 1218 q -214 1220 -197 1220 l -355 1220 l -355 1303 l -227 1303 q -155 1292 -187 1303 q -89 1259 -123 1281 q -17 1205 -56 1238 q 76 1131 22 1173 l 79 1133 q 15 1236 43 1192 q -36 1311 -13 1280 q -77 1362 -58 1342 q -113 1394 -96 1382 q -148 1410 -131 1406 q -185 1415 -165 1415 l -321 1415 l -321 1499 l -192 1499 q -132 1492 -159 1499 q -80 1465 -106 1485 q -28 1411 -55 1446 q 34 1320 -1 1376 q 113 1183 68 1263 q 218 994 158 1103 l 151 994 z "},"ॄ":{"ha":0,"x_min":-424,"x_max":-35,"o":"m -119 176 l -201 176 q -263 169 -237 176 q -306 149 -289 161 q -332 119 -323 136 q -340 83 -340 102 q -332 49 -340 64 q -309 25 -323 35 q -273 11 -294 16 q -229 6 -252 6 q -173 11 -201 6 q -120 24 -144 16 l -101 -58 q -168 -72 -136 -64 q -225 -93 -200 -80 q -264 -125 -250 -106 q -279 -172 -279 -144 q -272 -205 -279 -191 q -250 -228 -264 -219 q -216 -242 -235 -237 q -174 -246 -197 -246 q -115 -239 -144 -246 q -62 -222 -85 -233 l -35 -301 q -167 -330 -104 -330 q -242 -318 -207 -330 q -305 -284 -278 -307 q -347 -231 -332 -262 q -363 -161 -363 -199 q -352 -103 -363 -127 q -319 -54 -340 -78 l -319 -52 q -397 9 -370 -26 q -424 95 -424 44 q -405 171 -424 139 q -356 222 -387 202 q -286 252 -325 242 q -206 261 -247 261 l -119 261 l -119 176 z "},"ॣ":{"ha":0,"x_min":-481,"x_max":81,"o":"m 81 -313 q 38 -326 61 -321 q -7 -330 15 -330 q -54 -324 -32 -330 q -92 -305 -76 -317 q -118 -276 -109 -293 q -127 -238 -127 -259 q -121 -204 -127 -221 q -102 -176 -115 -187 l -102 -174 q -146 -140 -133 -159 q -159 -96 -159 -121 q -148 -53 -159 -70 q -125 -23 -138 -37 q -102 2 -113 -10 q -92 33 -92 15 q -106 62 -92 50 q -144 75 -121 75 q -173 68 -161 75 q -192 50 -184 61 q -203 24 -199 39 q -206 -5 -206 10 q -204 -35 -206 -23 l -279 -35 q -284 5 -281 -15 q -294 39 -288 24 q -313 63 -301 54 q -344 73 -325 73 q -382 58 -366 73 q -397 8 -397 43 q -387 -45 -397 -20 q -359 -92 -376 -71 q -318 -133 -341 -114 q -270 -168 -295 -151 l -311 -227 q -362 -191 -333 -214 q -418 -137 -391 -168 q -463 -67 -444 -105 q -481 16 -481 -28 q -471 72 -481 47 q -443 115 -460 98 q -401 142 -425 133 q -349 152 -376 152 q -288 138 -314 152 q -246 96 -262 123 l -245 96 q -200 138 -227 125 q -143 151 -174 151 q -88 140 -113 151 q -46 111 -63 129 q -19 72 -28 94 q -9 29 -9 50 q -22 -16 -9 1 q -49 -47 -34 -33 q -76 -74 -64 -61 q -88 -104 -88 -86 q -79 -123 -88 -115 q -41 -132 -70 -132 q -1 -128 -20 -132 q 33 -120 19 -123 l 46 -184 q 8 -190 28 -186 q -26 -198 -11 -193 q -52 -212 -42 -204 q -62 -233 -62 -220 q -46 -255 -62 -248 q -9 -261 -30 -261 q 25 -257 9 -261 q 61 -247 42 -254 l 81 -313 z "},"्":{"ha":0,"x_min":-226,"x_max":98,"o":"m 45 -335 l -226 -81 l -176 -25 l 98 -277 l 45 -335 z "},"ँ":{"ha":0,"x_min":-456,"x_max":132,"o":"m -374 1423 q -349 1332 -364 1373 q -309 1261 -334 1291 q -249 1215 -284 1232 q -163 1199 -213 1199 q -101 1206 -134 1199 q -40 1238 -69 1214 q 13 1305 -11 1261 q 47 1423 36 1350 l 132 1404 q 91 1271 119 1326 q 24 1181 63 1216 q -63 1130 -16 1146 q -162 1114 -111 1114 q -260 1131 -214 1114 q -344 1182 -306 1147 q -410 1272 -382 1217 q -456 1404 -439 1327 l -374 1423 m -238 1402 q -217 1458 -238 1436 q -163 1480 -196 1480 q -133 1474 -147 1480 q -108 1457 -119 1468 q -92 1432 -98 1447 q -85 1398 -85 1417 q -106 1341 -85 1363 q -160 1320 -127 1320 q -216 1342 -194 1320 q -238 1402 -238 1365 z "},"ऀ":{"ha":0,"x_min":-456,"x_max":132,"o":"m 50 1161 q 25 1252 40 1211 q -15 1323 9 1293 q -76 1369 -40 1352 q -161 1385 -111 1385 q -223 1377 -191 1385 q -284 1346 -255 1370 q -337 1278 -313 1322 q -372 1161 -360 1234 l -456 1179 q -415 1313 -444 1257 q -348 1403 -387 1368 q -261 1454 -309 1438 q -162 1470 -214 1470 q -64 1453 -111 1470 q 20 1402 -18 1437 q 86 1312 58 1367 q 132 1179 115 1257 l 50 1161 m -239 1185 q -218 1242 -239 1220 q -164 1264 -197 1264 q -134 1258 -148 1264 q -109 1241 -119 1252 q -92 1215 -98 1230 q -86 1182 -86 1200 q -107 1125 -86 1147 q -161 1103 -128 1103 q -217 1126 -195 1103 q -239 1185 -239 1149 z "},"ं":{"ha":0,"x_min":-239,"x_max":-81,"o":"m -239 1215 q -217 1274 -239 1251 q -161 1297 -195 1297 q -130 1290 -144 1297 q -104 1273 -115 1284 q -87 1246 -93 1261 q -81 1212 -81 1230 q -103 1153 -81 1175 q -158 1131 -125 1131 q -190 1137 -176 1131 q -216 1154 -205 1143 q -233 1181 -227 1165 q -239 1215 -239 1196 z "},"ः":{"ha":0,"x_min":85,"x_max":243,"o":"m 85 260 q 107 319 85 296 q 163 342 129 342 q 195 335 180 342 q 220 318 210 329 q 237 291 231 307 q 243 257 243 275 q 221 198 243 220 q 166 176 199 176 q 134 182 149 176 q 109 199 119 188 q 92 226 98 210 q 85 260 85 241 m 85 671 q 107 729 85 707 q 163 752 129 752 q 195 746 180 752 q 220 728 210 739 q 237 701 231 717 q 243 667 243 686 q 221 608 243 631 q 166 586 199 586 q 134 592 149 586 q 109 609 119 598 q 92 636 98 621 q 85 671 85 652 z "},"़":{"ha":0,"x_min":-239,"x_max":-81,"o":"m -239 -182 q -217 -123 -239 -146 q -161 -100 -195 -100 q -130 -107 -144 -100 q -104 -124 -115 -113 q -87 -151 -93 -136 q -81 -185 -81 -167 q -103 -244 -81 -222 q -158 -267 -125 -267 q -190 -260 -176 -267 q -216 -243 -205 -254 q -233 -216 -227 -232 q -239 -182 -239 -201 z "},"॑":{"ha":0,"x_min":-203,"x_max":-121,"o":"m -203 1124 l -203 1446 l -121 1446 l -121 1124 l -203 1124 z "},"॒":{"ha":0,"x_min":-572,"x_max":-78,"o":"m -572 -121 l -78 -121 l -78 -199 l -572 -199 l -572 -121 z "},"॓":{"ha":0,"x_min":-420,"x_max":-96,"o":"m -149 1133 l -420 1385 l -370 1442 l -96 1191 l -149 1133 z "},"॔":{"ha":0,"x_min":-228,"x_max":96,"o":"m -228 1191 l 45 1442 l 96 1385 l -176 1133 l -228 1191 z "},"०":{"ha":694,"x_min":78,"x_max":616,"o":"m 349 722 q 273 707 307 722 q 213 665 238 692 q 174 601 188 638 q 161 517 161 563 q 176 432 161 470 q 216 366 191 393 q 275 323 241 338 q 348 309 309 309 q 420 323 387 309 q 479 366 454 338 q 518 432 504 393 q 533 519 533 471 q 519 602 533 564 q 482 666 506 640 q 424 708 458 693 q 349 722 390 722 m 345 804 q 453 782 403 804 q 539 722 503 760 q 595 631 575 684 q 616 517 616 579 q 595 401 616 454 q 537 309 574 348 q 452 249 500 271 q 347 228 403 228 q 243 249 292 228 q 158 309 195 271 q 99 401 121 348 q 78 519 78 455 q 98 633 78 581 q 153 723 117 685 q 237 782 189 761 q 345 804 286 804 z "},"१":{"ha":615,"x_min":95,"x_max":534,"o":"m 266 578 q 200 623 231 598 q 145 677 169 647 q 109 744 122 708 q 95 825 95 781 q 111 909 95 872 q 154 970 127 945 q 216 1008 180 995 q 290 1021 251 1021 q 372 1005 333 1021 q 440 960 411 989 q 487 887 470 930 q 505 789 505 844 q 484 673 505 728 q 429 564 463 617 q 350 459 395 511 q 259 355 306 407 q 388 236 336 286 q 473 147 441 186 q 519 76 505 108 q 534 9 534 43 q 519 -63 534 -27 q 479 -132 505 -100 l 410 -88 q 428 -60 420 -73 q 441 -37 436 -48 q 448 -14 446 -26 q 450 14 450 -2 q 448 39 450 26 q 435 68 445 52 q 405 108 425 85 q 351 164 385 131 q 267 243 317 197 q 145 352 216 290 q 278 498 225 435 q 363 611 331 561 q 408 703 395 661 q 421 788 421 745 q 410 860 421 831 q 382 907 399 889 q 342 933 364 926 q 299 941 321 941 q 252 932 274 941 q 213 906 230 923 q 187 867 197 890 q 178 818 178 844 q 189 762 178 788 q 218 713 200 735 q 260 672 237 690 q 307 641 283 654 l 266 578 z "},"२":{"ha":728,"x_min":68,"x_max":633,"o":"m 570 -136 q 412 103 482 -18 q 286 351 342 224 q 216 369 245 354 q 166 404 186 383 q 137 450 146 425 q 127 497 127 474 q 132 528 127 513 q 146 554 137 543 q 169 572 155 565 q 199 578 182 578 q 234 571 216 578 q 269 547 252 564 q 303 505 287 531 q 333 439 319 478 q 405 470 369 450 q 470 520 441 489 q 517 594 499 551 q 536 696 536 637 q 516 804 536 758 q 462 881 496 850 q 381 928 427 912 q 281 943 334 943 q 190 932 237 943 q 96 900 143 922 l 68 974 q 279 1020 180 1020 q 420 994 357 1020 q 527 922 483 967 q 595 817 571 877 q 619 692 619 758 q 602 587 619 637 q 553 494 585 536 q 473 419 520 452 q 363 366 425 387 l 363 364 q 421 247 392 302 q 481 137 450 191 q 551 27 513 83 q 633 -88 588 -28 l 570 -136 z "},"३":{"ha":715,"x_min":78,"x_max":616,"o":"m 521 -139 q 431 -12 478 -73 q 332 111 385 50 q 246 123 282 113 q 187 151 210 134 q 152 189 163 168 q 141 231 141 209 q 163 282 141 263 q 218 301 184 301 q 257 295 236 301 q 298 274 277 288 q 340 239 319 260 q 380 189 361 218 q 425 203 399 193 q 476 236 452 214 q 516 294 500 258 q 533 382 533 330 q 517 466 533 431 q 475 523 502 500 q 410 556 448 545 q 330 567 373 567 l 152 567 l 152 644 l 311 644 q 385 657 353 644 q 436 692 416 671 q 467 741 456 713 q 477 796 477 768 q 466 850 477 825 q 432 893 456 875 q 370 923 408 912 q 277 934 332 934 l 78 934 l 78 1011 l 273 1011 q 403 992 349 1011 q 492 943 457 974 q 544 872 527 912 q 560 791 560 833 q 552 735 560 761 q 531 687 544 709 q 500 647 517 665 q 465 615 483 629 l 465 611 q 532 569 504 595 q 579 511 561 543 q 607 445 598 479 q 616 376 616 410 q 602 289 616 330 q 562 214 587 248 q 502 156 536 180 q 429 119 468 131 l 429 116 q 513 14 473 64 q 592 -94 553 -37 l 521 -139 z "},"४":{"ha":786,"x_min":75,"x_max":711,"o":"m 170 1011 q 161 969 164 989 q 159 930 159 948 q 179 828 159 875 q 231 740 199 781 q 306 660 264 698 q 391 585 347 623 q 477 665 435 624 q 553 752 519 706 q 607 852 587 799 q 628 968 628 905 q 627 990 628 979 q 625 1011 627 1001 l 708 1011 q 710 985 709 998 q 711 959 711 972 q 688 828 711 888 q 628 717 665 768 q 544 620 591 665 q 450 534 497 575 q 514 472 484 503 q 567 406 545 440 q 603 333 590 371 q 616 252 616 295 q 597 161 616 200 q 547 96 578 122 q 475 56 515 69 q 391 42 434 42 q 297 60 338 42 q 226 109 255 79 q 181 179 197 140 q 165 262 165 219 q 178 337 165 302 q 214 406 191 373 q 266 470 236 439 q 329 531 295 500 q 237 613 283 570 q 156 705 192 656 q 97 813 119 755 q 75 941 75 871 q 81 1011 75 975 l 170 1011 m 249 247 q 265 182 249 206 q 303 144 281 157 q 350 126 326 130 q 391 121 374 121 q 446 131 420 121 q 491 157 471 140 q 522 200 510 175 q 533 256 533 224 q 522 316 533 288 q 491 372 511 345 q 446 426 472 399 q 389 479 419 452 q 334 424 359 451 q 290 368 309 396 q 260 309 271 339 q 249 247 249 279 z "},"५":{"ha":838,"x_min":102,"x_max":876,"o":"m 245 1011 q 218 910 229 957 q 199 821 206 863 q 189 741 192 779 q 185 668 185 703 q 201 532 185 588 q 244 439 217 475 q 309 387 272 404 q 389 370 347 370 q 442 377 418 370 q 484 395 466 385 q 514 419 502 406 q 535 442 527 431 q 502 517 513 478 q 490 589 490 556 q 496 632 490 614 q 513 663 503 650 q 536 681 523 675 q 563 686 549 686 q 597 677 580 686 q 628 652 614 669 q 651 611 642 635 q 659 554 659 586 q 650 492 659 520 q 629 441 642 464 q 731 176 671 309 q 876 -94 791 43 l 808 -136 q 679 110 736 -16 q 578 368 622 235 q 527 327 552 342 q 477 304 501 312 q 432 293 453 296 q 395 290 411 290 q 274 319 328 290 q 182 398 220 348 q 123 517 144 449 q 102 663 102 585 q 104 726 102 689 q 113 808 107 764 q 130 905 119 853 q 155 1011 140 956 l 245 1011 z "},"६":{"ha":813,"x_min":109,"x_max":813,"o":"m 581 567 l 423 567 q 340 553 374 567 q 284 515 306 538 q 254 460 263 491 q 244 397 244 430 q 259 317 244 355 q 302 251 274 279 q 369 205 330 222 q 456 189 408 189 q 500 192 475 189 q 545 203 525 195 q 524 260 532 228 q 515 321 515 293 q 519 354 515 338 q 530 380 522 369 q 550 398 538 391 q 581 404 563 404 q 628 390 606 404 q 665 354 649 376 q 690 305 681 332 q 699 250 699 277 q 689 199 699 223 q 657 159 679 175 q 813 -94 726 31 l 748 -140 q 663 -6 702 -72 q 590 127 624 60 q 528 113 558 117 q 473 109 498 109 q 349 133 406 109 q 250 198 292 157 q 184 295 208 239 q 161 414 161 351 q 182 515 161 470 q 254 600 203 559 l 254 604 q 190 640 217 618 q 144 690 163 662 q 117 751 126 718 q 109 818 109 783 q 124 898 109 865 q 164 952 139 930 q 221 986 189 974 q 286 1003 253 998 q 351 1010 319 1009 q 407 1011 382 1011 l 557 1011 l 557 934 l 412 934 q 320 928 361 934 q 251 909 279 923 q 207 870 222 895 q 192 807 192 845 q 210 734 192 764 q 257 683 228 703 q 323 654 286 663 q 397 644 359 644 l 581 644 l 581 567 z "},"७":{"ha":884,"x_min":81,"x_max":803,"o":"m 667 361 q 653 360 660 361 q 634 359 647 359 q 525 379 574 359 q 440 432 475 398 q 385 513 404 467 q 365 616 365 560 q 378 697 365 661 q 414 761 391 734 q 472 802 438 787 q 549 817 506 817 q 653 789 606 817 q 734 714 701 762 q 785 598 767 666 q 803 451 803 531 q 781 288 803 361 q 719 161 759 214 q 621 79 678 109 q 494 50 564 50 q 347 89 410 50 q 237 196 283 128 q 161 357 191 264 q 114 556 132 450 q 88 779 96 663 q 81 1011 81 895 l 163 1011 q 171 771 163 885 q 195 559 178 657 q 237 382 211 461 q 299 247 262 303 q 384 161 336 191 q 492 131 431 131 q 591 156 548 131 q 662 226 633 182 q 705 331 690 271 q 720 459 720 391 q 705 584 720 532 q 666 670 690 636 q 613 720 642 704 q 555 736 584 736 q 519 730 538 736 q 485 709 500 724 q 458 671 469 695 q 448 611 448 647 q 465 532 448 565 q 508 479 481 500 q 568 450 535 459 q 634 440 602 440 q 651 441 642 440 q 667 443 660 441 l 667 361 z "},"८":{"ha":779,"x_min":81,"x_max":711,"o":"m 597 967 q 433 734 503 835 q 315 558 363 633 q 238 436 267 484 q 197 361 210 387 q 173 299 180 327 q 165 243 165 271 q 178 175 165 205 q 215 121 191 144 q 274 87 239 99 q 351 75 308 75 q 439 91 399 75 q 513 137 479 107 q 577 206 547 166 q 637 294 608 246 l 711 249 q 636 143 673 190 q 556 63 598 96 q 465 12 513 30 q 357 -6 416 -6 q 245 13 296 -6 q 158 65 194 32 q 101 145 121 99 q 81 245 81 191 q 120 397 81 319 q 162 473 132 422 q 240 599 191 523 q 360 779 290 675 q 525 1015 430 882 l 597 967 z "},"९":{"ha":766,"x_min":82,"x_max":693,"o":"m 324 595 q 386 626 357 608 q 434 667 414 644 q 466 718 454 690 q 477 781 477 746 q 468 841 477 812 q 438 891 458 869 q 390 927 419 913 q 323 940 361 940 q 256 927 286 940 q 207 890 227 913 q 176 836 186 867 q 165 768 165 804 q 181 684 165 724 q 231 598 197 644 q 316 496 264 552 q 439 366 368 440 q 546 254 498 304 q 626 160 593 203 q 676 80 659 117 q 693 7 693 42 q 679 -61 693 -24 q 639 -132 665 -98 l 572 -91 q 583 -74 576 -85 q 595 -49 589 -63 q 605 -20 601 -35 q 610 10 610 -5 q 597 59 610 33 q 558 119 585 85 q 489 198 531 153 q 389 304 448 243 q 257 443 315 381 q 161 558 200 504 q 102 664 122 612 q 82 773 82 715 q 100 874 82 829 q 150 953 118 920 q 224 1003 181 985 q 319 1021 268 1021 q 419 1001 375 1021 q 495 947 464 981 q 544 868 527 913 q 561 775 561 824 q 550 701 561 737 q 515 630 539 664 q 451 569 490 597 q 357 520 412 541 l 324 595 z "},"।":{"ha":575,"x_min":319,"x_max":406,"o":"m 406 0 l 319 0 l 319 1011 l 406 1011 l 406 0 z "},"॥":{"ha":833,"x_min":319,"x_max":664,"o":"m 406 0 l 319 0 l 319 1011 l 406 1011 l 406 0 m 664 0 l 577 0 l 577 1011 l 664 1011 l 664 0 z "},"॰":{"ha":610,"x_min":98,"x_max":511,"o":"m 305 945 q 254 935 277 945 q 214 907 231 925 q 187 862 197 888 q 178 802 178 836 q 188 742 178 768 q 216 696 198 715 q 256 668 233 677 q 305 658 279 658 q 353 668 330 658 q 394 696 376 677 q 421 742 411 715 q 432 802 432 768 q 422 862 432 836 q 396 907 413 888 q 356 935 379 925 q 305 945 332 945 m 305 1025 q 386 1008 349 1025 q 452 962 424 991 q 495 891 479 932 q 511 802 511 850 q 495 713 511 754 q 450 643 478 672 q 384 596 421 613 q 305 580 347 580 q 226 596 264 580 q 160 643 189 613 q 115 713 132 672 q 98 802 98 754 q 114 891 98 850 q 158 962 130 932 q 224 1008 186 991 q 305 1025 262 1025 z "},"ॐ":{"ha":1425,"x_min":71,"x_max":1340,"o":"m 1031 148 q 1031 187 1031 170 q 1031 227 1031 205 q 1053 224 1040 225 q 1072 224 1065 224 q 1153 240 1118 224 q 1211 285 1187 256 q 1245 354 1234 314 q 1257 443 1257 395 q 1249 512 1257 484 q 1228 559 1241 541 q 1198 586 1215 578 q 1162 595 1181 595 q 1114 580 1136 595 q 1072 544 1093 566 q 1030 496 1051 522 q 985 448 1010 470 q 932 411 961 426 q 866 397 903 397 q 838 399 852 397 q 806 407 823 401 l 805 406 q 823 331 818 368 q 829 260 829 294 q 815 160 829 210 q 772 71 802 111 q 691 8 741 32 q 568 -16 642 -16 q 452 2 506 -16 q 351 51 397 20 q 267 124 305 82 q 199 212 229 165 q 146 309 169 259 q 107 407 123 359 q 82 497 91 454 q 71 574 73 541 l 140 597 q 166 472 148 535 q 213 350 185 409 q 277 238 241 290 q 358 148 314 186 q 454 87 403 109 q 564 64 506 64 q 626 72 594 64 q 684 102 658 80 q 728 165 711 125 q 745 269 745 205 q 678 447 745 387 q 468 507 611 507 q 448 507 460 507 q 427 506 436 507 l 427 585 q 444 585 430 585 q 472 585 458 585 q 596 600 547 585 q 674 641 646 615 q 714 699 703 666 q 726 768 726 732 q 685 885 726 844 q 574 926 644 926 q 506 917 545 926 q 413 880 467 907 l 375 950 q 475 991 426 977 q 570 1005 524 1005 q 668 987 624 1005 q 743 936 712 968 q 792 857 774 903 q 809 758 809 812 q 774 630 809 682 q 675 545 739 578 l 675 541 q 714 514 696 529 q 749 489 732 500 q 788 471 766 477 q 833 465 809 465 q 901 480 873 465 q 953 519 930 496 q 997 569 976 542 q 1040 619 1017 596 q 1092 658 1063 642 q 1159 673 1120 673 q 1232 655 1199 673 q 1290 606 1265 637 q 1327 529 1314 574 q 1340 431 1340 485 q 1323 319 1340 372 q 1274 228 1306 267 q 1193 166 1241 189 q 1084 144 1145 144 q 1056 145 1071 144 q 1031 148 1040 146 m 784 1307 q 809 1216 794 1257 q 849 1145 825 1175 q 910 1099 874 1116 q 996 1083 945 1083 q 1057 1091 1025 1083 q 1118 1122 1089 1099 q 1171 1190 1147 1146 q 1206 1307 1194 1234 l 1290 1289 q 1250 1155 1278 1210 q 1182 1065 1221 1100 q 1095 1014 1143 1030 q 996 998 1048 998 q 898 1015 944 998 q 814 1066 852 1031 q 748 1156 777 1101 q 703 1289 720 1211 l 784 1307 m 920 1286 q 941 1342 920 1320 q 995 1364 962 1364 q 1025 1358 1011 1364 q 1050 1341 1040 1352 q 1067 1316 1061 1331 q 1073 1282 1073 1301 q 1052 1225 1073 1247 q 998 1204 1031 1204 q 942 1226 964 1204 q 920 1286 920 1249 z "},"অ":{"ha":1312,"x_min":-15,"x_max":1325,"o":"m 1325 934 l 1163 934 l 1163 -27 l 1109 -27 q 1064 65 1088 22 q 1010 146 1039 109 q 946 219 981 184 q 872 286 911 254 q 755 201 826 231 q 595 172 685 172 q 410 214 500 172 q 243 340 320 256 q 106 548 166 424 q 9 836 45 673 l 84 880 l 87 880 q 187 598 130 715 q 310 408 244 481 q 450 300 376 334 q 600 266 523 266 q 707 286 659 266 q 789 340 755 305 q 843 422 824 375 q 861 526 861 470 q 845 624 861 580 q 801 701 829 669 q 735 752 772 734 q 655 772 697 770 l 652 766 q 677 717 670 740 q 684 671 684 694 q 675 623 684 645 q 649 583 666 600 q 610 556 633 566 q 560 546 587 546 q 508 556 532 546 q 466 586 484 567 q 437 630 448 604 q 427 687 427 656 q 443 760 427 726 q 486 816 458 793 q 428 880 462 849 q 357 934 394 911 l -15 934 l -15 1011 l 1325 1011 l 1325 934 m 497 934 q 534 899 515 919 q 569 858 553 878 q 604 865 585 863 q 640 867 622 867 q 762 843 705 867 q 862 773 819 818 q 930 665 905 728 q 955 527 955 602 q 946 441 955 484 q 919 359 937 398 q 997 284 958 325 q 1072 197 1036 243 l 1076 197 l 1076 934 l 497 934 z "},"আ":{"ha":1605,"x_min":-15,"x_max":1620,"o":"m 1163 934 l 1163 -27 l 1109 -27 q 1064 65 1088 22 q 1010 146 1039 109 q 946 219 981 184 q 872 286 911 254 q 755 201 826 231 q 595 172 685 172 q 410 214 500 172 q 243 340 320 256 q 106 548 166 424 q 9 836 45 673 l 84 880 l 87 880 q 187 598 130 715 q 310 408 244 481 q 450 300 376 334 q 600 266 523 266 q 707 286 659 266 q 789 340 755 305 q 843 422 824 375 q 861 526 861 470 q 845 624 861 580 q 801 701 829 669 q 735 752 772 734 q 655 772 697 770 l 652 766 q 677 717 670 740 q 684 671 684 694 q 675 623 684 645 q 649 583 666 600 q 610 556 633 566 q 560 546 587 546 q 508 556 532 546 q 466 586 484 567 q 437 630 448 604 q 427 687 427 656 q 443 760 427 726 q 486 816 458 793 q 428 880 462 849 q 357 934 394 911 l -15 934 l -15 1011 l 1278 1011 q 1373 995 1326 1011 q 1447 946 1419 978 q 1459 995 1447 979 q 1490 1011 1471 1011 l 1620 1011 l 1620 934 l 1604 934 q 1520 905 1550 934 q 1489 831 1489 876 l 1489 0 l 1402 0 l 1402 831 q 1394 871 1402 852 q 1370 904 1385 890 q 1330 926 1354 918 q 1278 934 1307 934 l 1163 934 m 497 934 q 534 899 515 919 q 569 858 553 878 q 604 865 585 863 q 640 867 622 867 q 762 843 705 867 q 862 773 819 818 q 930 665 905 728 q 955 527 955 602 q 946 441 955 484 q 919 359 937 398 q 997 284 958 325 q 1072 197 1036 243 l 1076 197 l 1076 934 l 497 934 z "},"ই":{"ha":774,"x_min":-24,"x_max":841,"o":"m 779 -11 q 646 130 714 68 q 498 238 578 192 q 322 317 418 285 q 106 370 226 349 l 115 457 q 163 452 141 456 q 207 445 184 449 q 254 438 229 441 q 312 435 279 435 q 443 450 384 435 q 545 490 503 465 q 611 547 587 515 q 634 614 634 579 q 623 662 634 639 q 588 702 611 684 q 532 731 566 720 q 456 746 499 743 q 439 689 454 716 q 403 642 425 663 q 352 610 380 622 q 293 597 323 597 q 226 621 251 597 q 201 684 201 644 q 212 730 201 707 q 240 771 222 752 q 284 805 258 791 q 342 827 310 820 q 333 854 338 839 q 322 883 328 869 q 311 911 317 898 q 301 934 306 925 l -15 934 l -15 1011 l 658 1011 q 634 1077 648 1050 q 601 1121 621 1104 q 556 1145 582 1138 q 496 1153 530 1153 q 419 1148 454 1153 q 352 1137 384 1143 q 288 1125 320 1131 q 220 1120 256 1120 q 44 1186 106 1120 q -24 1387 -19 1253 l 64 1387 q 80 1301 68 1336 q 112 1245 92 1266 q 161 1214 132 1223 q 229 1205 190 1205 q 285 1210 252 1205 q 353 1221 317 1215 q 424 1232 389 1227 q 489 1237 459 1237 q 664 1181 600 1237 q 746 1011 728 1126 l 789 1011 l 789 934 l 395 934 q 413 888 404 914 q 432 837 423 863 q 555 815 501 834 q 646 765 609 795 q 702 694 682 734 q 721 612 721 654 q 702 530 721 570 q 648 458 683 491 q 563 401 613 425 q 449 364 512 376 l 449 360 q 562 304 507 336 q 666 231 616 271 q 760 145 716 191 q 841 49 804 99 l 779 -11 z "},"ঈ":{"ha":1154,"x_min":-15,"x_max":1169,"o":"m 255 934 q 287 907 269 924 q 319 870 304 890 q 372 874 344 874 q 486 855 435 874 q 576 801 538 836 q 638 714 614 765 q 671 600 663 664 q 749 666 707 635 q 835 724 791 698 q 920 771 878 751 q 998 802 962 791 l 1072 747 q 1000 635 1031 692 q 947 522 968 578 q 914 413 925 466 q 903 312 903 359 q 927 155 903 233 q 1002 0 951 76 l 940 -55 q 847 110 879 17 q 815 311 815 203 q 845 494 815 401 q 941 688 874 587 q 784 580 855 641 q 654 444 712 519 q 607 353 635 393 q 542 285 578 313 q 464 242 506 257 q 375 228 421 228 q 320 233 347 228 q 267 250 293 239 q 215 280 241 262 q 162 325 189 298 l 221 390 q 374 317 292 317 q 456 337 418 317 q 523 392 494 357 q 568 474 551 427 q 585 575 585 521 q 571 659 585 621 q 531 725 557 697 q 471 768 506 753 q 393 784 435 784 l 389 778 q 409 738 403 760 q 416 694 416 716 q 407 648 416 670 q 383 610 399 627 q 346 584 368 594 q 296 574 323 574 q 243 585 267 574 q 203 614 220 596 q 176 657 186 633 q 167 709 167 682 q 183 779 167 745 q 231 835 199 812 q 207 863 222 848 q 175 892 192 878 q 142 918 159 907 q 113 934 125 929 l -15 934 l -15 1011 l 983 1011 q 923 1114 965 1083 q 806 1145 881 1145 q 707 1141 762 1145 q 598 1131 653 1137 q 491 1121 543 1125 q 399 1116 439 1116 q 198 1182 268 1116 q 121 1387 127 1248 l 210 1387 q 260 1247 216 1290 q 393 1204 304 1204 q 488 1209 433 1204 q 602 1220 543 1214 q 715 1230 660 1225 q 810 1235 770 1235 q 989 1181 925 1235 q 1071 1011 1053 1126 l 1169 1011 l 1169 934 l 255 934 z "},"উ":{"ha":1062,"x_min":-15,"x_max":1077,"o":"m 892 1011 q 868 1077 882 1050 q 835 1121 854 1104 q 790 1145 816 1138 q 730 1153 764 1153 q 649 1148 686 1153 q 579 1137 613 1143 q 512 1125 545 1131 q 440 1120 479 1120 q 254 1186 321 1120 q 182 1387 188 1253 l 271 1387 q 289 1301 276 1336 q 323 1245 302 1266 q 376 1214 345 1223 q 449 1205 407 1205 q 508 1210 474 1205 q 580 1221 543 1215 q 654 1232 617 1227 q 723 1237 692 1237 q 898 1181 833 1237 q 980 1011 962 1126 l 1077 1011 l 1077 934 l 577 934 l 577 612 q 579 550 577 573 q 584 514 581 527 q 594 498 588 502 q 611 494 601 494 q 676 506 643 494 q 743 543 709 517 q 810 608 777 568 q 879 705 844 648 l 887 705 q 948 632 922 672 q 992 549 975 593 q 1019 460 1010 506 q 1028 368 1028 414 q 1001 216 1028 284 q 926 98 975 147 q 809 22 877 49 q 659 -5 741 -5 q 454 49 546 -5 q 289 207 362 103 q 162 463 216 311 q 72 810 109 614 l 139 859 l 141 859 q 238 505 184 651 q 355 265 291 358 q 496 130 420 172 q 661 87 572 87 q 774 109 723 87 q 862 170 825 131 q 919 262 899 209 q 939 379 939 316 q 927 476 939 426 q 889 566 914 526 q 838 504 867 532 q 774 454 808 475 q 703 422 740 433 q 632 410 667 410 q 526 454 562 410 q 490 589 490 498 l 490 934 l -15 934 l -15 1011 l 892 1011 z "}}}
